<svg width="32" height="32" viewBox="0 0 32 32" fill="none" xmlns="http://www.w3.org/2000/svg">
<path d="M2 11.9945C2 8.49612 2 6.7469 2.69029 5.4107C3.29749 4.23532 4.26637 3.27972 5.45804 2.68084C6.81284 2 8.58631 2 12.1333 2H19.8667C23.4137 2 25.1872 2 26.5419 2.68084C27.7336 3.27972 28.7025 4.23532 29.3097 5.4107C30 6.7469 30 8.49612 30 11.9945V19.6219C30 23.1204 30 24.8696 29.3097 26.2057C28.7025 27.3811 27.7336 28.3367 26.5419 28.9356C25.1872 29.6164 23.4137 29.6164 19.8667 29.6164H12.1333C8.58631 29.6164 6.81284 29.6164 5.45804 28.9356C4.26637 28.3367 3.29749 27.3811 2.69029 26.2057C2 24.8696 2 23.1204 2 19.6219V11.9945Z" fill="#330000"/>
<path d="M15.5686 19.193H11.2297L10.3469 21.9339C10.3224 22.0357 10.2262 22.1078 10.1215 22.1028H7.92382C7.79849 22.1028 7.75467 22.034 7.79236 21.8963L11.549 11.0829C11.5866 10.9702 11.6242 10.842 11.6617 10.698C11.7109 10.4475 11.736 10.193 11.7369 9.93777C11.7261 9.86233 11.7941 9.79572 11.8683 9.80628H14.8549C14.9424 9.80628 14.9924 9.8376 15.0051 9.90014L19.269 21.9151C19.3065 22.0403 19.269 22.1029 19.1563 22.1028H16.7144C16.6288 22.1123 16.547 22.0551 16.5266 21.9714L15.5686 19.193ZM11.9059 16.8275H14.8737C14.3861 15.2039 13.8358 13.6015 13.3898 11.9653C12.9086 13.6043 12.3836 15.2368 11.9059 16.8275Z" fill="#FF9A00"/>
<path d="M21.8045 11.7963C21.6129 11.804 21.4219 11.7711 21.2438 11.7C21.0658 11.6289 20.9048 11.5209 20.7714 11.3833C20.6384 11.2397 20.535 11.0713 20.4673 10.8876C20.3996 10.704 20.3689 10.5088 20.3769 10.3132C20.3701 10.1196 20.4042 9.92677 20.477 9.7472C20.5499 9.56768 20.6598 9.40549 20.7996 9.27131C20.938 9.13848 21.1014 9.03445 21.2804 8.96515C21.4593 8.89586 21.6502 8.86277 21.842 8.86766C22.2929 8.86766 22.6466 9.00223 22.9033 9.27131C23.0329 9.41112 23.1336 9.57513 23.1997 9.75392C23.2657 9.9327 23.2959 10.1228 23.2883 10.3132C23.2962 10.5095 23.2645 10.7054 23.1951 10.8892C23.1258 11.073 23.0201 11.241 22.8845 11.3833C22.7428 11.523 22.5736 11.6317 22.3878 11.7028C22.2019 11.7739 22.0033 11.8057 21.8045 11.7963ZM20.5084 21.9151V12.9415C20.5084 12.8289 20.5583 12.7725 20.6587 12.7725H22.9691C23.0691 12.7725 23.1192 12.8289 23.1193 12.9415V21.9151C23.1193 22.0404 23.0692 22.1029 22.9691 22.1029H20.6775C20.5648 22.1029 20.5084 22.0403 20.5084 21.9151Z" fill="#FF9A00"/>
</svg>
