<svg width="32" height="32" viewBox="0 0 32 32" fill="none" xmlns="http://www.w3.org/2000/svg">
<path d="M2 11.9945C2 8.49612 2 6.7469 2.69029 5.4107C3.29749 4.23532 4.26637 3.27972 5.45804 2.68084C6.81284 2 8.58631 2 12.1333 2H19.8667C23.4137 2 25.1872 2 26.5419 2.68084C27.7336 3.27972 28.7025 4.23532 29.3097 5.4107C30 6.7469 30 8.49612 30 11.9945V19.6219C30 23.1204 30 24.8696 29.3097 26.2057C28.7025 27.3811 27.7336 28.3367 26.5419 28.9356C25.1872 29.6164 23.4137 29.6164 19.8667 29.6164H12.1333C8.58631 29.6164 6.81284 29.6164 5.45804 28.9356C4.26637 28.3367 3.29749 27.3811 2.69029 26.2057C2 24.8696 2 23.1204 2 19.6219V11.9945Z" fill="#470137"/>
<path d="M16.6465 10.1915L13.1528 16.0249L16.8906 22.2192C16.9683 22.3596 16.8906 22.3907 16.778 22.3907H14.1108C13.9229 22.3907 13.7914 22.3839 13.7163 22.2572C13.4656 21.7632 13.2152 21.2723 12.9649 20.7846C12.7143 20.2971 12.4482 19.7999 12.1667 19.293C11.8849 18.7865 11.6063 18.2736 11.3308 17.754C11.0802 18.2607 10.8015 18.7674 10.5325 19.2741C10.2631 19.7808 9.99703 20.2844 9.73423 20.7846C9.47125 21.2851 9.20205 21.7823 8.92654 22.2762C8.87636 22.3902 8.78859 22.4019 8.66352 22.4019H6.09028C5.98916 22.4019 5.97694 22.327 6.03392 22.2382L9.65908 16.2149L6.12783 10.1725C6.06365 10.0863 6.11885 9.99447 6.22174 10.0014H8.87014C8.98485 9.99512 9.08619 10.0377 9.15192 10.1345C9.37734 10.6413 9.62779 11.148 9.90325 11.6546C10.1785 12.1613 10.4572 12.6618 10.7391 13.1556C11.0209 13.6497 11.2995 14.15 11.5374 14.6568C11.7877 14.1375 12.0413 13.6308 12.2981 13.1367C12.5547 12.6427 12.8176 12.1455 13.087 11.6451C13.3562 11.1449 13.616 10.6477 13.8665 10.1535C13.8998 10.0451 13.9794 9.99021 14.0919 10.0014H16.5525C16.6465 10.0014 16.6853 10.128 16.6465 10.1915Z" fill="#FF61F6"/>
<path d="M22.0371 22.6376C20.3806 22.6631 18.6455 21.9904 17.7733 20.5C17.3475 19.7844 17.1346 18.8883 17.1347 17.8113C17.1276 16.9392 17.3479 16.0807 17.7733 15.3222C18.871 13.3869 21.0824 12.6618 23.1829 12.8521V9.10884C23.1829 9.02038 23.2205 8.97585 23.2956 8.97585H25.6623C25.727 8.96651 25.7842 9.02442 25.775 9.08982V20.3195C25.775 20.7828 25.8216 21.2444 25.8502 21.7065C25.8548 21.7854 25.8085 21.8636 25.7374 21.8966C24.5681 22.3899 23.3028 22.6319 22.0371 22.6376ZM23.1829 20.2814V15.0942C21.4673 14.6241 19.8017 15.9129 19.8019 17.6973C19.7612 19.5422 21.3736 20.8168 23.1829 20.2814Z" fill="#FF61F6"/>
</svg>
