<svg width="602" height="83" viewBox="0 0 602 83" fill="none" xmlns="http://www.w3.org/2000/svg">
<rect x="0.5" y="0.723633" width="601" height="81" rx="14.5" fill="#D63484" fill-opacity="0.2"/>
<rect x="0.5" y="0.723633" width="601" height="81" rx="14.5" stroke="white"/>
<rect x="13" y="17.2236" width="48" height="48" rx="13.3333" fill="#1769FF"/>
<path d="M29.9543 30.3486C30.9891 30.3486 31.9338 30.4408 32.7882 30.6232C33.6426 30.8056 34.3722 31.1051 34.9808 31.5218C35.5895 31.9384 36.0618 32.4914 36.3978 33.1826C36.7338 33.8738 36.9008 34.7262 36.9008 35.7419C36.9008 36.8382 36.6512 37.7522 36.1539 38.4837C35.6567 39.2152 34.9194 39.8142 33.9459 40.2808C35.2861 40.6667 36.2864 41.3426 36.9469 42.3064C37.6074 43.2702 37.9376 44.4337 37.9376 45.795C37.9376 46.8913 37.7245 47.8417 37.2983 48.6443C36.872 49.4469 36.2979 50.1016 35.576 50.6085C34.8541 51.1173 34.0323 51.4917 33.1088 51.7355C32.1795 51.9793 31.2215 52.1022 30.2615 52.1003H19.7188V30.3486H29.9543ZM29.3456 39.1518C30.1981 39.1518 30.8989 38.9483 31.448 38.5432C31.9971 38.1362 32.2717 37.4776 32.2698 36.5637C32.2698 36.0568 32.1776 35.6402 31.9952 35.3157C31.8128 34.9912 31.569 34.7358 31.2637 34.5534C30.9584 34.371 30.609 34.2443 30.2135 34.1733C29.8064 34.1022 29.3936 34.0658 28.9789 34.0677H24.5034V39.1557L29.3456 39.1518ZM29.6202 48.3813C30.0714 48.3832 30.5207 48.3371 30.9603 48.2449C31.3866 48.1528 31.7629 48.0011 32.0874 47.788C32.4119 47.5749 32.6711 47.2849 32.865 46.9201C33.057 46.5553 33.1549 46.0869 33.1549 45.5185C33.1549 44.403 32.84 43.6043 32.2103 43.1281C31.5805 42.6501 30.7472 42.412 29.7123 42.412H24.5034V48.3832L29.6202 48.3813ZM43.9549 47.9243C44.6039 48.5541 45.5389 48.8689 46.7581 48.8689C47.6317 48.8689 48.3824 48.6501 49.0122 48.2142C49.6419 47.7784 50.0279 47.3157 50.1699 46.828H53.9773C53.3687 48.7173 52.4336 50.067 51.1741 50.8792C49.9146 51.6913 48.392 52.0984 46.6045 52.0984C45.3661 52.0984 44.2487 51.9006 43.2541 51.5051C42.2595 51.1096 41.4167 50.5451 40.7255 49.8136C40.0343 49.0821 39.5005 48.2104 39.1261 47.1947C38.7517 46.179 38.5635 45.0616 38.5635 43.8443C38.5635 42.6674 38.7555 41.571 39.1415 40.5554C39.5274 39.5397 40.0765 38.6622 40.7869 37.9211C41.4973 37.18 42.3459 36.5963 43.3309 36.1701C44.3159 35.7438 45.4083 35.5307 46.6064 35.5307C47.9466 35.5307 49.1139 35.7899 50.1104 36.3083C51.105 36.8267 51.9229 37.5218 52.5623 38.3954C53.2016 39.269 53.6643 40.2635 53.9485 41.3809C54.2327 42.4984 54.3344 43.6657 54.2538 44.8849H42.8912C42.9507 46.2808 43.3059 47.2965 43.9549 47.9243ZM48.8451 39.6395C48.3267 39.0712 47.5395 38.787 46.4835 38.787C45.7923 38.787 45.2183 38.9042 44.7632 39.1365C44.3063 39.3707 43.9415 39.6587 43.6669 40.0043C43.3923 40.3499 43.2003 40.7147 43.089 41.1006C42.9776 41.4866 42.9104 41.8322 42.8912 42.1355H49.928C49.7226 41.0411 49.3616 40.2078 48.8451 39.6395ZM42.1501 31.4526H50.9418V33.891H42.1501V31.4526Z" fill="white"/>
<rect x="77" y="21.2236" width="512" height="40" rx="4" fill="white" fill-opacity="0.85"/>
<path d="M173.138 46.7236V32.7376H174.578V38.5516H174.65C175.166 37.3636 176.09 36.7696 177.422 36.7696C178.43 36.7696 179.222 37.0936 179.798 37.7416C180.386 38.3896 180.68 39.2956 180.68 40.4596V46.7236H179.24V40.7476C179.24 39.8596 179.048 39.1936 178.664 38.7496C178.292 38.2936 177.74 38.0656 177.008 38.0656C176.336 38.0656 175.76 38.2336 175.28 38.5696C174.812 38.8936 174.578 39.3616 174.578 39.9736V46.7236H173.138ZM185.913 46.7236C185.421 46.7236 185.043 46.5856 184.779 46.3096C184.515 46.0216 184.383 45.6436 184.383 45.1756V38.2456H182.745V36.9856H183.681C183.993 36.9856 184.209 36.9256 184.329 36.8056C184.449 36.6736 184.509 36.4456 184.509 36.1216V34.2676H185.823V36.9856H187.965V38.2456H185.823V45.4636H187.821V46.7236H185.913ZM192.364 46.7236C191.872 46.7236 191.494 46.5856 191.23 46.3096C190.966 46.0216 190.834 45.6436 190.834 45.1756V38.2456H189.196V36.9856H190.132C190.444 36.9856 190.66 36.9256 190.78 36.8056C190.9 36.6736 190.96 36.4456 190.96 36.1216V34.2676H192.274V36.9856H194.416V38.2456H192.274V45.4636H194.272V46.7236H192.364ZM196.904 50.5036V36.9856H198.344V38.5516H198.416C198.92 37.3516 199.88 36.7516 201.296 36.7516C202.088 36.7516 202.778 36.9616 203.366 37.3816C203.966 37.7896 204.428 38.3776 204.752 39.1456C205.076 39.9136 205.238 40.8136 205.238 41.8456C205.238 42.8776 205.076 43.7836 204.752 44.5636C204.428 45.3316 203.966 45.9256 203.366 46.3456C202.778 46.7536 202.088 46.9576 201.296 46.9576C200.612 46.9576 200.03 46.8076 199.55 46.5076C199.082 46.2076 198.704 45.7576 198.416 45.1576H198.344V50.5036H196.904ZM200.9 45.6616C201.752 45.6616 202.43 45.3916 202.934 44.8516C203.438 44.2996 203.69 43.5676 203.69 42.6556V41.0356C203.69 40.1356 203.438 39.4156 202.934 38.8756C202.43 38.3236 201.752 38.0476 200.9 38.0476C200.192 38.0476 199.586 38.2276 199.082 38.5876C198.59 38.9476 198.344 39.4096 198.344 39.9736V43.6276C198.344 44.2516 198.584 44.7496 199.064 45.1216C199.556 45.4816 200.168 45.6616 200.9 45.6616ZM210.753 46.9576C209.901 46.9576 209.163 46.7956 208.539 46.4716C207.915 46.1356 207.375 45.6616 206.919 45.0496L207.963 44.2036C208.347 44.7076 208.773 45.0916 209.241 45.3556C209.709 45.6076 210.243 45.7336 210.843 45.7336C211.515 45.7336 212.037 45.5896 212.409 45.3016C212.781 45.0136 212.967 44.6116 212.967 44.0956C212.967 43.6636 212.829 43.3156 212.553 43.0516C212.277 42.7756 211.821 42.5956 211.185 42.5116L210.411 42.4036C208.335 42.1156 207.297 41.1796 207.297 39.5956C207.297 38.6716 207.615 37.9696 208.251 37.4896C208.899 36.9976 209.733 36.7516 210.753 36.7516C211.509 36.7516 212.157 36.8896 212.697 37.1656C213.249 37.4296 213.729 37.8136 214.137 38.3176L213.183 39.1816C212.931 38.8336 212.589 38.5456 212.157 38.3176C211.737 38.0896 211.239 37.9756 210.663 37.9756C210.027 37.9756 209.535 38.1136 209.187 38.3896C208.851 38.6656 208.683 39.0436 208.683 39.5236C208.683 39.9916 208.839 40.3396 209.151 40.5676C209.463 40.7956 209.949 40.9696 210.609 41.0896L211.365 41.1976C212.397 41.3416 213.153 41.6476 213.633 42.1156C214.113 42.5716 214.353 43.1776 214.353 43.9336C214.353 44.8696 214.029 45.6076 213.381 46.1476C212.745 46.6876 211.869 46.9576 210.753 46.9576ZM218.147 39.0736C217.787 39.0736 217.511 38.9836 217.319 38.8036C217.139 38.6116 217.049 38.3536 217.049 38.0296V37.7956C217.049 37.4716 217.139 37.2196 217.319 37.0396C217.511 36.8476 217.787 36.7516 218.147 36.7516C218.507 36.7516 218.777 36.8476 218.957 37.0396C219.149 37.2196 219.245 37.4716 219.245 37.7956V38.0296C219.245 38.3536 219.149 38.6116 218.957 38.8036C218.777 38.9836 218.507 39.0736 218.147 39.0736ZM218.147 46.9396C217.787 46.9396 217.511 46.8496 217.319 46.6696C217.139 46.4776 217.049 46.2196 217.049 45.8956V45.6616C217.049 45.3376 217.139 45.0856 217.319 44.9056C217.511 44.7136 217.787 44.6176 218.147 44.6176C218.507 44.6176 218.777 44.7136 218.957 44.9056C219.149 45.0856 219.245 45.3376 219.245 45.6616V45.8956C219.245 46.2196 219.149 46.4776 218.957 46.6696C218.777 46.8496 218.507 46.9396 218.147 46.9396ZM222.407 49.5856H221.111L226.043 32.7376H227.339L222.407 49.5856ZM227.487 49.5856H226.191L231.123 32.7376H232.419L227.487 49.5856ZM238.185 46.7236H236.421L233.811 36.9856H235.215L236.349 41.4496L237.339 45.4996H237.375L238.509 41.4496L239.805 36.9856H241.101L242.451 41.4496L243.603 45.4996H243.639L244.575 41.4496L245.727 36.9856H247.095L244.485 46.7236H242.703L241.263 41.8276L240.453 39.0016H240.417L239.625 41.8276L238.185 46.7236ZM252.687 46.7236H250.923L248.313 36.9856H249.717L250.851 41.4496L251.841 45.4996H251.877L253.011 41.4496L254.307 36.9856H255.603L256.953 41.4496L258.105 45.4996H258.141L259.077 41.4496L260.229 36.9856H261.597L258.987 46.7236H257.205L255.765 41.8276L254.955 39.0016H254.919L254.127 41.8276L252.687 46.7236ZM267.189 46.7236H265.425L262.815 36.9856H264.219L265.353 41.4496L266.343 45.4996H266.379L267.513 41.4496L268.809 36.9856H270.105L271.455 41.4496L272.607 45.4996H272.643L273.579 41.4496L274.731 36.9856H276.099L273.489 46.7236H271.707L270.267 41.8276L269.457 39.0016H269.421L268.629 41.8276L267.189 46.7236ZM278.734 46.9576C278.374 46.9576 278.098 46.8676 277.906 46.6876C277.726 46.4956 277.636 46.2376 277.636 45.9136V45.6796C277.636 45.3556 277.726 45.1036 277.906 44.9236C278.098 44.7316 278.374 44.6356 278.734 44.6356C279.094 44.6356 279.364 44.7316 279.544 44.9236C279.736 45.1036 279.832 45.3556 279.832 45.6796V45.9136C279.832 46.2376 279.736 46.4956 279.544 46.6876C279.364 46.8676 279.094 46.9576 278.734 46.9576ZM287.323 46.9576C286.639 46.9576 286.057 46.8076 285.577 46.5076C285.109 46.2076 284.731 45.7576 284.443 45.1576H284.371V46.7236H282.931V32.7376H284.371V38.5516H284.443C284.947 37.3516 285.907 36.7516 287.323 36.7516C288.115 36.7516 288.805 36.9616 289.393 37.3816C289.993 37.7896 290.455 38.3776 290.779 39.1456C291.103 39.9136 291.265 40.8136 291.265 41.8456C291.265 42.8776 291.103 43.7836 290.779 44.5636C290.455 45.3316 289.993 45.9256 289.393 46.3456C288.805 46.7536 288.115 46.9576 287.323 46.9576ZM286.927 45.6616C287.779 45.6616 288.457 45.3916 288.961 44.8516C289.465 44.2996 289.717 43.5676 289.717 42.6556V41.0356C289.717 40.1356 289.465 39.4156 288.961 38.8756C288.457 38.3236 287.779 38.0476 286.927 38.0476C286.219 38.0476 285.613 38.2276 285.109 38.5876C284.617 38.9476 284.371 39.4096 284.371 39.9736V43.6276C284.371 44.2516 284.611 44.7496 285.091 45.1216C285.583 45.4816 286.195 45.6616 286.927 45.6616ZM297.518 46.9576C296.654 46.9576 295.892 46.7476 295.232 46.3276C294.572 45.9076 294.062 45.3136 293.702 44.5456C293.342 43.7776 293.162 42.8776 293.162 41.8456C293.162 40.8256 293.342 39.9316 293.702 39.1636C294.062 38.3956 294.566 37.8076 295.214 37.3996C295.874 36.9796 296.636 36.7696 297.5 36.7696C298.352 36.7696 299.09 36.9736 299.714 37.3816C300.35 37.7776 300.836 38.3356 301.172 39.0556C301.508 39.7756 301.676 40.5976 301.676 41.5216V42.1876H294.674V42.6556C294.674 43.5556 294.932 44.2876 295.448 44.8516C295.976 45.4156 296.69 45.6976 297.59 45.6976C298.214 45.6976 298.76 45.5476 299.228 45.2476C299.708 44.9476 300.074 44.5216 300.326 43.9696L301.352 44.7076C301.04 45.3916 300.548 45.9376 299.876 46.3456C299.204 46.7536 298.418 46.9576 297.518 46.9576ZM294.674 41.1076H300.128V40.9276C300.128 40.0396 299.882 39.3256 299.39 38.7856C298.91 38.2456 298.28 37.9756 297.5 37.9756C296.672 37.9756 295.994 38.2576 295.466 38.8216C294.938 39.3856 294.674 40.1116 294.674 40.9996V41.1076ZM304.236 46.7236V32.7376H305.676V38.5516H305.748C306.264 37.3636 307.188 36.7696 308.52 36.7696C309.528 36.7696 310.32 37.0936 310.896 37.7416C311.484 38.3896 311.778 39.2956 311.778 40.4596V46.7236H310.338V40.7476C310.338 39.8596 310.146 39.1936 309.762 38.7496C309.39 38.2936 308.838 38.0656 308.106 38.0656C307.434 38.0656 306.858 38.2336 306.378 38.5696C305.91 38.8936 305.676 39.3616 305.676 39.9736V46.7236H304.236ZM317.407 46.9576C316.387 46.9576 315.589 46.6936 315.013 46.1656C314.449 45.6376 314.167 44.9176 314.167 44.0056C314.167 43.0816 314.509 42.3796 315.193 41.8996C315.877 41.4076 316.909 41.1616 318.289 41.1616H320.251V40.1896C320.251 39.4696 320.053 38.9236 319.657 38.5516C319.273 38.1796 318.691 37.9936 317.911 37.9936C316.819 37.9936 315.979 38.4856 315.391 39.4696L314.527 38.6596C314.815 38.0956 315.253 37.6396 315.841 37.2916C316.441 36.9316 317.155 36.7516 317.983 36.7516C319.147 36.7516 320.053 37.0396 320.701 37.6156C321.361 38.1916 321.691 38.9956 321.691 40.0276V45.4636H322.807V46.7236H322.033C321.037 46.7236 320.473 46.1956 320.341 45.1396H320.251C320.047 45.7276 319.693 46.1776 319.189 46.4896C318.697 46.8016 318.103 46.9576 317.407 46.9576ZM317.659 45.7336C318.403 45.7336 319.021 45.5596 319.513 45.2116C320.005 44.8516 320.251 44.4076 320.251 43.8796V42.2416H318.217C317.365 42.2416 316.729 42.3736 316.309 42.6376C315.889 42.8896 315.679 43.2616 315.679 43.7536V44.1496C315.679 44.6536 315.853 45.0436 316.201 45.3196C316.561 45.5956 317.047 45.7336 317.659 45.7336ZM325.031 46.7236V36.9856H326.471V38.5516H326.543C327.059 37.3636 327.983 36.7696 329.315 36.7696C330.323 36.7696 331.115 37.0936 331.691 37.7416C332.279 38.3896 332.573 39.2956 332.573 40.4596V46.7236H331.133V40.7476C331.133 39.8596 330.941 39.1936 330.557 38.7496C330.185 38.2936 329.633 38.0656 328.901 38.0656C328.229 38.0656 327.653 38.2336 327.173 38.5696C326.705 38.8936 326.471 39.3616 326.471 39.9736V46.7236H325.031ZM339.336 46.9576C337.98 46.9576 336.918 46.5016 336.15 45.5896C335.382 44.6656 334.998 43.4176 334.998 41.8456C334.998 40.2736 335.382 39.0376 336.15 38.1376C336.918 37.2256 337.98 36.7696 339.336 36.7696C340.248 36.7696 341.004 36.9736 341.604 37.3816C342.204 37.7776 342.654 38.3236 342.954 39.0196L341.748 39.6316C341.556 39.1276 341.25 38.7376 340.83 38.4616C340.422 38.1856 339.924 38.0476 339.336 38.0476C338.436 38.0476 337.746 38.3236 337.266 38.8756C336.786 39.4156 336.546 40.1416 336.546 41.0536V42.6556C336.546 43.5796 336.786 44.3176 337.266 44.8696C337.746 45.4096 338.436 45.6796 339.336 45.6796C340.548 45.6796 341.436 45.1096 342 43.9696L343.044 44.6536C342.72 45.3736 342.24 45.9376 341.604 46.3456C340.98 46.7536 340.224 46.9576 339.336 46.9576ZM348.758 46.9576C347.894 46.9576 347.132 46.7476 346.472 46.3276C345.812 45.9076 345.302 45.3136 344.942 44.5456C344.582 43.7776 344.402 42.8776 344.402 41.8456C344.402 40.8256 344.582 39.9316 344.942 39.1636C345.302 38.3956 345.806 37.8076 346.454 37.3996C347.114 36.9796 347.876 36.7696 348.74 36.7696C349.592 36.7696 350.33 36.9736 350.954 37.3816C351.59 37.7776 352.076 38.3356 352.412 39.0556C352.748 39.7756 352.916 40.5976 352.916 41.5216V42.1876H345.914V42.6556C345.914 43.5556 346.172 44.2876 346.688 44.8516C347.216 45.4156 347.93 45.6976 348.83 45.6976C349.454 45.6976 350 45.5476 350.468 45.2476C350.948 44.9476 351.314 44.5216 351.566 43.9696L352.592 44.7076C352.28 45.3916 351.788 45.9376 351.116 46.3456C350.444 46.7536 349.658 46.9576 348.758 46.9576ZM345.914 41.1076H351.368V40.9276C351.368 40.0396 351.122 39.3256 350.63 38.7856C350.15 38.2456 349.52 37.9756 348.74 37.9756C347.912 37.9756 347.234 38.2576 346.706 38.8216C346.178 39.3856 345.914 40.1116 345.914 40.9996V41.1076ZM356.042 46.9576C355.682 46.9576 355.406 46.8676 355.214 46.6876C355.034 46.4956 354.944 46.2376 354.944 45.9136V45.6796C354.944 45.3556 355.034 45.1036 355.214 44.9236C355.406 44.7316 355.682 44.6356 356.042 44.6356C356.402 44.6356 356.672 44.7316 356.852 44.9236C357.044 45.1036 357.14 45.3556 357.14 45.6796V45.9136C357.14 46.2376 357.044 46.4956 356.852 46.6876C356.672 46.8676 356.402 46.9576 356.042 46.9576ZM360.24 46.7236V36.9856H361.68V38.5516H361.752C362.268 37.3636 363.192 36.7696 364.524 36.7696C365.532 36.7696 366.324 37.0936 366.9 37.7416C367.488 38.3896 367.782 39.2956 367.782 40.4596V46.7236H366.342V40.7476C366.342 39.8596 366.15 39.1936 365.766 38.7496C365.394 38.2936 364.842 38.0656 364.11 38.0656C363.438 38.0656 362.862 38.2336 362.382 38.5696C361.914 38.8936 361.68 39.3616 361.68 39.9736V46.7236H360.24ZM374.581 46.9576C373.717 46.9576 372.955 46.7476 372.295 46.3276C371.635 45.9076 371.125 45.3136 370.765 44.5456C370.405 43.7776 370.225 42.8776 370.225 41.8456C370.225 40.8256 370.405 39.9316 370.765 39.1636C371.125 38.3956 371.629 37.8076 372.277 37.3996C372.937 36.9796 373.699 36.7696 374.563 36.7696C375.415 36.7696 376.153 36.9736 376.777 37.3816C377.413 37.7776 377.899 38.3356 378.235 39.0556C378.571 39.7756 378.739 40.5976 378.739 41.5216V42.1876H371.737V42.6556C371.737 43.5556 371.995 44.2876 372.511 44.8516C373.039 45.4156 373.753 45.6976 374.653 45.6976C375.277 45.6976 375.823 45.5476 376.291 45.2476C376.771 44.9476 377.137 44.5216 377.389 43.9696L378.415 44.7076C378.103 45.3916 377.611 45.9376 376.939 46.3456C376.267 46.7536 375.481 46.9576 374.581 46.9576ZM371.737 41.1076H377.191V40.9276C377.191 40.0396 376.945 39.3256 376.453 38.7856C375.973 38.2456 375.343 37.9756 374.563 37.9756C373.735 37.9756 373.057 38.2576 372.529 38.8216C372.001 39.3856 371.737 40.1116 371.737 40.9996V41.1076ZM383.368 46.7236C382.876 46.7236 382.498 46.5856 382.234 46.3096C381.97 46.0216 381.838 45.6436 381.838 45.1756V38.2456H380.2V36.9856H381.136C381.448 36.9856 381.664 36.9256 381.784 36.8056C381.904 36.6736 381.964 36.4456 381.964 36.1216V34.2676H383.278V36.9856H385.42V38.2456H383.278V45.4636H385.276V46.7236H383.368ZM387.782 49.5856H386.486L391.418 32.7376H392.714L387.782 49.5856ZM397.44 46.9576C396.42 46.9576 395.622 46.6936 395.046 46.1656C394.482 45.6376 394.2 44.9176 394.2 44.0056C394.2 43.0816 394.542 42.3796 395.226 41.8996C395.91 41.4076 396.942 41.1616 398.322 41.1616H400.284V40.1896C400.284 39.4696 400.086 38.9236 399.69 38.5516C399.306 38.1796 398.724 37.9936 397.944 37.9936C396.852 37.9936 396.012 38.4856 395.424 39.4696L394.56 38.6596C394.848 38.0956 395.286 37.6396 395.874 37.2916C396.474 36.9316 397.188 36.7516 398.016 36.7516C399.18 36.7516 400.086 37.0396 400.734 37.6156C401.394 38.1916 401.724 38.9956 401.724 40.0276V45.4636H402.84V46.7236H402.066C401.07 46.7236 400.506 46.1956 400.374 45.1396H400.284C400.08 45.7276 399.726 46.1776 399.222 46.4896C398.73 46.8016 398.136 46.9576 397.44 46.9576ZM397.692 45.7336C398.436 45.7336 399.054 45.5596 399.546 45.2116C400.038 44.8516 400.284 44.4076 400.284 43.8796V42.2416H398.25C397.398 42.2416 396.762 42.3736 396.342 42.6376C395.922 42.8896 395.712 43.2616 395.712 43.7536V44.1496C395.712 44.6536 395.886 45.0436 396.234 45.3196C396.594 45.5956 397.08 45.7336 397.692 45.7336ZM407.962 46.9576C407.11 46.9576 406.372 46.7956 405.748 46.4716C405.124 46.1356 404.584 45.6616 404.128 45.0496L405.172 44.2036C405.556 44.7076 405.982 45.0916 406.45 45.3556C406.918 45.6076 407.452 45.7336 408.052 45.7336C408.724 45.7336 409.246 45.5896 409.618 45.3016C409.99 45.0136 410.176 44.6116 410.176 44.0956C410.176 43.6636 410.038 43.3156 409.762 43.0516C409.486 42.7756 409.03 42.5956 408.394 42.5116L407.62 42.4036C405.544 42.1156 404.506 41.1796 404.506 39.5956C404.506 38.6716 404.824 37.9696 405.46 37.4896C406.108 36.9976 406.942 36.7516 407.962 36.7516C408.718 36.7516 409.366 36.8896 409.906 37.1656C410.458 37.4296 410.938 37.8136 411.346 38.3176L410.392 39.1816C410.14 38.8336 409.798 38.5456 409.366 38.3176C408.946 38.0896 408.448 37.9756 407.872 37.9756C407.236 37.9756 406.744 38.1136 406.396 38.3896C406.06 38.6656 405.892 39.0436 405.892 39.5236C405.892 39.9916 406.048 40.3396 406.36 40.5676C406.672 40.7956 407.158 40.9696 407.818 41.0896L408.574 41.1976C409.606 41.3416 410.362 41.6476 410.842 42.1156C411.322 42.5716 411.562 43.1776 411.562 43.9336C411.562 44.8696 411.238 45.6076 410.59 46.1476C409.954 46.6876 409.078 46.9576 407.962 46.9576ZM414.24 46.7236V36.9856H415.68V38.5516H415.752C416.004 37.9996 416.328 37.5676 416.724 37.2556C417.132 36.9316 417.69 36.7696 418.398 36.7696C419.082 36.7696 419.688 36.9316 420.216 37.2556C420.744 37.5796 421.134 38.0776 421.386 38.7496H421.422C421.614 38.1616 421.962 37.6876 422.466 37.3276C422.97 36.9556 423.612 36.7696 424.392 36.7696C425.4 36.7696 426.18 37.0936 426.732 37.7416C427.296 38.3776 427.578 39.2836 427.578 40.4596V46.7236H426.138V40.7476C426.138 39.8596 425.958 39.1936 425.598 38.7496C425.238 38.2936 424.686 38.0656 423.942 38.0656C423.294 38.0656 422.748 38.2336 422.304 38.5696C421.86 38.8936 421.638 39.3616 421.638 39.9736V46.7236H420.198V40.7476C420.198 39.8476 420.018 39.1756 419.658 38.7316C419.31 38.2876 418.77 38.0656 418.038 38.0656C417.39 38.0656 416.832 38.2336 416.364 38.5696C415.908 38.8936 415.68 39.3616 415.68 39.9736V46.7236H414.24ZM433.194 46.9576C432.174 46.9576 431.376 46.6936 430.8 46.1656C430.236 45.6376 429.954 44.9176 429.954 44.0056C429.954 43.0816 430.296 42.3796 430.98 41.8996C431.664 41.4076 432.696 41.1616 434.076 41.1616H436.038V40.1896C436.038 39.4696 435.84 38.9236 435.444 38.5516C435.06 38.1796 434.478 37.9936 433.698 37.9936C432.606 37.9936 431.766 38.4856 431.178 39.4696L430.314 38.6596C430.602 38.0956 431.04 37.6396 431.628 37.2916C432.228 36.9316 432.942 36.7516 433.77 36.7516C434.934 36.7516 435.84 37.0396 436.488 37.6156C437.148 38.1916 437.478 38.9956 437.478 40.0276V45.4636H438.594V46.7236H437.82C436.824 46.7236 436.26 46.1956 436.128 45.1396H436.038C435.834 45.7276 435.48 46.1776 434.976 46.4896C434.484 46.8016 433.89 46.9576 433.194 46.9576ZM433.446 45.7336C434.19 45.7336 434.808 45.5596 435.3 45.2116C435.792 44.8516 436.038 44.4076 436.038 43.8796V42.2416H434.004C433.152 42.2416 432.516 42.3736 432.096 42.6376C431.676 42.8896 431.466 43.2616 431.466 43.7536V44.1496C431.466 44.6536 431.64 45.0436 431.988 45.3196C432.348 45.5956 432.834 45.7336 433.446 45.7336ZM443.284 46.9576C442.264 46.9576 441.466 46.6936 440.89 46.1656C440.326 45.6376 440.044 44.9176 440.044 44.0056C440.044 43.0816 440.386 42.3796 441.07 41.8996C441.754 41.4076 442.786 41.1616 444.166 41.1616H446.128V40.1896C446.128 39.4696 445.93 38.9236 445.534 38.5516C445.15 38.1796 444.568 37.9936 443.788 37.9936C442.696 37.9936 441.856 38.4856 441.268 39.4696L440.404 38.6596C440.692 38.0956 441.13 37.6396 441.718 37.2916C442.318 36.9316 443.032 36.7516 443.86 36.7516C445.024 36.7516 445.93 37.0396 446.578 37.6156C447.238 38.1916 447.568 38.9956 447.568 40.0276V45.4636H448.684V46.7236H447.91C446.914 46.7236 446.35 46.1956 446.218 45.1396H446.128C445.924 45.7276 445.57 46.1776 445.066 46.4896C444.574 46.8016 443.98 46.9576 443.284 46.9576ZM443.536 45.7336C444.28 45.7336 444.898 45.5596 445.39 45.2116C445.882 44.8516 446.128 44.4076 446.128 43.8796V42.2416H444.094C443.242 42.2416 442.606 42.3736 442.186 42.6376C441.766 42.8896 441.556 43.2616 441.556 43.7536V44.1496C441.556 44.6536 441.73 45.0436 442.078 45.3196C442.438 45.5956 442.924 45.7336 443.536 45.7336ZM457.388 45.4636V46.7236H449.9V45.5176L455.48 38.2456H450.062V36.9856H457.226V38.0656L451.538 45.4636H457.388ZM462.092 46.9576C461.072 46.9576 460.274 46.6936 459.698 46.1656C459.134 45.6376 458.852 44.9176 458.852 44.0056C458.852 43.0816 459.194 42.3796 459.878 41.8996C460.562 41.4076 461.594 41.1616 462.974 41.1616H464.936V40.1896C464.936 39.4696 464.738 38.9236 464.342 38.5516C463.958 38.1796 463.376 37.9936 462.596 37.9936C461.504 37.9936 460.664 38.4856 460.076 39.4696L459.212 38.6596C459.5 38.0956 459.938 37.6396 460.526 37.2916C461.126 36.9316 461.84 36.7516 462.668 36.7516C463.832 36.7516 464.738 37.0396 465.386 37.6156C466.046 38.1916 466.376 38.9956 466.376 40.0276V45.4636H467.492V46.7236H466.718C465.722 46.7236 465.158 46.1956 465.026 45.1396H464.936C464.732 45.7276 464.378 46.1776 463.874 46.4896C463.382 46.8016 462.788 46.9576 462.092 46.9576ZM462.344 45.7336C463.088 45.7336 463.706 45.5596 464.198 45.2116C464.69 44.8516 464.936 44.4076 464.936 43.8796V42.2416H462.902C462.05 42.2416 461.414 42.3736 460.994 42.6376C460.574 42.8896 460.364 43.2616 460.364 43.7536V44.1496C460.364 44.6536 460.538 45.0436 460.886 45.3196C461.246 45.5956 461.732 45.7336 462.344 45.7336ZM471.156 46.7236H469.698V32.7376H471.156V41.6656H471.228L472.704 40.0096L475.566 36.9856H477.312L473.658 40.8376L477.672 46.7236H475.926L472.614 41.7376L471.156 43.2496V46.7236ZM480.333 34.6276C480.033 34.6276 479.811 34.5556 479.667 34.4116C479.523 34.2676 479.451 34.0696 479.451 33.8176V33.5836C479.451 33.3316 479.523 33.1336 479.667 32.9896C479.811 32.8456 480.033 32.7736 480.333 32.7736C480.633 32.7736 480.855 32.8456 480.999 32.9896C481.143 33.1336 481.215 33.3316 481.215 33.5836V33.8176C481.215 34.0696 481.143 34.2676 480.999 34.4116C480.855 34.5556 480.633 34.6276 480.333 34.6276ZM481.035 46.7236H479.595V36.9856H481.035V46.7236ZM492.982 45.3916V46.7236H484.306V45.3916H488.032V34.6456H487.906L484.54 37.7596L483.658 36.8056L487.186 33.5296H489.544V45.3916H492.982Z" fill="black"/>
</svg>
