<svg width="32" height="32" viewBox="0 0 32 32" fill="none" xmlns="http://www.w3.org/2000/svg">
<mask id="mask0_339_447" style="mask-type:luminance" maskUnits="userSpaceOnUse" x="0" y="0" width="32" height="32">
<path d="M32 0.219238H0V31.7809H32V0.219238Z" fill="white"/>
</mask>
<g mask="url(#mask0_339_447)">
<path d="M27.2 0.219238H4.8C2.14903 0.219238 0 2.33883 0 4.95347V27.0466C0 29.6613 2.14903 31.7809 4.8 31.7809H27.2C29.851 31.7809 32 29.6613 32 27.0466V4.95347C32 2.33883 29.851 0.219238 27.2 0.219238Z" fill="#4175FA"/>
<path d="M21.6325 13.279C17.0465 13.279 17.0405 17.7852 17.0405 17.8083C17.0405 17.8083 16.7264 22.3201 21.6325 22.3201C21.6325 22.3201 25.724 22.5496 25.724 19.1801H23.6231C23.6231 19.1801 23.6928 20.4486 21.7024 20.4486C21.7024 20.4486 19.6014 20.5865 19.6014 18.3993H25.794C25.794 18.3993 26.475 13.279 21.6325 13.279ZM19.5779 16.8207C19.5779 16.8207 19.8341 15.0067 21.6792 15.0067C23.53 15.0067 23.5008 16.8207 23.5008 16.8207H19.5779ZM14.3288 15.6614C14.3288 15.6614 16.1504 15.5293 16.1504 13.4169C16.1504 11.3103 14.6605 10.2769 12.7689 10.2769H6.54698V22.073H12.7684C12.7684 22.073 16.569 22.188 16.569 18.5889C16.569 18.5889 16.7323 15.6614 14.3288 15.6614ZM9.28845 12.372H12.7687C12.7687 12.372 13.6127 12.372 13.6127 13.6003C13.6127 14.8286 13.1179 15.0067 12.5533 15.0067H9.28845V12.372ZM12.5943 19.9782H9.28845V16.8209H12.7687C12.7687 16.8209 14.0319 16.8095 14.0259 18.4454C14.0259 19.8233 13.0891 19.9667 12.5943 19.9782ZM19.0599 10.972V12.4245H23.9955V10.972H19.0599Z" fill="white"/>
</g>
</svg>
