<svg width="32" height="32" viewBox="0 0 32 32" fill="none" xmlns="http://www.w3.org/2000/svg">
<path d="M1 15.9918C1.83712 35.9886 30.5702 35.9732 31.4 15.9918C30.5683 -3.99427 1.83488 -4.00027 1 15.9918Z" fill="#D43C89"/>
<path d="M19.9908 15.4616C24.5546 14.8979 29.0826 15.8001 29.5319 15.8985C29.5105 12.6988 28.3482 9.75972 26.4442 7.45532C26.1517 7.84303 23.8557 10.7537 18.7927 12.7976C19.2282 13.6641 19.6247 14.5638 19.9908 15.4616Z" fill="#B2005F"/>
<path d="M25.0817 5.97294C22.6644 3.84458 19.4839 2.55469 15.9969 2.55469C14.8916 2.56163 13.8148 2.6957 12.7879 2.93544C13.1658 3.43575 15.6545 6.79063 17.9009 10.8641C22.7783 9.05998 24.8391 6.31837 25.0817 5.97294Z" fill="#B2005F"/>
<path d="M15.464 11.6836C13.1965 7.69468 10.7434 4.33981 10.3798 3.84644C6.55039 5.63664 3.67679 9.13219 2.79263 13.3328C3.40575 13.3397 9.05341 13.3609 15.464 11.6836Z" fill="#B2005F"/>
<path d="M17.0631 15.9773C17.24 15.9211 17.417 15.8653 17.601 15.8164C17.2611 15.0539 16.8861 14.2842 16.4967 13.5356C9.70816 15.5435 3.11072 15.4596 2.51616 15.4527C2.3952 19.011 3.7456 22.3873 6.00608 24.8488C6.31745 24.3239 10.048 18.2161 17.0631 15.9773Z" fill="#B2005F"/>
<path d="M18.3552 18.0593C10.8688 20.6395 8.17538 25.7725 7.94049 26.2504C11.4557 29.0905 17.0432 29.8706 21.2698 27.9776C21.0695 26.824 20.3027 22.817 18.4381 18.0322C18.4106 18.0458 18.376 18.0527 18.3552 18.0593Z" fill="#B2005F"/>
<path d="M21.0676 17.3989C22.8087 22.1361 23.5162 25.9887 23.6618 26.791C26.6445 24.7891 28.7738 21.6289 29.3703 17.961C28.9124 17.8169 25.2433 16.7406 21.0676 17.3989Z" fill="#B2005F"/>
</svg>
