<svg width="32" height="32" viewBox="0 0 32 32" fill="none" xmlns="http://www.w3.org/2000/svg">
<g clip-path="url(#clip0_370_347)">
<mask id="mask0_370_347" style="mask-type:luminance" maskUnits="userSpaceOnUse" x="0" y="0" width="32" height="32">
<path d="M32 0.0981445H0V31.6598H32V0.0981445Z" fill="white"/>
</mask>
<g mask="url(#mask0_370_347)">
<path d="M10.6667 31.6597C13.6107 31.6597 16 29.3031 16 26.3994V21.1392H10.6667C7.72266 21.1392 5.33333 23.4958 5.33333 26.3994C5.33333 29.3031 7.72266 31.6597 10.6667 31.6597Z" fill="#0ACF83"/>
<path d="M5.33333 15.8789C5.33333 12.9753 7.72266 10.6187 10.6667 10.6187H16V21.1392H10.6667C7.72266 21.1392 5.33333 18.7826 5.33333 15.8789Z" fill="#A259FF"/>
<path d="M5.33333 5.3584C5.33333 2.45475 7.72266 0.0981445 10.6667 0.0981445H16V10.6187H10.6667C7.72266 10.6187 5.33333 8.26208 5.33333 5.3584Z" fill="#F24E1E"/>
<path d="M16 0.0981445H21.3333C24.2773 0.0981445 26.6667 2.45475 26.6667 5.3584C26.6667 8.26208 24.2773 10.6187 21.3333 10.6187H16V0.0981445Z" fill="#FF7262"/>
<path d="M26.6667 15.8789C26.6667 18.7826 24.2773 21.1392 21.3333 21.1392C18.3893 21.1392 16 18.7826 16 15.8789C16 12.9753 18.3893 10.6187 21.3333 10.6187C24.2773 10.6187 26.6667 12.9753 26.6667 15.8789Z" fill="#1ABCFE"/>
</g>
</g>
<defs>
<clipPath id="clip0_370_347">
<rect width="32" height="32" fill="white"/>
</clipPath>
</defs>
</svg>
