<svg width="602" height="69" viewBox="0 0 602 69" fill="none" xmlns="http://www.w3.org/2000/svg">
<rect x="0.5" y="0.947266" width="601" height="67" rx="14.5" fill="#D63484" fill-opacity="0.2"/>
<rect x="0.5" y="0.947266" width="601" height="67" rx="14.5" stroke="white"/>
<path d="M22.2727 52.9928H29.909V33.8902L19 25.4626V49.6217C19 51.487 20.4673 52.9928 22.2727 52.9928Z" fill="#4285F4"/>
<path d="M56.091 52.9928H63.7273C65.5382 52.9928 67 51.4814 67 49.6217V25.4626L56.091 33.8902" fill="#34A853"/>
<path d="M56.091 19.2825V33.8902L67 25.4626V20.968C67 16.7991 62.38 14.4225 59.1455 16.9227" fill="#FBBC05"/>
<path d="M29.909 33.8902L29.9088 19.2823L42.9996 29.3955L56.091 19.2825V33.8902L42.9996 44.0033" fill="#EA4335"/>
<path d="M19 20.968V25.4626L29.909 33.8902L29.9088 19.2823L26.8545 16.9227C23.6145 14.4225 19 16.7991 19 20.968Z" fill="#C5221F"/>
<rect x="83" y="14.4473" width="500" height="40" rx="4" fill="white" fill-opacity="0.85"/>
<path d="M180.104 40.1813C179.084 40.1813 178.286 39.9173 177.71 39.3893C177.146 38.8613 176.864 38.1413 176.864 37.2293C176.864 36.3053 177.206 35.6033 177.89 35.1233C178.574 34.6313 179.606 34.3853 180.986 34.3853H182.948V33.4133C182.948 32.6933 182.75 32.1473 182.354 31.7753C181.97 31.4033 181.388 31.2173 180.608 31.2173C179.516 31.2173 178.676 31.7093 178.088 32.6933L177.224 31.8833C177.512 31.3193 177.95 30.8633 178.538 30.5153C179.138 30.1553 179.852 29.9753 180.68 29.9753C181.844 29.9753 182.75 30.2633 183.398 30.8393C184.058 31.4153 184.388 32.2193 184.388 33.2513V38.6873H185.504V39.9473H184.73C183.734 39.9473 183.17 39.4193 183.038 38.3633H182.948C182.744 38.9513 182.39 39.4013 181.886 39.7133C181.394 40.0253 180.8 40.1813 180.104 40.1813ZM180.356 38.9573C181.1 38.9573 181.718 38.7833 182.21 38.4353C182.702 38.0753 182.948 37.6313 182.948 37.1033V35.4653H180.914C180.062 35.4653 179.426 35.5973 179.006 35.8613C178.586 36.1133 178.376 36.4853 178.376 36.9773V37.3733C178.376 37.8773 178.55 38.2673 178.898 38.5433C179.258 38.8193 179.744 38.9573 180.356 38.9573ZM190.626 40.1813C189.774 40.1813 189.036 40.0193 188.412 39.6953C187.788 39.3593 187.248 38.8853 186.792 38.2733L187.836 37.4273C188.22 37.9313 188.646 38.3153 189.114 38.5793C189.582 38.8313 190.116 38.9573 190.716 38.9573C191.388 38.9573 191.91 38.8133 192.282 38.5253C192.654 38.2373 192.84 37.8353 192.84 37.3193C192.84 36.8873 192.702 36.5393 192.426 36.2753C192.15 35.9993 191.694 35.8193 191.058 35.7353L190.284 35.6273C188.208 35.3393 187.17 34.4033 187.17 32.8193C187.17 31.8953 187.488 31.1933 188.124 30.7133C188.772 30.2213 189.606 29.9753 190.626 29.9753C191.382 29.9753 192.03 30.1133 192.57 30.3893C193.122 30.6533 193.602 31.0373 194.01 31.5413L193.056 32.4053C192.804 32.0573 192.462 31.7693 192.03 31.5413C191.61 31.3133 191.112 31.1993 190.536 31.1993C189.9 31.1993 189.408 31.3373 189.06 31.6133C188.724 31.8893 188.556 32.2673 188.556 32.7473C188.556 33.2153 188.712 33.5633 189.024 33.7913C189.336 34.0193 189.822 34.1933 190.482 34.3133L191.238 34.4213C192.27 34.5653 193.026 34.8713 193.506 35.3393C193.986 35.7953 194.226 36.4013 194.226 37.1573C194.226 38.0933 193.902 38.8313 193.254 39.3713C192.618 39.9113 191.742 40.1813 190.626 40.1813ZM196.904 39.9473V30.2093H198.344V31.7753H198.416C198.668 31.2233 198.992 30.7913 199.388 30.4793C199.796 30.1553 200.354 29.9933 201.062 29.9933C201.746 29.9933 202.352 30.1553 202.88 30.4793C203.408 30.8033 203.798 31.3013 204.05 31.9733H204.086C204.278 31.3853 204.626 30.9113 205.13 30.5513C205.634 30.1793 206.276 29.9933 207.056 29.9933C208.064 29.9933 208.844 30.3173 209.396 30.9653C209.96 31.6013 210.242 32.5073 210.242 33.6833V39.9473H208.802V33.9713C208.802 33.0833 208.622 32.4173 208.262 31.9733C207.902 31.5173 207.35 31.2893 206.606 31.2893C205.958 31.2893 205.412 31.4573 204.968 31.7933C204.524 32.1173 204.302 32.5853 204.302 33.1973V39.9473H202.862V33.9713C202.862 33.0713 202.682 32.3993 202.322 31.9553C201.974 31.5113 201.434 31.2893 200.702 31.2893C200.054 31.2893 199.496 31.4573 199.028 31.7933C198.572 32.1173 198.344 32.5853 198.344 33.1973V39.9473H196.904ZM215.858 40.1813C214.838 40.1813 214.04 39.9173 213.464 39.3893C212.9 38.8613 212.618 38.1413 212.618 37.2293C212.618 36.3053 212.96 35.6033 213.644 35.1233C214.328 34.6313 215.36 34.3853 216.74 34.3853H218.702V33.4133C218.702 32.6933 218.504 32.1473 218.108 31.7753C217.724 31.4033 217.142 31.2173 216.362 31.2173C215.27 31.2173 214.43 31.7093 213.842 32.6933L212.978 31.8833C213.266 31.3193 213.704 30.8633 214.292 30.5153C214.892 30.1553 215.606 29.9753 216.434 29.9753C217.598 29.9753 218.504 30.2633 219.152 30.8393C219.812 31.4153 220.142 32.2193 220.142 33.2513V38.6873H221.258V39.9473H220.484C219.488 39.9473 218.924 39.4193 218.792 38.3633H218.702C218.498 38.9513 218.144 39.4013 217.64 39.7133C217.148 40.0253 216.554 40.1813 215.858 40.1813ZM216.11 38.9573C216.854 38.9573 217.472 38.7833 217.964 38.4353C218.456 38.0753 218.702 37.6313 218.702 37.1033V35.4653H216.668C215.816 35.4653 215.18 35.5973 214.76 35.8613C214.34 36.1133 214.13 36.4853 214.13 36.9773V37.3733C214.13 37.8773 214.304 38.2673 214.652 38.5433C215.012 38.8193 215.498 38.9573 216.11 38.9573ZM225.948 40.1813C224.928 40.1813 224.13 39.9173 223.554 39.3893C222.99 38.8613 222.708 38.1413 222.708 37.2293C222.708 36.3053 223.05 35.6033 223.734 35.1233C224.418 34.6313 225.45 34.3853 226.83 34.3853H228.792V33.4133C228.792 32.6933 228.594 32.1473 228.198 31.7753C227.814 31.4033 227.232 31.2173 226.452 31.2173C225.36 31.2173 224.52 31.7093 223.932 32.6933L223.068 31.8833C223.356 31.3193 223.794 30.8633 224.382 30.5153C224.982 30.1553 225.696 29.9753 226.524 29.9753C227.688 29.9753 228.594 30.2633 229.242 30.8393C229.902 31.4153 230.232 32.2193 230.232 33.2513V38.6873H231.348V39.9473H230.574C229.578 39.9473 229.014 39.4193 228.882 38.3633H228.792C228.588 38.9513 228.234 39.4013 227.73 39.7133C227.238 40.0253 226.644 40.1813 225.948 40.1813ZM226.2 38.9573C226.944 38.9573 227.562 38.7833 228.054 38.4353C228.546 38.0753 228.792 37.6313 228.792 37.1033V35.4653H226.758C225.906 35.4653 225.27 35.5973 224.85 35.8613C224.43 36.1133 224.22 36.4853 224.22 36.9773V37.3733C224.22 37.8773 224.394 38.2673 224.742 38.5433C225.102 38.8193 225.588 38.9573 226.2 38.9573ZM233.572 39.9473V30.2093H235.012V31.7753H235.084C235.336 31.2233 235.66 30.7913 236.056 30.4793C236.464 30.1553 237.022 29.9933 237.73 29.9933C238.414 29.9933 239.02 30.1553 239.548 30.4793C240.076 30.8033 240.466 31.3013 240.718 31.9733H240.754C240.946 31.3853 241.294 30.9113 241.798 30.5513C242.302 30.1793 242.944 29.9933 243.724 29.9933C244.732 29.9933 245.512 30.3173 246.064 30.9653C246.628 31.6013 246.91 32.5073 246.91 33.6833V39.9473H245.47V33.9713C245.47 33.0833 245.29 32.4173 244.93 31.9733C244.57 31.5173 244.018 31.2893 243.274 31.2893C242.626 31.2893 242.08 31.4573 241.636 31.7933C241.192 32.1173 240.97 32.5853 240.97 33.1973V39.9473H239.53V33.9713C239.53 33.0713 239.35 32.3993 238.99 31.9553C238.642 31.5113 238.102 31.2893 237.37 31.2893C236.722 31.2893 236.164 31.4573 235.696 31.7933C235.24 32.1173 235.012 32.5853 235.012 33.1973V39.9473H233.572ZM253.696 40.1813C252.832 40.1813 252.07 39.9713 251.41 39.5513C250.75 39.1313 250.234 38.5373 249.862 37.7693C249.502 36.9893 249.322 36.0893 249.322 35.0693C249.322 34.0493 249.502 33.1553 249.862 32.3873C250.234 31.6193 250.75 31.0253 251.41 30.6053C252.07 30.1853 252.832 29.9753 253.696 29.9753C254.56 29.9753 255.322 30.1853 255.982 30.6053C256.654 31.0253 257.17 31.6193 257.53 32.3873C257.902 33.1553 258.088 34.0493 258.088 35.0693C258.088 36.0893 257.902 36.9893 257.53 37.7693C257.17 38.5373 256.654 39.1313 255.982 39.5513C255.322 39.9713 254.56 40.1813 253.696 40.1813ZM253.696 38.9033C254.56 38.9033 255.25 38.6393 255.766 38.1113C256.282 37.5713 256.54 36.7913 256.54 35.7713V34.3853C256.54 33.3653 256.282 32.5913 255.766 32.0633C255.25 31.5233 254.56 31.2533 253.696 31.2533C252.844 31.2533 252.16 31.5233 251.644 32.0633C251.128 32.5913 250.87 33.3653 250.87 34.3853V35.7713C250.87 36.7913 251.128 37.5713 251.644 38.1113C252.16 38.6393 252.844 38.9033 253.696 38.9033ZM260.624 39.9473V25.9613H262.064V31.7753H262.136C262.652 30.5873 263.576 29.9933 264.908 29.9933C265.916 29.9933 266.708 30.3173 267.284 30.9653C267.872 31.6133 268.166 32.5193 268.166 33.6833V39.9473H266.726V33.9713C266.726 33.0833 266.534 32.4173 266.15 31.9733C265.778 31.5173 265.226 31.2893 264.494 31.2893C263.822 31.2893 263.246 31.4573 262.766 31.7933C262.298 32.1173 262.064 32.5853 262.064 33.1973V39.9473H260.624ZM273.795 40.1813C272.775 40.1813 271.977 39.9173 271.401 39.3893C270.837 38.8613 270.555 38.1413 270.555 37.2293C270.555 36.3053 270.897 35.6033 271.581 35.1233C272.265 34.6313 273.297 34.3853 274.677 34.3853H276.639V33.4133C276.639 32.6933 276.441 32.1473 276.045 31.7753C275.661 31.4033 275.079 31.2173 274.299 31.2173C273.207 31.2173 272.367 31.7093 271.779 32.6933L270.915 31.8833C271.203 31.3193 271.641 30.8633 272.229 30.5153C272.829 30.1553 273.543 29.9753 274.371 29.9753C275.535 29.9753 276.441 30.2633 277.089 30.8393C277.749 31.4153 278.079 32.2193 278.079 33.2513V38.6873H279.195V39.9473H278.421C277.425 39.9473 276.861 39.4193 276.729 38.3633H276.639C276.435 38.9513 276.081 39.4013 275.577 39.7133C275.085 40.0253 274.491 40.1813 273.795 40.1813ZM274.047 38.9573C274.791 38.9573 275.409 38.7833 275.901 38.4353C276.393 38.0753 276.639 37.6313 276.639 37.1033V35.4653H274.605C273.753 35.4653 273.117 35.5973 272.697 35.8613C272.277 36.1133 272.067 36.4853 272.067 36.9773V37.3733C272.067 37.8773 272.241 38.2673 272.589 38.5433C272.949 38.8193 273.435 38.9573 274.047 38.9573ZM281.419 39.9473V30.2093H282.859V31.7753H282.931C283.183 31.2233 283.507 30.7913 283.903 30.4793C284.311 30.1553 284.869 29.9933 285.577 29.9933C286.261 29.9933 286.867 30.1553 287.395 30.4793C287.923 30.8033 288.313 31.3013 288.565 31.9733H288.601C288.793 31.3853 289.141 30.9113 289.645 30.5513C290.149 30.1793 290.791 29.9933 291.571 29.9933C292.579 29.9933 293.359 30.3173 293.911 30.9653C294.475 31.6013 294.757 32.5073 294.757 33.6833V39.9473H293.317V33.9713C293.317 33.0833 293.137 32.4173 292.777 31.9733C292.417 31.5173 291.865 31.2893 291.121 31.2893C290.473 31.2893 289.927 31.4573 289.483 31.7933C289.039 32.1173 288.817 32.5853 288.817 33.1973V39.9473H287.377V33.9713C287.377 33.0713 287.197 32.3993 286.837 31.9553C286.489 31.5113 285.949 31.2893 285.217 31.2893C284.569 31.2893 284.011 31.4573 283.543 31.7933C283.087 32.1173 282.859 32.5853 282.859 33.1973V39.9473H281.419ZM301.544 40.1813C300.68 40.1813 299.918 39.9713 299.258 39.5513C298.598 39.1313 298.088 38.5373 297.728 37.7693C297.368 37.0013 297.188 36.1013 297.188 35.0693C297.188 34.0493 297.368 33.1553 297.728 32.3873C298.088 31.6193 298.592 31.0313 299.24 30.6233C299.9 30.2033 300.662 29.9933 301.526 29.9933C302.378 29.9933 303.116 30.1973 303.74 30.6053C304.376 31.0013 304.862 31.5593 305.198 32.2793C305.534 32.9993 305.702 33.8213 305.702 34.7453V35.4113H298.7V35.8793C298.7 36.7793 298.958 37.5113 299.474 38.0753C300.002 38.6393 300.716 38.9213 301.616 38.9213C302.24 38.9213 302.786 38.7713 303.254 38.4713C303.734 38.1713 304.1 37.7453 304.352 37.1933L305.378 37.9313C305.066 38.6153 304.574 39.1613 303.902 39.5693C303.23 39.9773 302.444 40.1813 301.544 40.1813ZM298.7 34.3313H304.154V34.1513C304.154 33.2633 303.908 32.5493 303.416 32.0093C302.936 31.4693 302.306 31.1993 301.526 31.1993C300.698 31.1993 300.02 31.4813 299.492 32.0453C298.964 32.6093 298.7 33.3353 298.7 34.2233V34.3313ZM311.537 40.1813C310.745 40.1813 310.049 39.9773 309.449 39.5693C308.861 39.1493 308.405 38.5553 308.081 37.7873C307.757 37.0073 307.595 36.1013 307.595 35.0693C307.595 34.0373 307.757 33.1373 308.081 32.3693C308.405 31.6013 308.861 31.0133 309.449 30.6053C310.049 30.1853 310.745 29.9753 311.537 29.9753C312.953 29.9753 313.913 30.5753 314.417 31.7753H314.489V25.9613H315.929V39.9473H314.489V38.3813H314.417C314.129 38.9813 313.745 39.4313 313.265 39.7313C312.797 40.0313 312.221 40.1813 311.537 40.1813ZM311.933 38.8853C312.665 38.8853 313.271 38.7053 313.751 38.3453C314.243 37.9733 314.489 37.4753 314.489 36.8513V33.1973C314.489 32.6333 314.237 32.1713 313.733 31.8113C313.241 31.4513 312.641 31.2713 311.933 31.2713C311.081 31.2713 310.403 31.5473 309.899 32.0993C309.395 32.6393 309.143 33.3593 309.143 34.2593V35.8793C309.143 36.7913 309.395 37.5233 309.899 38.0753C310.403 38.6153 311.081 38.8853 311.933 38.8853ZM325.692 38.6873V39.9473H318.204V38.7413L323.784 31.4693H318.366V30.2093H325.53V31.2893L319.842 38.6873H325.692ZM330.397 40.1813C329.377 40.1813 328.579 39.9173 328.003 39.3893C327.439 38.8613 327.157 38.1413 327.157 37.2293C327.157 36.3053 327.499 35.6033 328.183 35.1233C328.867 34.6313 329.899 34.3853 331.279 34.3853H333.241V33.4133C333.241 32.6933 333.043 32.1473 332.647 31.7753C332.263 31.4033 331.681 31.2173 330.901 31.2173C329.809 31.2173 328.969 31.7093 328.381 32.6933L327.517 31.8833C327.805 31.3193 328.243 30.8633 328.831 30.5153C329.431 30.1553 330.145 29.9753 330.973 29.9753C332.137 29.9753 333.043 30.2633 333.691 30.8393C334.351 31.4153 334.681 32.2193 334.681 33.2513V38.6873H335.797V39.9473H335.023C334.027 39.9473 333.463 39.4193 333.331 38.3633H333.241C333.037 38.9513 332.683 39.4013 332.179 39.7133C331.687 40.0253 331.093 40.1813 330.397 40.1813ZM330.649 38.9573C331.393 38.9573 332.011 38.7833 332.503 38.4353C332.995 38.0753 333.241 37.6313 333.241 37.1033V35.4653H331.207C330.355 35.4653 329.719 35.5973 329.299 35.8613C328.879 36.1133 328.669 36.4853 328.669 36.9773V37.3733C328.669 37.8773 328.843 38.2673 329.191 38.5433C329.551 38.8193 330.037 38.9573 330.649 38.9573ZM339.461 39.9473H338.003V25.9613H339.461V34.8893H339.533L341.009 33.2333L343.871 30.2093H345.617L341.963 34.0613L345.977 39.9473H344.231L340.919 34.9613L339.461 36.4733V39.9473ZM348.637 27.8513C348.337 27.8513 348.115 27.7793 347.971 27.6353C347.827 27.4913 347.755 27.2933 347.755 27.0413V26.8073C347.755 26.5553 347.827 26.3573 347.971 26.2133C348.115 26.0693 348.337 25.9973 348.637 25.9973C348.937 25.9973 349.159 26.0693 349.303 26.2133C349.447 26.3573 349.519 26.5553 349.519 26.8073V27.0413C349.519 27.2933 349.447 27.4913 349.303 27.6353C349.159 27.7793 348.937 27.8513 348.637 27.8513ZM349.339 39.9473H347.899V30.2093H349.339V39.9473ZM356.661 40.1813C355.761 40.1813 354.981 39.9773 354.321 39.5693C353.661 39.1613 353.151 38.5793 352.791 37.8233C352.443 37.0553 352.269 36.1613 352.269 35.1413C352.269 33.9053 352.497 32.7413 352.953 31.6493C353.421 30.5453 354.015 29.5793 354.735 28.7513C355.455 27.9233 356.205 27.2573 356.985 26.7533H358.929C357.933 27.4853 357.105 28.1813 356.445 28.8413C355.797 29.4893 355.257 30.1973 354.825 30.9653C354.393 31.7333 354.063 32.6153 353.835 33.6113L353.925 33.6473C354.657 32.3873 355.719 31.7573 357.111 31.7573C357.867 31.7573 358.539 31.9253 359.127 32.2613C359.715 32.5853 360.177 33.0593 360.513 33.6833C360.849 34.2953 361.017 35.0093 361.017 35.8253C361.017 36.6773 360.831 37.4333 360.459 38.0933C360.099 38.7533 359.589 39.2693 358.929 39.6413C358.281 40.0013 357.525 40.1813 356.661 40.1813ZM356.643 38.8673C357.531 38.8673 358.221 38.6213 358.713 38.1293C359.205 37.6373 359.451 36.9413 359.451 36.0413V35.8613C359.451 34.9613 359.205 34.2653 358.713 33.7733C358.221 33.2813 357.531 33.0353 356.643 33.0353C355.743 33.0353 355.047 33.2813 354.555 33.7733C354.075 34.2653 353.835 34.9613 353.835 35.8613V36.0413C353.835 36.9413 354.081 37.6373 354.573 38.1293C355.065 38.6213 355.755 38.8673 356.643 38.8673ZM367.279 32.3693C368.155 32.3693 368.827 32.1653 369.295 31.7573C369.775 31.3493 370.015 30.8153 370.015 30.1553V30.0113C370.015 29.3153 369.793 28.7873 369.349 28.4273C368.917 28.0553 368.329 27.8693 367.585 27.8693C366.913 27.8693 366.355 28.0133 365.911 28.3013C365.479 28.5893 365.119 29.0093 364.831 29.5613L363.715 28.6793C364.579 27.2393 365.881 26.5193 367.621 26.5193C368.377 26.5193 369.055 26.6513 369.655 26.9153C370.267 27.1793 370.747 27.5633 371.095 28.0673C371.443 28.5713 371.617 29.1653 371.617 29.8493C371.617 30.6653 371.383 31.3373 370.915 31.8653C370.447 32.3813 369.835 32.7353 369.079 32.9273V33.0173C369.871 33.1613 370.531 33.5153 371.059 34.0793C371.587 34.6433 371.851 35.3933 371.851 36.3293C371.851 37.0853 371.665 37.7573 371.293 38.3453C370.933 38.9213 370.411 39.3713 369.727 39.6953C369.055 40.0193 368.281 40.1813 367.405 40.1813C366.373 40.1813 365.527 39.9833 364.867 39.5873C364.207 39.1793 363.637 38.6333 363.157 37.9493L364.273 37.0673C364.645 37.6553 365.065 38.0993 365.533 38.3993C366.013 38.6873 366.631 38.8313 367.387 38.8313C368.323 38.8313 369.037 38.6153 369.529 38.1833C370.021 37.7393 370.267 37.1213 370.267 36.3293V36.1673C370.267 35.3753 370.021 34.7633 369.529 34.3313C369.037 33.8993 368.323 33.6833 367.387 33.6833H365.821V32.3693H367.279ZM383.962 38.6153V39.9473H375.286V38.6153H379.012V27.8693H378.886L375.52 30.9833L374.638 30.0293L378.166 26.7533H380.524V38.6153H383.962ZM393.428 42.2153C392 42.2153 390.74 41.8973 389.648 41.2613C388.568 40.6253 387.728 39.7253 387.128 38.5613C386.528 37.3853 386.228 36.0293 386.228 34.4933C386.228 32.9453 386.534 31.5713 387.146 30.3713C387.758 29.1713 388.622 28.2413 389.738 27.5813C390.854 26.9093 392.138 26.5733 393.59 26.5733C394.85 26.5733 396.002 26.8313 397.046 27.3473C398.102 27.8513 398.954 28.6493 399.602 29.7413C400.25 30.8213 400.574 32.1893 400.574 33.8453C400.574 35.2493 400.31 36.4013 399.782 37.3013C399.254 38.1893 398.438 38.6333 397.334 38.6333C396.758 38.6333 396.308 38.4893 395.984 38.2013C395.672 37.9013 395.486 37.5053 395.426 37.0133H395.336C394.82 38.0933 394.04 38.6333 392.996 38.6333C392.396 38.6333 391.844 38.4833 391.34 38.1833C390.848 37.8713 390.452 37.4033 390.152 36.7793C389.864 36.1553 389.72 35.3933 389.72 34.4933C389.72 33.5933 389.864 32.8313 390.152 32.2073C390.452 31.5713 390.848 31.1033 391.34 30.8033C391.844 30.4913 392.396 30.3353 392.996 30.3353C393.536 30.3353 393.986 30.4673 394.346 30.7313C394.718 30.9953 394.994 31.3433 395.174 31.7753H395.246V30.4973H396.488V36.2753C396.488 36.7433 396.572 37.0673 396.74 37.2473C396.908 37.4273 397.178 37.5173 397.55 37.5173C398.138 37.5173 398.588 37.2173 398.9 36.6173C399.224 36.0053 399.386 35.1593 399.386 34.0793V33.2153C399.386 32.1233 399.128 31.1573 398.612 30.3173C398.108 29.4653 397.412 28.8113 396.524 28.3553C395.648 27.8873 394.664 27.6533 393.572 27.6533C392.384 27.6533 391.322 27.9293 390.386 28.4813C389.462 29.0213 388.736 29.7653 388.208 30.7133C387.692 31.6613 387.434 32.7173 387.434 33.8813V34.9793C387.434 36.1673 387.686 37.2293 388.19 38.1653C388.694 39.0893 389.396 39.8093 390.296 40.3253C391.208 40.8533 392.258 41.1173 393.446 41.1173H397.82V42.2153H393.428ZM393.248 37.4453C393.896 37.4453 394.388 37.2833 394.724 36.9593C395.072 36.6353 395.246 36.1793 395.246 35.5913V33.2693C395.246 32.7533 395.072 32.3333 394.724 32.0093C394.388 31.6853 393.896 31.5233 393.248 31.5233C392.576 31.5233 392.072 31.7213 391.736 32.1173C391.4 32.5133 391.232 33.0593 391.232 33.7553V35.2313C391.232 35.9153 391.4 36.4553 391.736 36.8513C392.084 37.2473 392.588 37.4453 393.248 37.4453ZM406.921 43.9613C405.433 43.9613 404.341 43.7573 403.645 43.3493C402.961 42.9413 402.619 42.3413 402.619 41.5493C402.619 40.5773 403.141 39.9413 404.185 39.6413V39.4433C403.609 39.1553 403.321 38.6993 403.321 38.0753C403.321 37.2233 403.879 36.6653 404.995 36.4013V36.3113C404.419 36.0353 403.969 35.6393 403.645 35.1233C403.333 34.6073 403.177 34.0073 403.177 33.3233C403.177 32.3273 403.507 31.5233 404.167 30.9113C404.827 30.2993 405.709 29.9933 406.813 29.9933C407.533 29.9933 408.157 30.1193 408.685 30.3713V30.1553C408.685 29.7593 408.769 29.4533 408.937 29.2373C409.117 29.0093 409.399 28.8953 409.783 28.8953H411.259V30.1553H409.405V30.8393C409.753 31.1393 410.023 31.5053 410.215 31.9373C410.407 32.3573 410.503 32.8193 410.503 33.3233C410.503 33.9833 410.347 34.5713 410.035 35.0873C409.735 35.5913 409.309 35.9873 408.757 36.2753C408.205 36.5513 407.563 36.6893 406.831 36.6893C406.507 36.6893 406.189 36.6533 405.877 36.5813C405.481 36.7013 405.163 36.8513 404.923 37.0313C404.683 37.1993 404.563 37.4273 404.563 37.7153C404.563 37.9913 404.689 38.1833 404.941 38.2913C405.205 38.3993 405.583 38.4533 406.075 38.4533H408.181C409.345 38.4533 410.209 38.6813 410.773 39.1373C411.337 39.5813 411.619 40.2113 411.619 41.0273C411.619 42.0233 411.229 42.7613 410.449 43.2413C409.669 43.7213 408.493 43.9613 406.921 43.9613ZM406.831 35.5373C407.515 35.5373 408.043 35.3753 408.415 35.0513C408.799 34.7273 408.991 34.2413 408.991 33.5933V33.0713C408.991 32.4353 408.799 31.9553 408.415 31.6313C408.043 31.3073 407.515 31.1453 406.831 31.1453C406.147 31.1453 405.619 31.3073 405.247 31.6313C404.875 31.9433 404.689 32.4233 404.689 33.0713V33.5933C404.689 34.2413 404.875 34.7273 405.247 35.0513C405.619 35.3753 406.147 35.5373 406.831 35.5373ZM407.533 42.7913C408.409 42.7913 409.081 42.6533 409.549 42.3773C410.029 42.1013 410.269 41.6873 410.269 41.1353C410.269 40.7033 410.107 40.3733 409.783 40.1453C409.471 39.9173 408.943 39.8033 408.199 39.8033H404.959C404.299 40.0913 403.969 40.5533 403.969 41.1893C403.969 41.6693 404.143 42.0533 404.491 42.3413C404.851 42.6413 405.409 42.7913 406.165 42.7913H407.533ZM413.413 39.9473V30.2093H414.853V31.7753H414.925C415.177 31.2233 415.501 30.7913 415.897 30.4793C416.305 30.1553 416.863 29.9933 417.571 29.9933C418.255 29.9933 418.861 30.1553 419.389 30.4793C419.917 30.8033 420.307 31.3013 420.559 31.9733H420.595C420.787 31.3853 421.135 30.9113 421.639 30.5513C422.143 30.1793 422.785 29.9933 423.565 29.9933C424.573 29.9933 425.353 30.3173 425.905 30.9653C426.469 31.6013 426.751 32.5073 426.751 33.6833V39.9473H425.311V33.9713C425.311 33.0833 425.131 32.4173 424.771 31.9733C424.411 31.5173 423.859 31.2893 423.115 31.2893C422.467 31.2893 421.921 31.4573 421.477 31.7933C421.033 32.1173 420.811 32.5853 420.811 33.1973V39.9473H419.371V33.9713C419.371 33.0713 419.191 32.3993 418.831 31.9553C418.483 31.5113 417.943 31.2893 417.211 31.2893C416.563 31.2893 416.005 31.4573 415.537 31.7933C415.081 32.1173 414.853 32.5853 414.853 33.1973V39.9473H413.413ZM432.368 40.1813C431.348 40.1813 430.55 39.9173 429.974 39.3893C429.41 38.8613 429.128 38.1413 429.128 37.2293C429.128 36.3053 429.47 35.6033 430.154 35.1233C430.838 34.6313 431.87 34.3853 433.25 34.3853H435.212V33.4133C435.212 32.6933 435.014 32.1473 434.618 31.7753C434.234 31.4033 433.652 31.2173 432.872 31.2173C431.78 31.2173 430.94 31.7093 430.352 32.6933L429.488 31.8833C429.776 31.3193 430.214 30.8633 430.802 30.5153C431.402 30.1553 432.116 29.9753 432.944 29.9753C434.108 29.9753 435.014 30.2633 435.662 30.8393C436.322 31.4153 436.652 32.2193 436.652 33.2513V38.6873H437.768V39.9473H436.994C435.998 39.9473 435.434 39.4193 435.302 38.3633H435.212C435.008 38.9513 434.654 39.4013 434.15 39.7133C433.658 40.0253 433.064 40.1813 432.368 40.1813ZM432.62 38.9573C433.364 38.9573 433.982 38.7833 434.474 38.4353C434.966 38.0753 435.212 37.6313 435.212 37.1033V35.4653H433.178C432.326 35.4653 431.69 35.5973 431.27 35.8613C430.85 36.1133 430.64 36.4853 430.64 36.9773V37.3733C430.64 37.8773 430.814 38.2673 431.162 38.5433C431.522 38.8193 432.008 38.9573 432.62 38.9573ZM440.712 27.8513C440.412 27.8513 440.19 27.7793 440.046 27.6353C439.902 27.4913 439.83 27.2933 439.83 27.0413V26.8073C439.83 26.5553 439.902 26.3573 440.046 26.2133C440.19 26.0693 440.412 25.9973 440.712 25.9973C441.012 25.9973 441.234 26.0693 441.378 26.2133C441.522 26.3573 441.594 26.5553 441.594 26.8073V27.0413C441.594 27.2933 441.522 27.4913 441.378 27.6353C441.234 27.7793 441.012 27.8513 440.712 27.8513ZM441.414 39.9473H439.974V30.2093H441.414V39.9473ZM446.251 39.9473C445.759 39.9473 445.375 39.8093 445.099 39.5333C444.823 39.2453 444.685 38.8793 444.685 38.4353V25.9613H446.125V38.6873H447.565V39.9473H446.251ZM450.911 40.1813C450.551 40.1813 450.275 40.0913 450.083 39.9113C449.903 39.7193 449.813 39.4613 449.813 39.1373V38.9033C449.813 38.5793 449.903 38.3273 450.083 38.1473C450.275 37.9553 450.551 37.8593 450.911 37.8593C451.271 37.8593 451.541 37.9553 451.721 38.1473C451.913 38.3273 452.009 38.5793 452.009 38.9033V39.1373C452.009 39.4613 451.913 39.7193 451.721 39.9113C451.541 40.0913 451.271 40.1813 450.911 40.1813ZM458.533 40.1813C457.177 40.1813 456.115 39.7253 455.347 38.8133C454.579 37.8893 454.195 36.6413 454.195 35.0693C454.195 33.4973 454.579 32.2613 455.347 31.3613C456.115 30.4493 457.177 29.9933 458.533 29.9933C459.445 29.9933 460.201 30.1973 460.801 30.6053C461.401 31.0013 461.851 31.5473 462.151 32.2433L460.945 32.8553C460.753 32.3513 460.447 31.9613 460.027 31.6853C459.619 31.4093 459.121 31.2713 458.533 31.2713C457.633 31.2713 456.943 31.5473 456.463 32.0993C455.983 32.6393 455.743 33.3653 455.743 34.2773V35.8793C455.743 36.8033 455.983 37.5413 456.463 38.0933C456.943 38.6333 457.633 38.9033 458.533 38.9033C459.745 38.9033 460.633 38.3333 461.197 37.1933L462.241 37.8773C461.917 38.5973 461.437 39.1613 460.801 39.5693C460.177 39.9773 459.421 40.1813 458.533 40.1813ZM467.956 40.1813C467.092 40.1813 466.33 39.9713 465.67 39.5513C465.01 39.1313 464.494 38.5373 464.122 37.7693C463.762 36.9893 463.582 36.0893 463.582 35.0693C463.582 34.0493 463.762 33.1553 464.122 32.3873C464.494 31.6193 465.01 31.0253 465.67 30.6053C466.33 30.1853 467.092 29.9753 467.956 29.9753C468.82 29.9753 469.582 30.1853 470.242 30.6053C470.914 31.0253 471.43 31.6193 471.79 32.3873C472.162 33.1553 472.348 34.0493 472.348 35.0693C472.348 36.0893 472.162 36.9893 471.79 37.7693C471.43 38.5373 470.914 39.1313 470.242 39.5513C469.582 39.9713 468.82 40.1813 467.956 40.1813ZM467.956 38.9033C468.82 38.9033 469.51 38.6393 470.026 38.1113C470.542 37.5713 470.8 36.7913 470.8 35.7713V34.3853C470.8 33.3653 470.542 32.5913 470.026 32.0633C469.51 31.5233 468.82 31.2533 467.956 31.2533C467.104 31.2533 466.42 31.5233 465.904 32.0633C465.388 32.5913 465.13 33.3653 465.13 34.3853V35.7713C465.13 36.7913 465.388 37.5713 465.904 38.1113C466.42 38.6393 467.104 38.9033 467.956 38.9033ZM474.884 39.9473V30.2093H476.324V31.7753H476.396C476.648 31.2233 476.972 30.7913 477.368 30.4793C477.776 30.1553 478.334 29.9933 479.042 29.9933C479.726 29.9933 480.332 30.1553 480.86 30.4793C481.388 30.8033 481.778 31.3013 482.03 31.9733H482.066C482.258 31.3853 482.606 30.9113 483.11 30.5513C483.614 30.1793 484.256 29.9933 485.036 29.9933C486.044 29.9933 486.824 30.3173 487.376 30.9653C487.94 31.6013 488.222 32.5073 488.222 33.6833V39.9473H486.782V33.9713C486.782 33.0833 486.602 32.4173 486.242 31.9733C485.882 31.5173 485.33 31.2893 484.586 31.2893C483.938 31.2893 483.392 31.4573 482.948 31.7933C482.504 32.1173 482.282 32.5853 482.282 33.1973V39.9473H480.842V33.9713C480.842 33.0713 480.662 32.3993 480.302 31.9553C479.954 31.5113 479.414 31.2893 478.682 31.2893C478.034 31.2893 477.476 31.4573 477.008 31.7933C476.552 32.1173 476.324 32.5853 476.324 33.1973V39.9473H474.884Z" fill="black"/>
</svg>
