<svg width="260" height="111" viewBox="0 0 260 111" fill="none" xmlns="http://www.w3.org/2000/svg">
<g clip-path="url(#clip0_254_547)">
<path d="M213.325 44.2609L186.542 25.3018C184.871 24.1192 182.538 24.4625 181.334 26.1029C180.245 27.5525 180.439 29.5743 181.722 30.8331L199.875 48.5334L181.178 63.6779C179.584 64.9749 179.389 67.2637 180.711 68.8278C181.878 70.201 183.86 70.5443 185.415 69.667L212.818 54.0266C213.557 53.607 214.179 53.073 214.646 52.3863C216.589 49.7923 216.006 46.1683 213.325 44.2609Z" fill="white"/>
<path d="M256.238 70.1629L228.6 54.1411C227.59 53.5689 226.424 53.2638 225.297 53.3401C221.992 53.4926 220.088 55.5144 220.088 58.9858C220.088 70.9258 220.127 94.5771 220.127 106.746C220.205 108.615 221.682 110.141 223.586 110.217C225.646 110.332 227.396 108.806 227.551 106.822L231.322 68.4463L253.011 76.7242C254.916 77.4491 257.093 76.5335 257.832 74.6643C258.492 72.9858 257.832 71.0784 256.238 70.1629Z" fill="white"/>
<path d="M259.424 26.4464C258.88 24.5009 256.819 23.3565 254.837 23.8905L231.165 30.2993L227.511 3.25294C227.161 1.26929 225.218 -0.0658652 223.197 0.277459C221.408 0.582637 220.087 2.10852 220.126 3.90144C220.204 12.599 220.126 29.9942 220.126 38.6917C220.126 43.4219 225.023 45.2911 228.016 43.9559L257.364 30.7189C259.035 29.9559 259.89 28.1631 259.424 26.4464Z" fill="white"/>
<path d="M1.94463 28.316H3.26624C3.38285 28.316 3.49946 28.2779 3.61608 28.2016C3.69381 28.1253 3.77156 28.0109 3.77156 27.8964V26.4088C3.77156 26.2942 3.73269 26.1798 3.61608 26.1035C3.53833 26.0272 3.38285 25.9891 3.26624 25.9891H1.94463C1.82801 25.9891 1.7114 26.0272 1.59479 26.1035C1.51704 26.1798 1.43931 26.2942 1.47817 26.4088V27.8964C1.47817 28.0109 1.51704 28.1253 1.59479 28.2016C1.67253 28.2779 1.78915 28.316 1.94463 28.316Z" fill="white"/>
<path d="M1.16613 38.3865C1.51596 38.7298 1.94354 38.9587 2.44886 39.0731C2.95418 39.2258 3.4595 39.3021 4.0037 39.3021H4.27579C4.74225 39.3021 5.16982 39.2258 5.63627 39.1112C6.02498 38.9968 6.37482 38.8061 6.68579 38.5391C6.91901 38.9205 7.26884 39.2258 7.65755 39.3784C8.20175 39.5691 8.74594 39.6454 9.329 39.6454H10.6117C10.8061 39.6454 11.0393 39.6454 11.3114 39.6072C11.5446 39.6072 11.8167 39.5691 12.05 39.4928C12.2832 39.4547 12.5164 39.3784 12.7496 39.3021C12.9828 39.2258 13.1773 39.1112 13.3716 38.9968C13.7603 39.2638 14.1879 39.4547 14.6543 39.5309C15.1596 39.6072 15.6649 39.6454 16.1702 39.6454H16.7922C17.2198 39.6454 17.6473 39.6072 18.075 39.4928C18.4636 39.4165 18.8135 39.2258 19.0856 38.9587C19.4743 39.3784 19.9408 39.6454 20.4849 39.798C21.1069 39.9887 21.7677 40.065 22.4285 40.065C23.0504 40.065 23.6335 39.9887 24.2165 39.798C24.7218 39.6454 25.1494 39.3402 25.5381 38.9587C25.8879 39.1875 26.2767 39.3784 26.7042 39.4546C27.1319 39.5691 27.5594 39.6072 28.0259 39.6072H28.8033C28.9977 39.6072 29.2308 39.6072 29.4641 39.5691C29.6973 39.5691 29.9695 39.5309 30.2026 39.4546C30.4358 39.4165 30.6691 39.3402 30.9023 39.2638C31.1356 39.1875 31.3299 39.0731 31.5243 38.9587C31.9129 39.2258 32.3406 39.4165 32.8069 39.4928C33.3124 39.5691 33.8177 39.6072 34.323 39.6072H34.9449C35.1392 39.6072 35.3725 39.6072 35.6445 39.5691C35.8778 39.5691 36.1498 39.5309 36.3831 39.4546C36.6163 39.4165 36.8496 39.3402 37.0828 39.2638C37.3161 39.1875 37.5104 39.0731 37.7047 38.9587C38.0934 39.2258 38.521 39.4165 38.9874 39.4928C39.4927 39.5691 39.9982 39.6072 40.5035 39.6072H42.3303C42.6413 39.6072 42.9523 39.6072 43.2633 39.5691C43.5742 39.5309 43.8463 39.5309 44.0796 39.4928C44.2739 39.4928 44.4682 39.4546 44.6626 39.4165C44.7792 39.3784 44.8959 39.3021 44.9736 39.1875C45.0514 39.0731 45.0902 38.9968 45.0902 38.8442C45.129 38.5009 45.1679 38.1195 45.1679 37.6999V25.3402C45.1679 25.2258 45.129 25.1112 45.0514 25.0349C44.9736 24.9586 44.8959 24.9205 44.7792 24.9205H42.9911C42.8746 24.9205 42.7968 24.9586 42.7191 25.0349C42.6413 25.1112 42.6024 25.2258 42.6024 25.3402V36.4791C42.6024 36.7843 42.5636 36.975 42.447 37.0132C42.2526 37.0894 42.0583 37.1276 41.825 37.0894H39.8427C39.726 37.0894 39.5705 37.0513 39.4539 37.0513C39.3372 37.0132 39.2207 36.975 39.1041 36.9369C39.0264 36.8987 38.9486 36.8606 38.8709 36.7843V31.6345C38.8709 31.4056 38.7154 31.2529 38.4821 31.2529H36.7718C36.6553 31.2529 36.5775 31.2912 36.4998 31.3675C36.422 31.4437 36.3831 31.52 36.3831 31.6345V36.441C36.3831 36.5554 36.3443 36.708 36.2665 36.7843C36.1888 36.8606 36.0721 36.9369 35.9944 36.975C35.8778 37.0132 35.7612 37.0513 35.6445 37.0513H33.7399C33.6232 37.0513 33.4677 37.0132 33.3512 37.0132C33.2346 36.975 33.1179 36.9369 33.0014 36.8987C32.9236 36.8606 32.8459 36.8224 32.7681 36.7461V31.6345C32.7681 31.52 32.7292 31.4437 32.6515 31.3675C32.5737 31.2912 32.4961 31.2529 32.3794 31.2529H30.5913C30.4748 31.2529 30.397 31.2912 30.3193 31.3675C30.2415 31.4437 30.2026 31.52 30.2026 31.6345V36.441C30.2026 36.5554 30.1638 36.708 30.086 36.7843C30.0083 36.8606 29.8917 36.9369 29.814 36.975C29.6973 37.0132 29.5807 37.0513 29.4641 37.0513H27.8704C27.7537 37.0513 27.676 37.0513 27.5594 37.0132C27.4429 37.0132 27.2874 36.975 27.1707 36.9369C27.0541 36.8987 26.9375 36.8606 26.8597 36.7843C26.7431 36.708 26.7042 36.5936 26.6654 36.4791C26.7042 36.3647 26.7042 36.2121 26.7042 36.0977V34.5718C26.7042 33.1603 26.3156 32.0922 25.5381 31.3675C24.683 30.6044 23.5168 30.223 22.3897 30.2993C21.2234 30.223 20.0574 30.6426 19.1633 31.4056C18.3859 32.1304 17.9583 33.1984 17.9583 34.6099V36.2121C17.9583 36.3647 17.9583 36.5173 17.9195 36.6317C17.8806 36.7461 17.8417 36.8224 17.764 36.8987C17.6862 36.975 17.5696 37.0132 17.4919 37.0513C17.3753 37.0894 17.2587 37.0894 17.142 37.0894H15.5094C15.3929 37.0894 15.2374 37.0894 15.1207 37.0513C15.0041 37.0132 14.8876 36.975 14.7709 36.9369C14.6932 36.8987 14.6154 36.8606 14.5377 36.7843V31.6726C14.5377 31.4437 14.3822 31.2912 14.149 31.2912H12.4775C12.361 31.2912 12.2832 31.3293 12.2055 31.4056C12.1277 31.4819 12.0888 31.5582 12.0888 31.6726V36.4791C12.0888 36.5936 12.05 36.7461 11.9722 36.8224C11.8945 36.8987 11.7779 36.975 11.7001 37.0132C11.5835 37.0513 11.4669 37.0894 11.3503 37.0894H9.67884C9.36787 37.1276 9.01804 37.0513 8.74594 36.8987C8.55159 36.7843 8.43497 36.4791 8.43497 36.0595V30.7952C8.43497 30.7189 8.43497 30.6426 8.35723 30.5663C8.27948 30.49 8.20175 30.4519 8.08514 30.4519C7.65755 30.3374 7.26884 30.2611 6.84127 30.223C6.29707 30.1848 5.79175 30.1467 5.28643 30.1467C3.57612 30.1467 2.2545 30.5663 1.36048 31.4056C0.46645 32.2448 0 33.4274 0 34.9532V35.3348C0 35.9451 0.0777416 36.5554 0.310966 37.1276C0.46645 37.5854 0.777416 38.005 1.16613 38.3865ZM20.4072 34.7625C20.3683 34.1522 20.5238 33.58 20.8736 33.084C21.2624 32.7025 21.7677 32.5118 22.3119 32.55C22.856 32.5118 23.4002 32.7025 23.7501 33.084C24.1 33.58 24.2554 34.1903 24.1777 34.7625V35.6018C24.2165 36.174 24.061 36.7461 23.7112 37.242C23.3225 37.6236 22.8172 37.8143 22.273 37.738C21.8454 37.738 21.4179 37.6617 21.068 37.4329C20.7181 37.204 20.5238 36.8224 20.4461 36.441C20.4072 36.174 20.3683 35.8688 20.4072 35.5636V34.7625ZM2.44886 34.6099C2.41 33.9996 2.64322 33.3511 3.10966 32.9314C3.65386 32.55 4.31466 32.3592 4.97547 32.3974H5.48079C5.63627 32.3974 5.79175 32.3974 5.90837 32.4355V36.0214C5.90837 36.2884 5.75289 36.5554 5.51966 36.6698C5.20869 36.8224 4.81998 36.8987 4.47014 36.8987H4.15918C3.69273 36.9369 3.18741 36.7843 2.83757 36.441C2.48773 35.9832 2.37112 35.4492 2.41 34.8769V34.6099H2.44886Z" fill="white"/>
<path d="M5.55854 28.3158H6.91903C7.03565 28.3158 7.15226 28.2776 7.22999 28.2013C7.30774 28.125 7.34661 28.0106 7.34661 27.8962V26.4084C7.34661 26.1795 7.15226 25.9888 6.91903 25.9507H5.51968C5.40306 25.9507 5.28645 25.9888 5.20871 26.0651C5.0921 26.1414 5.05322 26.2558 5.05322 26.3702V27.858C5.05322 27.9725 5.0921 28.0869 5.20871 28.1632C5.32533 28.2776 5.44194 28.3158 5.55854 28.3158Z" fill="white"/>
<path d="M10.5334 41.2476C10.4168 41.2476 10.3002 41.2857 10.1836 41.362C10.1058 41.4383 10.0281 41.5527 10.0281 41.6672V43.1931C10.0281 43.3075 10.0669 43.3838 10.1836 43.4601C10.2613 43.5364 10.3779 43.5745 10.5334 43.5745H11.8939C12.0105 43.5745 12.1271 43.5364 12.2437 43.4601C12.3214 43.3838 12.3992 43.3075 12.3992 43.1931V41.6672C12.3992 41.5527 12.3604 41.4383 12.2437 41.362C12.1659 41.2857 12.0105 41.2476 11.8939 41.2476H10.5334Z" fill="white"/>
<path d="M14.1882 41.2472C14.0717 41.2472 13.955 41.2854 13.8774 41.3617C13.7607 41.438 13.7219 41.5524 13.7219 41.6668V43.1927C13.7219 43.3072 13.7607 43.4216 13.8774 43.4598C13.955 43.536 14.0717 43.5742 14.1882 43.5742H15.5487C15.6653 43.5742 15.782 43.536 15.8597 43.4598C15.9375 43.3835 15.9763 43.269 15.9763 43.1927V41.6668C15.9763 41.438 15.782 41.2472 15.5487 41.2091H14.1882V41.2472Z" fill="white"/>
<path d="M30.669 29.1548H32.1849C32.3016 29.1548 32.4182 29.1166 32.4959 29.0403C32.5737 28.964 32.6126 28.8496 32.6126 28.7352V27.2474C32.6126 27.133 32.5737 27.0185 32.4959 26.9041C32.4182 26.8278 32.3016 26.7897 32.1849 26.7897H30.6301C30.5136 26.7897 30.3969 26.8278 30.2803 26.9041C30.2026 26.9804 30.1248 27.0948 30.1637 27.2093V28.697C30.1637 28.8115 30.2026 28.9259 30.2803 29.0022C30.3969 29.1166 30.5136 29.1548 30.669 29.1548Z" fill="white"/>
<path d="M35.0229 29.155H36.3835C36.5 29.155 36.6167 29.1169 36.7333 29.0406C36.8499 28.9643 36.8887 28.8499 36.8887 28.7354V27.2477C36.8887 27.1332 36.8499 27.0188 36.7333 26.9425C36.6555 26.8662 36.5 26.8281 36.3835 26.8281H35.0229C34.9064 26.8281 34.7897 26.8662 34.6731 26.9425C34.5954 27.0188 34.5176 27.1332 34.5176 27.2477V28.7354C34.5176 28.8499 34.5566 28.9643 34.6731 29.0406C34.7897 29.1169 34.9064 29.155 35.0229 29.155Z" fill="white"/>
<path d="M38.6755 29.155H40.036C40.1526 29.155 40.2692 29.1169 40.3469 29.0406C40.4247 28.9643 40.4636 28.8499 40.4636 28.7354V27.2477C40.4636 27.1332 40.4247 27.0188 40.3469 26.9425C40.2692 26.8662 40.1526 26.8281 40.036 26.8281H38.6755C38.5589 26.8281 38.4423 26.8662 38.3645 26.9425C38.248 27.0188 38.209 27.1332 38.209 27.2477V28.7354C38.209 28.8499 38.248 28.9643 38.3645 29.0406C38.4035 29.1169 38.52 29.155 38.6755 29.155Z" fill="white"/>
<path d="M116.65 44.1086C116.883 44.1467 117.078 44.1467 117.311 44.1467H117.894C118.593 44.1849 119.293 44.0704 119.916 43.8034C120.46 43.5744 120.887 43.1548 121.159 42.6208C121.315 42.3156 121.431 42.0105 121.47 41.6672C121.547 41.2475 121.547 40.866 121.547 40.4464V39.5308H133.093C133.52 39.5308 133.87 39.4927 134.219 39.4927C134.57 39.4927 134.841 39.4547 135.075 39.4547C135.308 39.4928 135.541 39.302 135.541 39.0731C135.541 38.9205 135.58 38.7298 135.58 38.5009C135.58 38.272 135.619 38.0432 135.619 37.7762C135.619 37.509 135.619 37.2802 135.658 37.0513V35.9832C135.658 35.1439 135.541 34.3429 135.308 33.5417C135.114 32.8551 134.764 32.2448 134.258 31.7489C133.714 31.2529 133.093 30.8715 132.354 30.6807C131.421 30.4137 130.488 30.2993 129.517 30.2993C129.244 30.2993 128.933 30.2993 128.584 30.3374L127.223 30.4137C127.223 30.2993 127.262 30.223 127.301 30.1467C127.34 30.0323 127.417 29.8797 127.456 29.7271C127.495 29.5745 127.612 29.4218 127.65 29.2311C127.689 29.0404 127.806 28.926 127.884 28.7734L129.749 25.3782C129.788 25.3021 129.788 25.2258 129.788 25.1494C129.788 25.0731 129.788 25.0349 129.749 24.9968C129.671 24.9586 129.594 24.9205 129.556 24.9205H127.806C127.689 24.9205 127.573 24.9586 127.495 25.0349C127.417 25.1112 127.34 25.1875 127.262 25.3021L125.785 28.0105C125.591 28.3919 125.396 28.7352 125.24 29.0404C125.086 29.3457 124.93 29.6508 124.852 29.956C124.735 30.2611 124.657 30.5282 124.618 30.8333C124.579 31.1385 124.541 31.4436 124.541 31.7489V32.3974C124.541 32.5881 124.696 32.7025 125.008 32.7025H129.205C129.749 32.7025 130.294 32.7407 130.838 32.8551C131.265 32.9314 131.694 33.084 132.082 33.351C132.432 33.58 132.703 33.8851 132.859 34.2666C133.054 34.7243 133.132 35.1821 133.132 35.6781V36.3265C133.132 36.5554 133.132 36.7843 133.093 37.0132C132.976 37.0132 132.82 37.0513 132.549 37.0513H121.625V31.6345C121.625 31.4056 121.47 31.2529 121.237 31.2529H119.527C119.41 31.2529 119.332 31.2912 119.254 31.3675C119.177 31.4436 119.138 31.52 119.138 31.6345V40.2938C119.138 40.599 119.099 40.9423 119.022 41.2475C118.983 41.4382 118.827 41.6289 118.671 41.7435C118.477 41.8579 118.283 41.9342 118.049 41.9723C117.739 42.0105 117.428 42.0105 117.117 42.0105H116.689C116.456 42.0105 116.339 42.1249 116.339 42.3156V43.727C116.339 43.9179 116.456 44.0704 116.65 44.1086Z" fill="white"/>
<path d="M119.643 29.155H121.159C121.276 29.155 121.393 29.1169 121.471 29.0406C121.549 28.9643 121.588 28.8499 121.588 28.7354V27.2477C121.588 27.1332 121.549 27.0188 121.471 26.9425C121.393 26.8662 121.276 26.8281 121.159 26.8281H119.604C119.489 26.8281 119.372 26.8662 119.255 26.9425C119.177 27.0188 119.099 27.1332 119.099 27.2477V28.7354C119.099 28.8499 119.138 28.9643 119.216 29.0406C119.372 29.1169 119.489 29.155 119.643 29.155Z" fill="white"/>
<path d="M159.291 24.9205H157.503C157.386 24.9205 157.309 24.9586 157.231 25.0349C157.153 25.1112 157.114 25.2258 157.114 25.3402V36.4791C157.114 36.7843 157.075 36.975 156.959 37.0132C156.765 37.0894 156.57 37.1276 156.336 37.0894H154.705C154.588 37.0894 154.51 37.0894 154.393 37.0513C154.277 37.0513 154.121 37.0132 154.005 36.975C153.888 36.9369 153.772 36.8606 153.694 36.7843C153.577 36.708 153.538 36.5936 153.499 36.4791C153.538 36.3647 153.538 36.2121 153.538 36.0977V34.5718C153.538 33.1603 153.15 32.0922 152.372 31.3675C151.517 30.6044 150.35 30.223 149.224 30.2993C148.058 30.223 146.891 30.6426 145.997 31.4056C145.181 32.1304 144.792 33.1984 144.792 34.6099V36.2121C144.792 36.3647 144.792 36.5173 144.753 36.6698C144.715 36.7843 144.676 36.8606 144.598 36.9369C144.52 37.0132 144.403 37.0513 144.326 37.0894C144.21 37.1276 144.093 37.1276 143.976 37.1276H141.449V31.6726C141.449 31.4436 141.294 31.2912 141.061 31.2912H139.35C139.233 31.2912 139.155 31.3292 139.079 31.4056C139.001 31.4819 138.962 31.5582 138.962 31.6726V40.332C138.962 40.6372 138.923 40.9805 138.845 41.2856C138.806 41.4765 138.65 41.6672 138.495 41.7816C138.301 41.8961 138.107 41.9723 137.873 42.0105C137.563 42.0486 137.251 42.0486 136.94 42.0486H136.513C136.279 42.0486 136.164 42.1631 136.164 42.3538V43.7653C136.125 43.956 136.24 44.1086 136.435 44.1467C136.668 44.1849 136.863 44.1849 137.096 44.1849H137.678C138.379 44.223 139.079 44.1086 139.7 43.8416C140.244 43.6126 140.671 43.193 140.944 42.659C141.1 42.3538 141.216 42.0486 141.255 41.7053C141.333 41.2856 141.333 40.9042 141.333 40.4846V39.5691H143.51C143.937 39.5691 144.364 39.5308 144.792 39.4164C145.181 39.3401 145.531 39.1494 145.803 38.8824C146.192 39.302 146.658 39.5691 147.203 39.7217C147.824 39.9124 148.485 39.9887 149.146 39.9887C149.767 39.9887 150.35 39.9124 150.934 39.7217C151.439 39.5691 151.866 39.2638 152.256 38.8824C152.605 39.1112 152.994 39.302 153.421 39.3783C153.85 39.4927 154.277 39.5308 154.744 39.5308H156.726C157.036 39.5308 157.348 39.5308 157.659 39.4927C157.969 39.4547 158.242 39.4547 158.474 39.4164C158.669 39.4164 158.864 39.3783 159.058 39.3401C159.175 39.302 159.291 39.2257 159.368 39.1112C159.446 38.9968 159.485 38.9205 159.485 38.8061C159.524 38.4628 159.563 38.0813 159.563 37.6617V25.3021C159.563 25.1875 159.524 25.0731 159.446 24.9968C159.446 24.9586 159.369 24.9205 159.291 24.9205ZM151.05 35.6018C151.089 36.174 150.934 36.7461 150.584 37.242C150.196 37.6236 149.69 37.8143 149.146 37.738C148.719 37.738 148.29 37.6617 147.941 37.4329C147.591 37.2039 147.357 36.8224 147.281 36.441C147.242 36.174 147.203 35.8688 147.242 35.5635V34.7243C147.203 34.114 147.357 33.5417 147.708 33.0458C148.096 32.6644 148.602 32.4737 149.146 32.5118C149.69 32.4737 150.235 32.6644 150.584 33.0458C150.934 33.5417 151.089 34.1522 151.012 34.7243L151.05 35.6018Z" fill="white"/>
<path d="M163.064 39.5691H164.813C164.93 39.5691 165.047 39.5308 165.085 39.4547C165.163 39.3784 165.201 39.2638 165.201 39.1875V25.3021C165.201 25.1875 165.163 25.1112 165.085 25.0349C165.008 24.9586 164.891 24.9205 164.813 24.9205H163.064C162.947 24.9205 162.869 24.9586 162.792 25.0349C162.714 25.1112 162.676 25.1875 162.676 25.3021V39.1875C162.676 39.302 162.714 39.3784 162.792 39.4547C162.869 39.5308 162.947 39.6071 163.064 39.5691Z" fill="white"/>
<path d="M14.1497 56.888V60.2832C14.1497 60.7028 14.1886 61.1223 14.344 61.5039C14.4606 61.8091 14.6161 62.0379 14.8493 62.2668C15.0826 62.4575 15.3936 62.6101 15.7046 62.6483C16.0932 62.7246 16.4819 62.7627 16.9095 62.7246H39.1048C39.4158 62.7246 39.7267 62.7246 40.0377 62.6864C40.3487 62.6483 40.5819 62.6483 40.854 62.6101C41.0484 62.572 41.2427 62.572 41.437 62.4957C41.5537 62.4575 41.6702 62.3812 41.748 62.2668C41.8257 62.1524 41.8647 62.0379 41.8647 61.9235C41.9035 61.5802 41.9424 61.1223 41.9424 60.5502V55.7818C41.9424 55.4384 41.9424 55.0951 41.9035 54.6755C41.9035 54.5611 41.8647 54.4848 41.7869 54.4085C41.7092 54.3322 41.5925 54.294 41.4759 54.294H39.8434C39.7267 54.294 39.6489 54.3322 39.5712 54.4085C39.4936 54.4848 39.4546 54.5611 39.4546 54.6755C39.4936 55.5911 39.4936 56.4684 39.4936 57.2695V59.5584C39.4936 59.8636 39.4546 60.0543 39.3381 60.0924C39.1436 60.1687 38.9104 60.2069 38.7161 60.1687H37.4333C37.3556 60.1687 37.239 60.1687 37.2001 60.1306C37.1223 60.0924 37.0446 60.0161 37.0058 59.9017C36.9669 59.8254 36.8892 59.711 36.8892 59.6347C36.8503 59.5201 36.7725 59.3677 36.6948 59.215C36.617 59.0624 36.5782 58.9098 36.5005 58.7572C36.4227 58.6047 36.3838 58.4902 36.345 58.3758L36.1117 57.8418C35.7619 57.0787 35.3344 56.3158 34.829 55.6674C34.4014 55.1332 33.8961 54.6373 33.3519 54.2559C32.8078 53.9126 32.2246 53.6456 31.6416 53.493C30.9808 53.3403 30.32 53.264 29.6203 53.264C29.2705 53.264 28.9595 53.264 28.6485 53.3022C28.3376 53.3403 28.0266 53.3786 27.7156 53.4547C27.4436 53.493 27.3269 53.6074 27.3269 53.8363V55.2477C27.3269 55.4765 27.4824 55.5911 27.7546 55.5529C27.9099 55.5529 28.1044 55.5148 28.3376 55.5148H28.8429C29.8924 55.4765 30.903 55.7055 31.7971 56.2396C32.5356 56.7354 33.0798 57.3839 33.4296 58.1851L33.8184 58.9861L34.3626 60.1687H17.7258C17.4926 60.2069 17.2205 60.1306 17.0261 60.0543C16.9095 59.978 16.8318 59.7873 16.8318 59.5201V55.0951C16.8318 54.9807 16.7929 54.9044 16.7541 54.8281C16.6763 54.7518 16.5986 54.7136 16.5209 54.7136C16.1709 54.6373 15.7434 54.5992 15.2381 54.5611C14.7328 54.5229 14.1886 54.4848 13.6833 54.4848C12.0507 54.4848 10.8068 54.8281 9.95164 55.5148C9.09648 56.2014 8.63003 57.2695 8.63003 58.7572V58.9098C8.63003 59.1768 8.59116 61.5038 8.59116 61.8472C8.31907 61.8854 8.04696 61.9235 7.736 61.9235C7.42503 61.9616 7.11407 61.9616 6.76423 61.9616C6.06455 61.9998 5.326 61.8854 4.6652 61.6182C4.15987 61.4275 3.77117 61.0842 3.46021 60.6265C3.18811 60.1687 2.99375 59.6728 2.91601 59.1387C2.83827 58.5284 2.79939 57.918 2.79939 57.2695C2.79939 57.0787 2.79939 56.8499 2.83827 56.5447C2.87714 56.2396 2.87714 55.9725 2.91601 55.7055C2.95489 55.4385 2.83827 55.3241 2.56617 55.3241H1.05021C0.816984 55.3241 0.700372 55.4385 0.661501 55.7055C0.622629 55.9725 0.583759 56.1633 0.544888 56.3921C0.506017 56.621 0.467147 56.8499 0.467147 57.0787C0.467147 57.3076 0.428276 57.5366 0.428276 57.7273C0.428276 57.918 0.389404 58.1088 0.389404 58.2614C0.389404 59.1387 0.506017 60.0543 0.739242 60.8935C0.933597 61.6183 1.3223 62.2668 1.82762 62.8008C2.37182 63.3349 3.03262 63.7164 3.77117 63.9453C4.70407 64.2123 5.67584 64.3649 6.64762 64.3268C7.38616 64.3268 8.04696 64.2886 8.74664 64.2505C9.40744 64.2123 10.0294 64.136 10.5736 64.0216C10.8457 63.9834 11.0012 63.8309 11.0012 63.602C11.04 63.1441 11.0789 58.948 11.0789 58.948C11.0789 58.1088 11.2732 57.4983 11.662 57.1932C12.1672 56.8117 12.7503 56.6592 13.3723 56.7354H13.8388C13.7998 56.8499 13.9553 56.8499 14.1497 56.888Z" fill="white"/>
<path d="M4.50849 67.9502C4.6251 67.9502 4.74171 67.912 4.81946 67.8357C4.8972 67.7593 4.97494 67.683 4.97494 67.5686V66.1954C4.97494 66.0809 4.93607 65.9665 4.81946 65.8902C4.74171 65.8139 4.6251 65.7758 4.50849 65.7758H3.18689C3.07027 65.7758 2.95366 65.8139 2.87591 65.8902C2.79818 65.9665 2.72043 66.0809 2.7593 66.1954V67.5686C2.7593 67.683 2.79818 67.7593 2.87591 67.8357C2.95366 67.912 3.07027 67.9502 3.18689 67.9502H4.50849Z" fill="white"/>
<path d="M8.16391 67.9502C8.28052 67.9502 8.39714 67.912 8.47487 67.8357C8.55262 67.7593 8.59149 67.683 8.59149 67.5686V66.1954C8.59149 66.0809 8.55262 65.9665 8.47487 65.8902C8.39714 65.8139 8.28052 65.7758 8.16391 65.7758H6.8423C6.72569 65.7758 6.64795 65.8139 6.53134 65.8902C6.45359 65.9665 6.37585 66.0809 6.37585 66.1954V67.5686C6.37585 67.683 6.41472 67.7593 6.53134 67.8357C6.60907 67.912 6.72569 67.9502 6.8423 67.9502H8.16391Z" fill="white"/>
<path d="M38.4419 64.4031C38.3252 64.4031 38.2086 64.4413 38.1309 64.5176C38.0531 64.5939 37.9754 64.7083 38.0143 64.8227V66.3486C38.0143 66.4631 38.0531 66.5394 38.1309 66.6157C38.2086 66.6919 38.3252 66.7301 38.4419 66.7301H39.9578C40.0745 66.7301 40.191 66.6919 40.3077 66.6157C40.3854 66.5394 40.4632 66.4631 40.4632 66.3486V64.8227C40.4632 64.7083 40.4243 64.5939 40.3077 64.5176C40.23 64.4413 40.0745 64.4031 39.9578 64.4031H38.4419Z" fill="white"/>
<path d="M44.3141 65.1273C44.0031 65.1654 43.6921 65.1654 43.3811 65.1654H42.9536C42.7203 65.1654 42.6038 65.2417 42.6038 65.4706V66.8821C42.5648 67.0728 42.6815 67.2254 42.8758 67.2635C43.1091 67.3017 43.3034 67.3017 43.5366 67.3017H44.1197C44.8194 67.3398 45.5191 67.2254 46.141 66.9583C46.6852 66.7295 47.1128 66.3099 47.3848 65.8139C47.5403 65.5087 47.657 65.2036 47.6958 64.8603C47.7736 64.4407 47.7736 64.0591 47.7736 63.6395V62.724H51.1554C51.4664 62.724 51.7772 62.6859 52.0882 62.6859C52.3992 62.6859 52.6713 62.6477 52.9045 62.6096C53.0989 62.6096 53.2932 62.5714 53.5265 62.4952C53.6431 62.457 53.7597 62.3807 53.8375 62.2663C53.9152 62.1517 53.954 62.0373 53.954 61.9229C53.993 61.5796 54.0318 61.1981 54.0318 60.7785C54.0318 60.3589 54.0707 59.9775 54.0707 59.6341V48.4188C54.0707 48.3044 54.0318 48.19 53.954 48.1137C53.8763 48.0374 53.7985 47.9991 53.682 47.9991H51.9717C51.855 47.9991 51.7772 48.0374 51.6995 48.1137C51.6217 48.19 51.5829 48.3044 51.5829 48.4188V59.5578C51.5829 59.8629 51.5441 60.0538 51.4274 60.0918C51.2331 60.1682 51.0387 60.2063 50.8055 60.1682H47.8513V54.7131C47.8513 54.5987 47.8125 54.5224 47.7347 54.4461C47.657 54.3698 47.5792 54.3317 47.4626 54.3317H45.7522C45.6357 54.3317 45.5579 54.3698 45.4802 54.4461C45.4024 54.5224 45.3636 54.5987 45.3636 54.7131V63.3725C45.3636 63.6777 45.3247 64.0211 45.2469 64.3262C45.2081 64.5169 45.0526 64.7077 44.8971 64.8221C44.7416 65.0128 44.5473 65.0891 44.3141 65.1273Z" fill="white"/>
<path d="M57.1407 62.3047C57.1407 62.4191 57.1796 62.4954 57.2573 62.5717C57.3351 62.648 57.4128 62.6861 57.5295 62.6861H59.3175C59.4341 62.6861 59.5508 62.648 59.5896 62.5717C59.6674 62.4954 59.7062 62.381 59.7062 62.3047V48.4191C59.7062 48.3047 59.6674 48.2284 59.5896 48.1521C59.5119 48.0758 59.3953 48.0376 59.3175 48.0376H57.5295C57.4128 48.0376 57.3351 48.0758 57.2573 48.1521C57.1796 48.2284 57.1407 48.3047 57.1407 48.4191V62.3047Z" fill="white"/>
<path d="M79.8807 66.6538C79.9584 66.5775 79.9973 66.4631 79.9973 66.3868V64.8609C79.9973 64.632 79.803 64.4413 79.5697 64.4031H78.1704C78.0537 64.4031 77.9372 64.4413 77.8594 64.5176C77.7427 64.5939 77.7039 64.7083 77.7039 64.8227V66.3486C77.7039 66.4631 77.7427 66.5775 77.8594 66.6157C77.9372 66.6919 78.0537 66.7301 78.1704 66.7301H79.5308C79.6863 66.7682 79.803 66.7301 79.8807 66.6538Z" fill="white"/>
<path d="M74.5545 64.4031C74.4379 64.4031 74.3214 64.4413 74.2047 64.5176C74.1269 64.5939 74.0492 64.7083 74.0492 64.8227V66.3486C74.0492 66.4631 74.0881 66.5394 74.2047 66.6157C74.2824 66.6919 74.3991 66.7301 74.5545 66.7301H75.915C76.0317 66.7301 76.1483 66.6919 76.2648 66.6157C76.3426 66.5394 76.4203 66.4631 76.4203 66.3486V64.8227C76.4203 64.7083 76.3815 64.5939 76.2648 64.5176C76.1871 64.4413 76.0317 64.4031 75.915 64.4031H74.5545Z" fill="white"/>
<path d="M93.7166 48.9536C93.6 48.9536 93.4834 48.9917 93.3668 49.068C93.2891 49.1443 93.2113 49.2587 93.2113 49.3732V50.8991C93.2113 51.0135 93.2502 51.1279 93.328 51.2042C93.4057 51.2805 93.5611 51.3187 93.6778 51.3187H95.1937C95.3104 51.3187 95.4269 51.2805 95.5047 51.2042C95.5824 51.1279 95.6213 51.0135 95.6213 50.8991V49.3732C95.6213 49.2587 95.5824 49.1443 95.5047 49.068C95.4269 48.9917 95.3104 48.9536 95.1937 48.9536H93.7166Z" fill="white"/>
<path d="M90.8021 60.2444H79.4907C79.3741 60.2444 79.2186 60.2063 79.1019 60.2063C78.9854 60.1682 78.8687 60.13 78.7521 60.0919C78.6744 60.0537 78.5966 60.0156 78.5189 59.9393V54.7894C78.5189 54.6749 78.4801 54.5986 78.4023 54.5223C78.3246 54.4461 78.2468 54.4079 78.1302 54.4079H76.4588C76.3421 54.4079 76.2645 54.4461 76.1867 54.5223C76.109 54.5986 76.07 54.6749 76.07 54.7894V59.5959C76.07 59.7103 76.0312 59.863 75.9535 59.9393C75.8757 60.0156 75.7591 60.0919 75.6813 60.13C75.5647 60.1682 75.4481 60.2063 75.3315 60.2063H69.6952V54.7512C69.6952 54.6368 69.6563 54.5605 69.5786 54.4842C69.5009 54.4079 69.4232 54.3698 69.3065 54.3698H67.5962C67.4796 54.3698 67.4019 54.4079 67.3241 54.4842C67.2464 54.5605 67.2075 54.6368 67.2075 54.7512V63.4106C67.2075 63.7158 67.1686 64.0592 67.0909 64.3643C67.052 64.5551 66.8966 64.7458 66.7411 64.8602C66.5467 64.9747 66.3524 65.0509 66.1191 65.0891C65.8081 65.1272 65.4971 65.1272 65.1863 65.1272H64.7586C64.5254 65.1272 64.4088 65.2035 64.4088 65.4324V66.8439C64.37 67.0346 64.4865 67.1872 64.6809 67.2253C64.9141 67.2635 65.1085 67.2635 65.3418 67.2635H65.9248C66.6244 67.3016 67.3241 67.1872 67.946 66.9202C68.4902 66.6913 68.9178 66.2717 69.19 65.7757C69.3454 65.4705 69.462 65.1654 69.5009 64.8221C69.5786 64.4025 69.5786 64.021 69.5786 63.6013V62.6858H74.5152C74.7095 62.6858 74.9428 62.6858 75.176 62.6477C75.4093 62.6096 75.6813 62.6096 75.9146 62.5333C76.1478 62.4951 76.381 62.4188 76.6143 62.3425C76.8475 62.2662 77.0418 62.1518 77.2361 62.0374C77.6249 62.3044 78.0524 62.4951 78.5189 62.5714C79.0242 62.6477 79.5296 62.6858 80.0349 62.6858H97.76C97.8766 62.6858 97.9544 62.6477 98.0321 62.6095C98.1098 62.5714 98.1487 62.457 98.1487 62.3807V60.6259C98.1487 60.5115 98.1098 60.4352 98.0321 60.3589C97.9544 60.2826 97.8766 60.2444 97.76 60.2826H93.6397C93.2898 60.13 92.9789 59.8247 92.8234 59.4814C92.5902 59.0237 92.4735 58.5278 92.4735 58.0319V57.8029C92.4735 57.0019 92.7068 56.4297 93.212 56.0864C93.834 55.705 94.5726 55.5141 95.3111 55.5904H96.3218L96.7882 55.6286C96.9437 55.6286 97.1381 55.6667 97.3324 55.6667C97.6045 55.705 97.76 55.5904 97.76 55.3234V53.912C97.76 53.7976 97.7211 53.7212 97.6434 53.6449C97.5267 53.6068 97.4102 53.5686 97.2935 53.5305C96.8659 53.4542 96.4772 53.3779 96.1274 53.3779C95.7776 53.3779 95.35 53.3397 94.8836 53.3397C94.2616 53.3397 93.6008 53.416 92.9789 53.5686C92.3958 53.7212 91.8905 53.9502 91.424 54.2935C90.9576 54.6368 90.6077 55.0564 90.3356 55.5904C90.0636 56.2008 89.9081 56.8493 89.9469 57.4978V57.7268C89.9469 58.2608 90.0247 58.7567 90.1413 59.2526C90.3746 59.5577 90.5689 59.9393 90.8021 60.2444Z" fill="white"/>
<path d="M105.302 57.4219V57.7652C105.302 58.2992 105.379 58.7952 105.535 59.2911C105.651 59.6725 105.846 60.054 106.079 60.3973H105.146L104.641 60.4354H104.369C104.135 60.3973 103.941 60.588 103.902 60.817V60.855C103.863 61.1221 103.863 61.4654 103.824 61.8469C103.786 62.2284 103.786 62.648 103.786 62.9914C103.786 64.6316 104.174 65.8142 104.991 66.6153C105.807 67.3783 107.439 67.7979 109.111 67.7979H109.538C109.811 67.7597 109.538 67.6453 109.538 67.3783V65.9668C109.538 65.7379 109.383 65.6235 109.111 65.6235H108.878C107.984 65.6235 107.323 65.4328 106.934 65.0513C106.506 64.5935 106.234 64.0213 106.273 63.3728V62.7624H113.114C113.231 62.7624 113.309 62.7242 113.387 62.648C113.464 62.5717 113.503 62.4954 113.503 62.3809V60.6262C113.503 60.5117 113.464 60.4354 113.387 60.3591C113.309 60.2828 113.192 60.2447 113.114 60.2828H109.033C108.839 60.2066 108.683 60.1303 108.567 59.9777C108.411 59.8251 108.295 59.6725 108.178 59.4818C108.061 59.2529 107.945 59.0622 107.867 58.7952C107.789 58.5281 107.75 58.261 107.75 57.994V57.8033C107.75 56.9641 107.984 56.3918 108.489 56.0867C109.15 55.7052 109.888 55.5526 110.627 55.5908C111.016 55.5908 111.404 55.5908 111.715 55.6289L112.804 55.7052C113.114 55.7434 113.27 55.6289 113.27 55.3619V53.9504C113.27 53.836 113.231 53.7597 113.153 53.6834C113.037 53.6453 112.92 53.6071 112.804 53.569C112.415 53.4927 111.987 53.4545 111.599 53.4164C111.249 53.3783 110.821 53.3782 110.355 53.3782C109.694 53.3782 109.033 53.4545 108.411 53.6071C107.828 53.7597 107.284 53.9886 106.817 54.3319C106.351 54.637 105.962 55.0567 105.729 55.5526C105.418 56.1248 105.302 56.7734 105.302 57.4219Z" fill="white"/>
<path d="M148.213 51.3563C148.329 51.3563 148.446 51.3182 148.563 51.2419C148.68 51.1656 148.719 51.0512 148.719 50.9368V49.449C148.719 49.3345 148.68 49.2201 148.563 49.1438C148.485 49.0675 148.329 49.0294 148.213 49.0294H146.852C146.736 49.0294 146.62 49.0675 146.503 49.1438C146.425 49.2201 146.347 49.3345 146.347 49.449V50.9749C146.347 51.0893 146.386 51.2038 146.503 51.2801C146.581 51.3564 146.697 51.3945 146.852 51.3945L148.213 51.3563Z" fill="white"/>
<path d="M151.868 51.3563C151.985 51.3563 152.101 51.3182 152.179 51.2419C152.257 51.1656 152.296 51.0512 152.296 50.9368V49.449C152.296 49.3345 152.257 49.2201 152.179 49.1438C152.101 49.0675 151.985 49.0294 151.868 49.0294H150.507C150.391 49.0294 150.274 49.0675 150.197 49.1438C150.119 49.2201 150.041 49.3345 150.041 49.449V50.9749C150.041 51.0893 150.08 51.2038 150.197 51.2801C150.274 51.3564 150.391 51.3945 150.507 51.3945L151.868 51.3563Z" fill="white"/>
<path d="M159.292 48.037H157.505C157.388 48.037 157.31 48.0752 157.232 48.1515C157.154 48.2278 157.115 48.3422 157.115 48.4566V59.5956C157.115 59.9008 157.076 60.0915 156.961 60.1297C156.766 60.206 156.571 60.2441 156.338 60.206H153.423V53.8736C153.423 53.7973 153.423 53.721 153.384 53.6447C153.307 53.5684 153.229 53.5302 153.112 53.4921C152.957 53.454 152.723 53.4158 152.491 53.3777C152.257 53.3395 151.984 53.3014 151.713 53.2632C151.441 53.2251 151.129 53.1869 150.819 53.1869H149.964C149.264 53.1869 148.564 53.2632 147.904 53.454C147.321 53.6065 146.776 53.9117 146.31 54.255C145.844 54.6365 145.493 55.0943 145.299 55.5902C145.027 56.1624 144.911 56.8108 144.949 57.4594V57.8409C144.949 58.3368 145.027 58.7945 145.143 59.2523C145.26 59.5956 145.454 59.939 145.727 60.1678H142.073C142.112 60.0915 142.112 59.9771 142.151 59.9008C142.189 59.7864 142.189 59.6338 142.189 59.5194V58.3368C142.228 57.4976 142.073 56.6964 141.801 55.9335C141.567 55.3232 141.179 54.7509 140.674 54.3313C140.168 53.9117 139.585 53.6065 138.924 53.454C138.186 53.2632 137.408 53.1869 136.631 53.1869C136.397 53.1869 136.126 53.1869 135.776 53.2251C135.387 53.2632 135.037 53.3014 134.649 53.3777C134.221 53.454 133.832 53.5684 133.443 53.6828C133.055 53.8354 132.666 54.0261 132.316 54.255V48.3803C132.316 48.2659 132.278 48.1515 132.2 48.0752C132.122 47.9989 132.044 47.9607 131.927 47.9607H130.179C130.062 47.9607 129.984 47.9989 129.906 48.0752C129.828 48.1515 129.789 48.2659 129.789 48.3803V60.2441H119.839C119.567 60.2441 119.255 60.206 119.023 60.0915C118.828 59.9771 118.75 59.7101 118.75 59.2905V48.4185C118.75 48.304 118.711 48.2278 118.672 48.1515C118.594 48.0752 118.478 48.037 118.362 48.037H116.612C116.496 48.037 116.379 48.0752 116.301 48.1515C116.224 48.2278 116.185 48.304 116.185 48.4185V59.9771C116.185 60.4348 116.224 60.9307 116.379 61.3504C116.496 61.6556 116.69 61.9608 116.962 62.1896C117.234 62.3804 117.545 62.5329 117.895 62.6092C118.284 62.6855 118.711 62.7237 119.101 62.7237H156.727C157.037 62.7237 157.349 62.6855 157.66 62.6855C157.971 62.6855 158.243 62.6474 158.477 62.6092C158.67 62.6092 158.865 62.5711 159.06 62.4948C159.176 62.4566 159.292 62.3804 159.37 62.2659C159.448 62.1515 159.487 62.037 159.487 61.9226C159.526 61.5793 159.565 61.1979 159.565 60.7782V48.4185C159.565 48.304 159.526 48.1896 159.448 48.1133C159.448 48.0752 159.37 48.037 159.292 48.037ZM139.663 59.0235C139.702 59.3668 139.663 59.7101 139.546 60.0534C139.507 60.206 139.351 60.3204 139.197 60.2823H133.287C132.938 60.2823 132.627 60.2823 132.316 60.2441V56.4294C132.588 56.2387 132.86 56.0861 133.172 56.0098C133.482 55.8954 133.832 55.8191 134.182 55.7428C134.493 55.7046 134.842 55.6665 135.154 55.6283C135.465 55.5902 135.737 55.5902 135.97 55.5902C136.514 55.5902 137.097 55.6283 137.642 55.7428C138.069 55.8191 138.457 56.0098 138.808 56.2768C139.119 56.5438 139.351 56.849 139.468 57.2305C139.624 57.6883 139.702 58.2223 139.663 58.7182V59.0235ZM150.936 60.3204H149.459C148.837 60.3586 148.253 60.1678 147.826 59.7101C147.475 59.2142 147.282 58.6038 147.321 57.9934V57.6501C147.321 56.1624 148.098 55.3995 149.652 55.3995C150.119 55.3995 150.546 55.4376 150.936 55.4376V60.3204Z" fill="white"/>
<path d="M163.064 62.7243H164.813C164.93 62.7243 165.008 62.6861 165.085 62.6098C165.163 62.5335 165.201 62.4191 165.201 62.3428V48.4191C165.201 48.3047 165.163 48.2284 165.085 48.1521C165.008 48.0758 164.891 48.0376 164.813 48.0376H163.064C162.947 48.0376 162.869 48.0758 162.792 48.1521C162.714 48.2284 162.676 48.3047 162.676 48.4191V62.3047C162.676 62.4191 162.714 62.4954 162.792 62.5717C162.869 62.6861 162.947 62.7243 163.064 62.7243Z" fill="white"/>
<path d="M10.7661 72.8711H9.09466C8.90031 72.8329 8.74482 72.9473 8.70595 73.1381V83.3615C8.70595 83.4759 8.66708 83.5141 8.6282 83.5141C8.55047 83.5141 8.51159 83.4759 8.47272 83.3615L3.92483 73.4814C3.84709 73.2907 3.73048 73.0999 3.53613 72.9855C3.38064 72.9092 3.22516 72.8711 3.03081 72.8711H0.931776C0.504196 72.8711 0.154358 73.2144 0.154358 73.634V86.7948C0.154358 86.9092 0.193229 86.9855 0.27097 87.0618C0.348713 87.1381 0.426454 87.1762 0.543067 87.1762H2.21452C2.33113 87.1762 2.40886 87.1381 2.48661 87.0618C2.56436 86.9855 2.60322 86.9092 2.60322 86.7948V77.1054C2.60322 76.9909 2.64209 76.9528 2.68097 76.9528C2.71984 76.9528 2.79758 76.9909 2.87532 77.1054L7.22886 86.4896C7.38434 86.8329 7.5787 87.0237 7.77304 87.0999C7.9674 87.1762 8.20063 87.1762 8.43386 87.1762H10.4163C10.6106 87.1762 10.8438 87.0999 10.9605 86.9474C11.1159 86.7948 11.1937 86.6041 11.1937 86.4132V73.2144C11.2326 73.0236 11.0771 72.8711 10.9216 72.8329C10.805 72.8711 10.7661 72.8711 10.7661 72.8711Z" fill="white"/>
<path d="M19.7474 87.0618C19.8252 87.1381 19.9029 87.1762 20.0195 87.1762H21.691C21.8075 87.1762 21.8853 87.1381 21.963 87.0618C22.0408 86.9854 22.0797 86.9091 22.0797 86.7947V79.8519C22.0797 78.593 21.691 77.6775 20.9524 77.0672C20.2139 76.4568 19.1254 76.1516 17.7261 76.1516C17.1043 76.1516 16.4823 76.1898 15.8603 76.2279C15.3162 76.3042 14.8497 76.3805 14.4222 76.4568C14.1889 76.4949 14.0334 76.6475 14.0334 76.8382V78.059C14.0334 78.2116 14.0722 78.2879 14.1112 78.326C14.1889 78.3641 14.2667 78.4023 14.3832 78.3641H14.4999C14.8108 78.326 15.2773 78.2879 15.8603 78.2497C16.4433 78.2116 17.0653 78.2116 17.6873 78.2116C18.1537 78.1734 18.6201 78.2879 19.0089 78.5167C19.2809 78.7075 19.4364 79.1272 19.4364 79.7756V80.6148H18.2314C17.4929 80.6148 16.7543 80.6911 16.0547 80.8055C15.5105 80.92 15.0052 81.149 14.5777 81.4541C14.1889 81.7211 13.9167 82.1026 13.7224 82.5222C13.5281 82.9799 13.4504 83.4759 13.4504 83.9718V84.0481C13.4114 84.5821 13.5281 85.1544 13.7614 85.6503C13.9557 86.0318 14.1889 86.3751 14.5387 86.6421C14.8497 86.8709 15.2384 87.0618 15.6271 87.1381C16.0158 87.2144 16.4433 87.2906 16.8321 87.2906C17.2986 87.2906 17.765 87.2144 18.2314 87.0618C18.6979 86.9091 19.1644 86.6802 19.5919 86.4132V86.7184C19.6309 86.9092 19.6697 87.0235 19.7474 87.0618ZM19.4754 84.7729C19.1644 84.9254 18.8534 85.04 18.5036 85.1544C18.1537 85.2688 17.8039 85.307 17.4541 85.307C17.0653 85.3451 16.6766 85.2688 16.3657 85.0781C16.0935 84.811 15.977 84.4677 16.0158 84.1244V84.0481C16.0158 83.8192 16.0547 83.5522 16.0935 83.3233C16.1325 83.1326 16.249 82.9419 16.4433 82.8273C16.6378 82.6748 16.871 82.5603 17.1043 82.5222C17.4541 82.4459 17.8428 82.4077 18.1926 82.4077H19.4364V84.7729H19.4754Z" fill="white"/>
<path d="M25.4606 84.2777C25.4606 84.8119 25.4994 85.3459 25.6549 85.8418C25.8104 86.5667 26.4324 87.1388 27.1709 87.2151C27.6374 87.2914 28.1038 87.3296 28.6091 87.3296C28.8423 87.3296 29.0367 87.3296 29.27 87.2914C29.4643 87.2533 29.6975 87.2151 29.9308 87.177C30.164 87.1388 30.3194 87.0244 30.3194 86.8337V85.6129C30.3194 85.4222 30.164 85.3078 29.8918 85.3078H28.8423C28.6868 85.3078 28.5703 85.3078 28.4148 85.2696C28.337 85.2696 28.2205 85.1933 28.1815 85.117C28.1038 85.0026 28.1038 84.8882 28.1038 84.7737V78.136H29.8918C30.0085 78.136 30.0863 78.0979 30.164 78.0216C30.2416 77.9453 30.2806 77.869 30.2806 77.7546V76.6102C30.2806 76.4958 30.2416 76.4195 30.164 76.3432C30.0863 76.2668 30.0085 76.2288 29.8918 76.2288H28.065V74.245C28.065 74.0543 27.9483 73.9399 27.754 73.9399H27.6762L25.8493 74.245C25.7327 74.2833 25.6549 74.3214 25.5772 74.3977C25.4994 74.474 25.4606 74.5503 25.4606 74.6647V76.2288H23.5948C23.3615 76.2288 23.2061 76.3814 23.2061 76.6102V77.4876C23.2061 77.602 23.245 77.6783 23.3227 77.7546C23.4005 77.8309 23.517 77.869 23.5948 77.9072L25.4606 78.1742V84.2777Z" fill="white"/>
<path d="M34.2842 76.3428H32.4961C32.2629 76.3428 32.1074 76.4953 32.1074 76.7242V86.7951C32.1074 86.9095 32.1463 86.9858 32.224 87.0621C32.3018 87.1384 32.3795 87.1765 32.4961 87.1765H34.3231C34.4397 87.1765 34.5174 87.1384 34.5952 87.0621C34.6729 86.9858 34.7117 86.8714 34.7117 86.7951V76.7242C34.7117 76.4953 34.5174 76.3428 34.2842 76.3428Z" fill="white"/>
<path d="M34.3616 72.4133H32.4569C32.3403 72.4133 32.2625 72.4514 32.1848 72.5277C32.107 72.604 32.0681 72.6803 32.0681 72.7949V74.4732C32.0681 74.5877 32.107 74.664 32.1848 74.7404C32.2625 74.8167 32.3791 74.8548 32.4569 74.8548H34.3616C34.4782 74.8548 34.5559 74.8167 34.6337 74.7404C34.7114 74.664 34.7502 74.5877 34.7502 74.4732V72.7949C34.7502 72.6803 34.7114 72.604 34.6337 72.5277C34.5559 72.4514 34.4782 72.4133 34.3616 72.4133Z" fill="white"/>
<path d="M38.1721 85.9945C38.5607 86.4141 39.0661 86.7574 39.6491 86.9864C40.9707 87.4823 42.409 87.4823 43.7306 86.9864C44.2747 86.7574 44.7801 86.4141 45.2076 85.9945C45.5964 85.5368 45.9074 85.0409 46.1017 84.4686C46.296 83.8583 46.4127 83.2098 46.4127 82.5612V80.9973C46.4127 80.3487 46.3349 79.7002 46.1017 79.0899C45.9074 78.5176 45.5964 78.0218 45.2076 77.564C44.7801 77.1444 44.3136 76.8011 43.7306 76.5721C42.409 76.0762 40.9707 76.0762 39.6491 76.5721C39.1049 76.8011 38.5996 77.1444 38.1721 77.564C37.7833 78.0218 37.4723 78.5176 37.278 79.0899C37.0836 79.7002 36.967 80.3487 36.967 80.9973V82.5612C36.967 83.2098 37.0448 83.8583 37.278 84.4686C37.4723 85.0027 37.7833 85.5368 38.1721 85.9945ZM39.5714 80.9973C39.5325 80.3106 39.7269 79.6621 40.1155 79.0899C40.8542 78.2506 42.1757 78.1362 43.0308 78.8992C43.1086 78.9755 43.1863 79.0136 43.2253 79.0899C43.6139 79.6621 43.8083 80.3106 43.7694 80.9973V82.5612C43.8083 83.248 43.6139 83.8964 43.2253 84.4686C42.4867 85.3079 41.165 85.4223 40.3099 84.6593C40.2322 84.583 40.1544 84.5449 40.1155 84.4686C39.7269 83.8964 39.5325 83.248 39.5714 82.5612V80.9973Z" fill="white"/>
<path d="M54.3014 78.4404C54.4957 78.4786 54.6901 78.593 54.8067 78.7837C54.9234 78.9746 55.0011 79.2034 55.0399 79.4323C55.0789 79.7756 55.0789 80.1189 55.0789 80.5004V86.7947C55.0789 86.9091 55.1177 86.9854 55.1954 87.0617C55.2732 87.1381 55.3509 87.1761 55.4675 87.1761H57.2556C57.3722 87.1761 57.45 87.1381 57.5277 87.0617C57.6055 86.9854 57.6443 86.8709 57.6443 86.7947V80.5004C57.6443 79.9282 57.6055 79.356 57.5277 78.7837C57.45 78.2879 57.2945 77.8301 57.0223 77.4105C56.7892 77.0291 56.4005 76.7238 55.9729 76.4949C55.4287 76.2661 54.8456 76.1516 54.2626 76.1516C53.9516 76.1516 53.6794 76.1516 53.3686 76.1898C53.0964 76.2279 52.8631 76.2661 52.5911 76.3423C52.319 76.4186 52.0858 76.4949 51.8525 76.6094C51.5805 76.7619 51.3083 76.8764 51.0751 77.0672V76.6475C51.0751 76.5331 51.0363 76.4568 50.9585 76.3805C50.8808 76.3042 50.803 76.2661 50.6865 76.2661H48.9761C48.7429 76.2661 48.5874 76.4186 48.5874 76.6475V86.7565C48.5874 86.8709 48.6262 86.9472 48.704 87.0235C48.7817 87.0998 48.8595 87.1381 48.9761 87.1381H50.7642C50.8808 87.1381 50.9585 87.0998 51.0363 87.0235C51.114 86.9472 51.1528 86.8328 51.1528 86.7565V79.0126C51.5416 78.8219 51.9303 78.6312 52.319 78.5167C52.6688 78.4023 53.0186 78.326 53.3686 78.326C53.6794 78.326 53.9904 78.3641 54.3014 78.4404Z" fill="white"/>
<path d="M65.964 86.7947C65.964 86.9091 66.0028 86.9854 66.0806 87.0617C66.1583 87.1381 66.2361 87.1762 66.3527 87.1762H68.0241C68.2574 87.1762 68.4129 87.0235 68.4129 86.7947V79.8519C68.4129 78.593 68.0241 77.6775 67.2856 77.0672C66.547 76.4568 65.4587 76.1516 64.0593 76.1516C63.4374 76.1516 62.8154 76.1898 62.1936 76.2279C61.6493 76.3042 61.1829 76.3805 60.7553 76.4568C60.4832 76.4949 60.3666 76.6475 60.3666 76.8382V78.059C60.3666 78.2116 60.4055 78.2879 60.4443 78.326C60.5221 78.3641 60.5998 78.4023 60.7164 78.3641H60.7941C61.1051 78.326 61.5716 78.2879 62.1546 78.2497C62.7377 78.2116 63.3597 78.2116 63.9816 78.2116C64.448 78.1734 64.9145 78.2879 65.3032 78.5167C65.5753 78.7075 65.7308 79.1272 65.7308 79.7756V80.6148H64.4869C63.7484 80.6148 63.0099 80.6911 62.3101 80.8055C61.7659 80.92 61.2606 81.149 60.8331 81.4541C60.4443 81.7211 60.1723 82.0644 59.9778 82.484C59.7835 82.9418 59.7058 83.4378 59.7058 83.9337V84.0099C59.667 84.544 59.7835 85.1163 60.0168 85.6122C60.2111 85.9936 60.4443 86.3369 60.7941 86.6039C61.1051 86.8328 61.4938 87.0235 61.8826 87.0999C62.2713 87.1762 62.6989 87.2525 63.0876 87.2525C63.554 87.2525 64.0204 87.1762 64.4869 87.0235C64.9533 86.8709 65.4198 86.6421 65.8473 86.3751L65.964 86.7947ZM65.8085 84.7729C65.4975 84.9254 65.1865 85.0399 64.8367 85.1543C64.4869 85.2687 64.137 85.307 63.7872 85.307C63.3985 85.3451 63.0098 85.2688 62.6989 85.078C62.4267 84.811 62.3101 84.4677 62.3489 84.1244V84.0481C62.3489 83.8192 62.3879 83.5522 62.4267 83.3233C62.4656 83.1326 62.5822 82.9418 62.7766 82.8273C62.9709 82.6748 63.2042 82.5603 63.4374 82.5222C63.7872 82.4459 64.1759 82.4077 64.5257 82.4077H65.7696V84.7729H65.8085Z" fill="white"/>
<path d="M71.0554 72.5275C70.8221 72.5275 70.6666 72.6801 70.6666 72.909V86.7946C70.6666 86.909 70.7056 86.9853 70.7833 87.0616C70.8611 87.1379 70.9388 87.176 71.0554 87.176H72.8824C72.9989 87.176 73.0767 87.1379 73.1544 87.0616C73.2322 86.9853 73.271 86.8709 73.271 86.7946V72.909C73.271 72.7946 73.2322 72.7183 73.1544 72.642C73.0767 72.5657 72.9989 72.5275 72.8824 72.5275H71.0554Z" fill="white"/>
<path d="M82.0178 76.9155C82.1343 76.4958 82.3288 76.1144 82.6008 75.8092C82.834 75.5422 83.145 75.3133 83.4948 75.1989C83.8836 75.0844 84.2722 75.0082 84.6609 75.0082H85.4772L86.3324 75.0463C86.6045 75.0463 86.8765 75.0844 87.1098 75.0844L87.7318 75.1226H87.7706C87.8873 75.1226 88.0038 75.0844 88.0816 75.0082C88.1593 74.9319 88.1593 74.8174 88.1593 74.703V73.406C88.1593 73.2915 88.1205 73.1771 88.0428 73.1008C87.965 73.0245 87.8483 72.9864 87.7318 72.9482L87.343 72.8719C87.1487 72.8338 86.9155 72.7956 86.6434 72.7575C86.3712 72.7192 86.0603 72.6812 85.7105 72.6812C85.3607 72.6812 85.0109 72.6429 84.6221 72.6429C84.0001 72.6429 83.3782 72.7193 82.7563 72.8719C82.0955 73.0245 81.4735 73.3297 80.9682 73.7493C80.3852 74.2451 79.9187 74.8556 79.6077 75.5422C79.2191 76.4958 79.0247 77.4877 79.0636 78.5176V81.3787C79.0247 82.3705 79.2191 83.3624 79.6077 84.316C79.9187 85.0027 80.3852 85.613 80.9682 86.1089C81.4735 86.5285 82.0955 86.8718 82.7563 87.0245C83.3782 87.1771 84.0001 87.2534 84.6221 87.2915C85.0109 87.2915 85.3607 87.2915 85.7105 87.2534C86.0603 87.2152 86.3712 87.2152 86.6434 87.1771C86.9155 87.1389 87.1487 87.1008 87.343 87.1008C87.4597 87.0627 87.6151 87.0627 87.7318 87.0245C87.8483 86.9864 87.965 86.9481 88.0428 86.8718C88.1205 86.7955 88.1593 86.6811 88.1593 86.5667V85.2697C88.1593 85.1553 88.1205 85.079 88.0816 84.9646C88.0038 84.8883 87.8873 84.85 87.7706 84.85H87.7318L87.1098 84.8883C86.8765 84.9263 86.6045 84.9263 86.3324 84.9263L85.4772 84.9646H84.6609C84.2722 84.9646 83.8836 84.9263 83.4948 84.7737C83.145 84.6593 82.834 84.4304 82.6008 84.1634C82.3288 83.8201 82.1343 83.4387 82.0178 83.0572C81.8623 82.5231 81.7845 81.9509 81.7845 81.3787V78.5558C81.7845 78.0599 81.8623 77.4495 82.0178 76.9155Z" fill="white"/>
<path d="M96.4391 87.2531C96.7111 87.2149 96.9833 87.1768 97.2942 87.1768C97.5664 87.1386 97.8774 87.1005 98.1882 87.0242C98.3827 86.9861 98.4992 86.9479 98.5381 86.8716C98.577 86.7572 98.6159 86.6427 98.6159 86.5283V85.2694C98.6159 85.1931 98.577 85.1168 98.5381 85.0405C98.4604 85.0024 98.3826 84.9643 98.266 84.9643H98.2272C97.7996 85.0024 97.2943 85.0405 96.6334 85.0787C95.9726 85.1168 95.3118 85.155 94.6122 85.155C94.2235 85.155 93.7959 85.0787 93.446 84.9261C93.1739 84.8117 92.9019 84.5828 92.7075 84.3539C92.5132 84.1251 92.3965 83.858 92.3577 83.5528C92.2799 83.2858 92.2799 82.9806 92.2799 82.7136V82.6754H98.6547C98.9269 82.6754 99.0434 82.5229 99.0434 82.1795V81.0732C99.0434 80.3866 98.9657 79.7382 98.7325 79.0896C98.5381 78.5174 98.2272 77.9834 97.8384 77.5255C97.4497 77.0678 96.9444 76.7245 96.3613 76.5337C95.7394 76.2667 95.0398 76.1523 94.34 76.1904C93.6404 76.1904 92.9796 76.3049 92.3577 76.5337C91.8134 76.7626 91.3081 77.0678 90.8806 77.5255C90.4918 77.9834 90.1808 78.4793 89.9865 79.0514C89.7533 79.6999 89.6756 80.3866 89.6756 81.0732V82.4847C89.6367 83.2858 89.7921 84.0869 90.142 84.8498C90.4141 85.422 90.8028 85.918 91.3081 86.3376C91.7746 86.6809 92.2799 86.9479 92.863 87.1005C93.3683 87.2531 93.9125 87.3294 94.4567 87.3294H95.6228C95.9726 87.3294 96.167 87.2912 96.4391 87.2531ZM92.2022 80.7681C92.1633 80.1196 92.3577 79.5092 92.7852 79.0133C93.1739 78.5937 93.7182 78.403 94.3012 78.403C94.8843 78.3648 95.4285 78.5937 95.7783 79.0133C96.167 79.5092 96.4003 80.1196 96.3613 80.7681V80.8444H92.2022V80.7681Z" fill="white"/>
<path d="M110.159 87.0617C110.236 86.9854 110.275 86.8709 110.275 86.7947V80.5004C110.275 79.9282 110.236 79.356 110.12 78.7837C110.042 78.2879 109.887 77.8301 109.615 77.4105C109.381 77.0291 108.993 76.6857 108.604 76.4949C108.06 76.2661 107.477 76.1516 106.855 76.1516C106.544 76.1516 106.272 76.1516 105.961 76.1898C105.689 76.2279 105.455 76.2661 105.183 76.3423C104.95 76.4186 104.678 76.4949 104.445 76.6094C104.173 76.7619 103.901 76.8764 103.667 77.0672V76.6475C103.667 76.5331 103.628 76.4568 103.551 76.3805C103.473 76.3042 103.395 76.2661 103.279 76.2661H101.568C101.335 76.2661 101.18 76.4186 101.18 76.6475V86.7565C101.18 86.8709 101.218 86.9472 101.296 87.0235C101.374 87.0998 101.452 87.1381 101.568 87.1381H103.356C103.473 87.1381 103.551 87.0998 103.628 87.0235C103.706 86.9472 103.745 86.8328 103.745 86.7565V79.0126C104.134 78.8219 104.522 78.6312 104.911 78.5167C105.261 78.4023 105.611 78.326 105.961 78.326C106.272 78.326 106.583 78.3641 106.855 78.4404C107.049 78.4786 107.243 78.6312 107.36 78.7837C107.477 78.9746 107.554 79.2034 107.593 79.4323C107.632 79.7756 107.632 80.1189 107.632 80.5004V86.7947C107.632 86.9091 107.671 86.9854 107.749 87.0617C107.826 87.1381 107.904 87.1762 108.021 87.1762H109.809C109.964 87.2144 110.081 87.1381 110.159 87.0617Z" fill="white"/>
<path d="M111.677 76.4576C111.599 76.5339 111.56 76.6102 111.56 76.7247V77.602C111.56 77.7164 111.599 77.7927 111.677 77.869C111.755 77.9453 111.871 77.9835 111.949 78.0216L113.815 78.2886V84.2777C113.815 84.8119 113.854 85.3459 114.009 85.8418C114.087 86.1851 114.281 86.5285 114.553 86.7574C114.825 86.9862 115.175 87.1388 115.525 87.2151C115.991 87.2914 116.458 87.3296 116.963 87.3296C117.196 87.3296 117.391 87.3296 117.624 87.2914C117.818 87.2533 118.052 87.2151 118.284 87.177C118.518 87.1388 118.674 87.0244 118.674 86.8337V85.6129C118.674 85.4222 118.518 85.3078 118.246 85.3078H117.196C117.041 85.3078 116.924 85.3078 116.769 85.2696C116.691 85.2696 116.613 85.1933 116.536 85.117C116.458 85.0026 116.458 84.8882 116.419 84.7737V78.136H118.169C118.284 78.136 118.362 78.0979 118.44 78.0216C118.518 77.9453 118.557 77.869 118.557 77.7546V76.6102C118.557 76.4958 118.518 76.4195 118.44 76.3432C118.362 76.2668 118.284 76.2288 118.169 76.2288H116.38V74.245C116.38 74.0543 116.264 73.9399 116.069 73.9399H115.991L114.164 74.3596C114.048 74.3977 113.97 74.4359 113.892 74.5121C113.815 74.5884 113.776 74.6647 113.776 74.7792V76.3432H111.949C111.832 76.3051 111.716 76.3814 111.677 76.4576Z" fill="white"/>
<path d="M121.668 86.3376C122.134 86.6809 122.639 86.9479 123.222 87.1005C123.728 87.2531 124.272 87.3294 124.815 87.3294H125.982C126.331 87.3294 126.604 87.2912 126.914 87.2531C127.226 87.2149 127.459 87.2149 127.731 87.1768C128.003 87.1386 128.315 87.1005 128.625 87.0242C128.82 86.9861 128.936 86.9479 128.975 86.8716C129.014 86.7572 129.053 86.6427 129.053 86.5283V85.2694C129.053 85.1931 129.014 85.1168 128.975 85.0405C128.897 85.0024 128.82 84.9643 128.703 84.9643H128.664C128.237 85.0024 127.731 85.0405 127.07 85.0787C126.409 85.1168 125.749 85.155 125.049 85.155C124.661 85.155 124.233 85.0787 123.883 84.9261C123.611 84.8117 123.338 84.5828 123.145 84.3539C122.95 84.1251 122.833 83.858 122.794 83.5528C122.717 83.2858 122.717 82.9806 122.717 82.7136V82.6754H129.092C129.363 82.6754 129.48 82.5229 129.48 82.1795V81.0732C129.48 80.3866 129.402 79.7382 129.169 79.0896C128.975 78.5174 128.664 77.9834 128.276 77.5255C127.886 77.0678 127.381 76.7245 126.799 76.5337C126.176 76.2667 125.476 76.1523 124.776 76.1904C124.077 76.1904 123.416 76.3049 122.794 76.5337C122.251 76.7626 121.706 77.0678 121.317 77.5255C120.89 77.9834 120.579 78.4793 120.423 79.0514C120.191 79.6999 120.113 80.3866 120.113 81.0732V82.4847C120.074 83.2858 120.228 84.0869 120.579 84.8498C120.773 85.422 121.162 85.9561 121.668 86.3376ZM122.678 80.7681C122.639 80.1196 122.833 79.5092 123.26 79.0133C123.65 78.6318 124.194 78.403 124.776 78.4411C125.36 78.403 125.904 78.6318 126.254 79.0514C126.682 79.5473 126.876 80.1578 126.838 80.8062V80.8825H122.678V80.7681Z" fill="white"/>
<path d="M134.143 87.062C134.221 86.9857 134.26 86.8713 134.26 86.795V79.0511C134.649 78.8222 135.076 78.6697 135.543 78.5552C136.009 78.4408 136.514 78.3645 136.981 78.3645C137.214 78.3645 137.37 78.2119 137.37 77.9829V76.5716C137.37 76.4571 137.331 76.3808 137.253 76.3046C137.175 76.2283 137.097 76.1901 136.981 76.1901C136.514 76.1901 136.087 76.2664 135.659 76.3808C135.115 76.5334 134.61 76.8004 134.182 77.1438V76.7242C134.182 76.6097 134.143 76.5334 134.066 76.4571C133.988 76.3808 133.91 76.3427 133.794 76.3427H132.044C131.812 76.3427 131.656 76.4953 131.656 76.7242V86.795C131.656 86.9094 131.695 86.9857 131.773 87.062C131.849 87.1383 131.927 87.1765 132.044 87.1765H133.833C133.949 87.1765 134.066 87.1383 134.143 87.062Z" fill="white"/>
<path d="M71.6394 29.155H73.1553C73.272 29.155 73.3885 29.1169 73.4663 29.0406C73.544 28.9643 73.5829 28.8499 73.5829 28.7354V27.2477C73.5829 27.1332 73.544 27.0188 73.4663 26.9425C73.3885 26.8662 73.272 26.8281 73.1553 26.8281H71.6004C71.4839 26.8281 71.3673 26.8662 71.2506 26.9425C71.1729 27.0188 71.0952 27.1332 71.0952 27.2477V28.7354C71.0952 28.8499 71.1341 28.9643 71.2118 29.0406C71.4061 29.1169 71.5227 29.155 71.6394 29.155Z" fill="white"/>
<path d="M96.438 39.569H97.8762V40.1413C97.8762 40.4464 97.8374 40.7516 97.6819 41.0568C97.5264 41.2856 97.3321 41.4764 97.0988 41.5908C96.7878 41.7435 96.4768 41.8198 96.127 41.8579C95.6995 41.8961 95.233 41.9342 94.7665 41.9342H92.9785C92.7453 41.9342 92.6287 42.0486 92.6287 42.2775V43.689C92.6287 43.7653 92.6287 43.8416 92.6676 43.9179C92.7453 43.9941 92.8231 44.0323 92.9396 44.0323C93.0951 44.0704 93.2117 44.0704 93.3672 44.0704C93.5616 44.0704 93.7947 44.0704 94.0669 44.1086C94.3002 44.1467 94.5333 44.1467 94.7665 44.1467H95.2719C95.8938 44.1467 96.5546 44.1086 97.1766 43.956C97.7208 43.8416 98.2649 43.6507 98.7314 43.3456C99.1979 43.0404 99.5477 42.6208 99.8197 42.1631C100.131 41.5526 100.325 40.9042 100.325 40.2176V39.569H103.085C103.396 39.569 103.707 39.5691 104.018 39.5308C104.329 39.4927 104.601 39.4927 104.834 39.4547C105.028 39.4547 105.223 39.4164 105.417 39.3783C105.534 39.3401 105.65 39.2638 105.728 39.1494C105.806 39.035 105.845 38.9587 105.845 38.8442C105.884 38.5009 105.922 38.1195 105.922 37.6999V25.3402C105.922 25.2258 105.884 25.1112 105.806 25.0349C105.728 24.9586 105.65 24.9205 105.534 24.9205H103.746C103.629 24.9205 103.551 24.9586 103.474 25.0349C103.396 25.1112 103.357 25.2258 103.357 25.3402V36.4791C103.357 36.7843 103.318 36.975 103.202 37.0132C103.007 37.0894 102.813 37.1276 102.58 37.0894H100.247V30.8715C100.247 30.7952 100.247 30.7189 100.17 30.6426C100.092 30.5663 100.014 30.5282 99.8975 30.49C99.7032 30.4137 99.5477 30.3756 99.3534 30.3374C99.1201 30.2993 98.8869 30.2611 98.6148 30.2611L97.7986 30.1849C97.5264 30.1467 97.2543 30.1467 97.0211 30.1467C95.3497 30.1467 94.028 30.5663 93.134 31.4055C92.2399 32.2448 91.7736 33.3893 91.7736 34.9151V35.2965C91.7736 36.708 92.1622 37.738 92.9785 38.4628C93.7947 39.1875 95.0387 39.569 96.438 39.569ZM94.3779 34.7625C94.339 34.114 94.5722 33.5037 94.9998 33.0458C95.4662 32.6263 96.0882 32.3974 96.749 32.4355C97.1376 32.4355 97.5653 32.4355 97.9539 32.4737V37.2039H96.4768C95.8938 37.242 95.3108 37.0513 94.8832 36.6699C94.5333 36.2121 94.339 35.6399 94.3779 35.0295V34.7625Z" fill="white"/>
<path d="M109.46 39.5691H111.209C111.326 39.5691 111.404 39.5308 111.482 39.4547C111.559 39.3784 111.598 39.2638 111.598 39.1875V25.3021C111.598 25.1875 111.559 25.1112 111.482 25.0349C111.404 24.9586 111.287 24.9205 111.209 24.9205H109.46C109.344 24.9205 109.266 24.9586 109.188 25.0349C109.11 25.1112 109.072 25.1875 109.072 25.3021V39.1875C109.072 39.302 109.11 39.3784 109.188 39.4547C109.227 39.5308 109.344 39.6071 109.46 39.5691Z" fill="white"/>
<path d="M57.6856 44.7957H59.0072C59.1237 44.7957 59.2404 44.7575 59.3182 44.6814C59.3959 44.605 59.4347 44.5287 59.4737 44.4142V43.041C59.4737 42.9266 59.4347 42.812 59.3182 42.7357C59.2404 42.6595 59.1237 42.6213 59.0072 42.6213H57.6856C57.5689 42.6213 57.4912 42.6595 57.3746 42.7357C57.2969 42.812 57.2191 42.9266 57.2191 43.041V44.4142C57.2191 44.5287 57.2581 44.605 57.3746 44.6814C57.4524 44.7575 57.5689 44.7957 57.6856 44.7957Z" fill="white"/>
<path d="M52.4753 39.7592C53.0196 40.2933 53.6803 40.6747 54.4189 40.9036C55.3517 41.1706 56.3235 41.3232 57.2953 41.2851C58.0338 41.2851 58.7336 41.2469 59.3944 41.2088C60.0551 41.1706 60.677 41.0943 61.2212 40.9799C61.4933 40.9418 61.6488 40.7892 61.6488 40.5603C61.6877 40.1026 61.7265 35.9064 61.7265 35.9064C61.7265 35.0671 61.921 34.4568 62.3097 34.1516C62.7761 33.8082 63.398 33.6175 63.9811 33.6556C64.1366 33.6556 64.2921 33.6556 64.4476 33.6938L64.9529 33.7319V37.127C64.9529 37.5466 64.9917 37.9662 65.1084 38.3478C65.2249 38.6529 65.4193 38.92 65.6525 39.1107C65.8857 39.3014 66.1967 39.454 66.5077 39.4921C66.8964 39.5684 67.2852 39.6066 67.7127 39.6066H69.6563C69.8506 39.6066 70.0838 39.6066 70.3559 39.5684C70.5891 39.5684 70.8612 39.5303 71.0944 39.454C71.3277 39.4158 71.5609 39.3396 71.7941 39.2633C72.0274 39.187 72.2217 39.0725 72.416 38.9581C72.8047 39.2251 73.2323 39.4158 73.6988 39.4921C74.1263 39.5684 74.5928 39.6066 75.0204 39.6066H86.5651C87.0315 39.6066 87.4979 39.5684 87.9256 39.5684C88.2364 39.5684 88.5474 39.5684 88.8196 39.5303C88.9751 39.5303 89.1694 39.454 89.286 39.3396C89.3637 39.2251 89.4415 39.1107 89.4804 38.9962C89.597 38.5385 89.6359 38.0808 89.6747 37.6229C89.7136 37.0889 89.7524 36.593 89.7524 36.1734V35.3722C89.7914 34.533 89.6359 33.7319 89.3637 32.969C89.1305 32.3587 88.7419 31.7865 88.2366 31.3668C87.7311 30.9472 87.1481 30.642 86.4873 30.4894C85.7488 30.2987 84.9713 30.2224 84.1939 30.2224C83.9607 30.2224 83.6886 30.2224 83.3387 30.2606C82.9501 30.2987 82.6002 30.3369 82.2116 30.4132C81.7839 30.4895 81.3953 30.6039 81.0065 30.7183C80.6178 30.8709 80.2291 31.0616 79.8793 31.2905V25.4158C79.8793 25.3014 79.8404 25.187 79.7627 25.1107C79.685 25.0344 79.6072 24.9962 79.4905 24.9962H77.7025C77.5859 24.9962 77.5082 25.0344 77.4304 25.1107C77.3527 25.187 77.3138 25.3014 77.3138 25.4158V37.2033H74.4373C74.3208 37.2033 74.1653 37.1652 74.0486 37.1652C73.932 37.127 74.0098 37.0889 73.8932 37.0507C73.8155 37.0126 73.7377 36.9744 73.66 36.8982V31.7482C73.66 31.5194 73.5045 31.3668 73.2712 31.3668H71.5609C71.4443 31.3668 71.3666 31.4049 71.2888 31.4812C71.2111 31.5575 71.1722 31.6338 71.1722 31.7482V36.5548C71.1722 36.6693 71.1334 36.8219 71.0556 36.8982C70.9779 36.9744 70.8612 37.0507 70.7834 37.0889C70.6669 37.127 70.5503 37.1652 70.4336 37.1652H68.3735C68.1403 37.2033 67.8682 37.127 67.6738 37.0507C67.5572 36.9744 67.4795 36.7837 67.4795 36.5167V32.1679C67.4795 32.0535 67.4405 31.9772 67.4017 31.9008L67.1685 31.7865C66.8187 31.7101 66.3911 31.6721 65.8857 31.6338C65.3804 31.5957 64.8362 31.5575 64.3309 31.5575C62.6983 31.5575 61.4545 31.9009 60.5993 32.5875C59.7442 33.2742 59.2777 34.3805 59.2777 35.83V35.9827C59.2777 36.2497 59.2389 38.5767 59.2389 38.92C58.9667 38.9581 58.6946 38.9962 58.3836 38.9962C58.0728 38.9962 57.7618 39.0344 57.4119 39.0344C56.7122 39.0725 55.9737 38.9581 55.3129 38.6911C54.8464 38.5004 54.4577 38.1571 54.1467 37.7374C53.8747 37.2796 53.6803 36.7837 53.6026 36.2497C53.5249 35.6393 53.4859 35.0289 53.4859 34.3805C53.4859 34.1897 53.4859 33.9609 53.5248 33.6938C53.5637 33.3886 53.5637 33.1216 53.6026 32.8546C53.6414 32.5875 53.5249 32.4731 53.2527 32.4731H51.7368C51.5035 32.4731 51.387 32.5875 51.348 32.8546C51.3092 33.1216 51.2703 33.2742 51.2315 33.5412C51.1926 33.77 51.1925 33.999 51.1537 34.2279C51.1148 34.4568 51.1148 34.6856 51.1148 34.8764C51.1148 35.0671 51.076 35.2578 51.076 35.4104C51.076 36.2878 51.1926 37.2033 51.4258 38.0426C51.5813 38.5766 51.9311 39.2251 52.4753 39.7592ZM79.8405 33.3504C80.1125 33.1597 80.3846 33.0071 80.6956 32.9308C81.0065 32.8164 81.3563 32.7401 81.7061 32.6638C82.0171 32.6257 82.3671 32.5875 82.7169 32.5494C83.0278 32.5494 83.2999 32.5113 83.5331 32.5113C84.0773 32.5113 84.6604 32.5494 85.2045 32.6638C85.6322 32.7401 86.0208 32.9308 86.3707 33.1979C86.6816 33.4649 86.9149 33.77 87.0315 34.1516C87.187 34.6093 87.2648 35.1434 87.2258 35.6393V35.9444C87.2258 36.2878 87.2258 36.6311 87.1481 36.9744C87.1093 37.127 86.9538 37.2415 86.7983 37.2033H80.8899C80.5401 37.2033 80.1513 37.2033 79.8793 37.1652L79.8405 33.3504Z" fill="white"/>
<path d="M54.031 42.6586C53.9144 42.6586 53.7978 42.6968 53.72 42.7731C53.6423 42.8494 53.5645 42.9638 53.5645 43.0782V44.4516C53.5645 44.566 53.6034 44.6423 53.72 44.7186C53.7978 44.7949 53.9144 44.833 54.031 44.833H55.3526C55.4693 44.833 55.5858 44.7949 55.6636 44.7186C55.7413 44.6423 55.8191 44.566 55.8191 44.4516V43.0782C55.8191 42.9638 55.7802 42.8494 55.7025 42.7731C55.6248 42.6968 55.5081 42.6586 55.3915 42.6586H54.031Z" fill="white"/>
<path d="M148.137 72.5662C148.059 72.528 147.982 72.4899 147.904 72.4517C147.709 72.4136 147.553 72.3755 147.36 72.3373C147.165 72.2992 146.932 72.2992 146.738 72.2992C146.271 72.2992 145.805 72.3373 145.338 72.4136C144.95 72.4899 144.599 72.6425 144.25 72.9095C143.938 73.1765 143.706 73.4818 143.55 73.8632C143.356 74.3591 143.278 74.855 143.317 75.389V76.3428H141.567C141.451 76.3428 141.374 76.3809 141.296 76.4572C141.218 76.5335 141.179 76.6098 141.179 76.7242V77.6017C141.179 77.678 141.218 77.7924 141.296 77.8305C141.374 77.9068 141.451 77.945 141.567 77.945L143.317 78.212V86.7569C143.317 86.9858 143.511 87.1384 143.745 87.1765H145.532C145.649 87.1765 145.727 87.1384 145.805 87.0621C145.883 86.9858 145.922 86.8714 145.922 86.7951V78.2501H147.826C147.943 78.2501 148.02 78.212 148.098 78.1357C148.176 78.0594 148.215 77.9831 148.215 77.8687V76.7242C148.215 76.6098 148.176 76.5335 148.098 76.4572C148.02 76.3809 147.943 76.3428 147.826 76.3428H145.922V75.389C145.883 75.0457 145.961 74.7406 146.154 74.4354C146.427 74.2447 146.776 74.1684 147.087 74.2065H147.982C148.059 74.2065 148.137 74.1684 148.176 74.1302C148.253 74.054 148.292 73.9777 148.253 73.8632V72.7188C148.253 72.6806 148.215 72.6043 148.137 72.5662Z" fill="white"/>
<path d="M157.311 77.564C156.884 77.1444 156.418 76.8011 155.834 76.5721C154.513 76.0762 153.074 76.0762 151.753 76.5721C151.209 76.8011 150.703 77.1444 150.276 77.564C149.887 78.0218 149.576 78.5176 149.382 79.0899C149.187 79.7002 149.07 80.3487 149.07 80.9973V82.5612C149.07 83.2098 149.187 83.8583 149.382 84.4686C149.576 85.0409 149.887 85.5368 150.276 85.9945C150.664 86.4141 151.17 86.7574 151.753 86.9864C153.074 87.4823 154.513 87.4823 155.834 86.9864C156.379 86.7574 156.884 86.4141 157.311 85.9945C157.7 85.5368 158.011 85.0409 158.205 84.4686C158.4 83.8583 158.517 83.2098 158.517 82.5612V80.9973C158.517 80.3487 158.4 79.7002 158.205 79.0899C158.011 78.5176 157.7 77.9836 157.311 77.564ZM155.912 82.5612C155.951 83.248 155.756 83.8964 155.368 84.4686C154.629 85.3079 153.308 85.4223 152.453 84.6593L152.258 84.4686C151.87 83.8964 151.675 83.248 151.714 82.5612V80.9973C151.675 80.3106 151.87 79.6621 152.258 79.0899C152.997 78.2506 154.318 78.1362 155.173 78.8992C155.251 78.9755 155.329 79.0518 155.368 79.0899C155.756 79.6621 155.951 80.3106 155.912 80.9973V82.5612Z" fill="white"/>
<path d="M166.289 76.3046C166.211 76.2283 166.134 76.1901 166.017 76.1901C165.551 76.1901 165.123 76.2664 164.695 76.3808C164.152 76.5334 163.645 76.8004 163.218 77.1438V76.7242C163.218 76.4953 163.063 76.3427 162.829 76.3427H161.12C160.886 76.3427 160.73 76.4953 160.73 76.7242V86.795C160.73 86.9094 160.769 86.9857 160.847 87.062C160.925 87.1383 161.003 87.1765 161.12 87.1765H162.907C163.024 87.1765 163.102 87.1383 163.179 87.062C163.257 86.9857 163.296 86.8713 163.296 86.795V79.0511C163.684 78.8222 164.113 78.6697 164.579 78.5552C165.045 78.4408 165.551 78.3645 166.017 78.3645C166.134 78.3645 166.211 78.3264 166.289 78.2501C166.367 78.1738 166.406 78.0975 166.406 77.9829V76.6097C166.406 76.4571 166.367 76.3808 166.289 76.3046Z" fill="white"/>
<path d="M10.6506 95.417H8.94029C8.74594 95.3788 8.59045 95.4933 8.55158 95.684V105.946C8.55158 106.06 8.51271 106.136 8.47383 106.136C8.43497 106.136 8.35722 106.098 8.31835 105.984L3.7316 96.0654C3.65385 95.8747 3.53725 95.684 3.38176 95.5696C3.22628 95.4933 3.0708 95.4551 2.87644 95.4551H0.777417C0.583062 95.4551 0.349837 95.5314 0.233225 95.684C0.0777417 95.8366 0 96.0273 0 96.2562V109.417C0 109.531 0.0388708 109.608 0.116612 109.684C0.194354 109.76 0.272096 109.798 0.388708 109.798H2.06016C2.17677 109.798 2.25451 109.76 2.33225 109.684C2.41 109.608 2.44886 109.531 2.44886 109.417V99.7276C2.44886 99.6131 2.48773 99.575 2.5266 99.575C2.60434 99.575 2.64321 99.6131 2.68209 99.7276L7.03562 109.112C7.1911 109.455 7.38546 109.646 7.57981 109.722C7.77417 109.798 8.00739 109.798 8.24061 109.798H10.223C10.6506 109.798 11.0004 109.455 11.0004 109.035V95.8366C11.0393 95.6458 10.8838 95.4933 10.7283 95.4933C10.7024 95.4423 10.6765 95.417 10.6506 95.417Z" fill="white"/>
<path d="M21.6124 100.108C21.1849 99.6889 20.7185 99.3454 20.1354 99.1166C19.4746 98.8496 18.8138 98.7351 18.1142 98.7351C17.4144 98.7351 16.7147 98.8496 16.0929 99.1166C15.5486 99.3454 15.0433 99.6889 14.6158 100.108C14.2271 100.566 13.9161 101.062 13.7218 101.634C13.5273 102.245 13.4108 102.893 13.4108 103.542V105.106C13.4108 105.754 13.4885 106.403 13.7218 107.013C13.9161 107.585 14.2271 108.081 14.6158 108.539C15.0044 108.959 15.5098 109.302 16.0929 109.531C16.7537 109.798 17.4144 109.912 18.1142 109.912C18.8138 109.912 19.5135 109.798 20.1354 109.531C20.6796 109.302 21.1849 108.959 21.6124 108.539C22.0012 108.081 22.3122 107.585 22.5065 107.013C22.7009 106.403 22.8175 105.754 22.8175 105.106V103.542C22.8175 102.893 22.7397 102.245 22.5065 101.634C22.3511 101.062 22.0401 100.566 21.6124 100.108ZM20.252 105.106C20.2909 105.792 20.0965 106.441 19.7078 107.013C19.358 107.471 18.775 107.738 18.153 107.7C17.531 107.738 16.948 107.471 16.5982 107.013C16.2094 106.441 16.0151 105.792 16.0539 105.106V103.542C16.0151 102.855 16.2094 102.206 16.5982 101.634C16.948 101.177 17.531 100.91 18.153 100.948C18.775 100.91 19.358 101.177 19.7078 101.634C20.0965 102.206 20.2909 102.855 20.252 103.542V105.106Z" fill="white"/>
<path d="M33.4683 99.9555C33.2351 99.5741 32.8463 99.2308 32.4188 99.04C31.8745 98.8112 31.2915 98.6967 30.7085 98.6967C30.3975 98.6967 30.1254 98.6967 29.8144 98.7349C29.5424 98.773 29.3091 98.8112 29.0371 98.8874C28.7649 98.9637 28.5317 99.04 28.2985 99.1545C28.0264 99.2689 27.7543 99.4215 27.5211 99.6122V99.1926C27.5211 99.0782 27.4822 99.0019 27.4045 98.9256C27.3268 98.8493 27.249 98.8112 27.1323 98.8112H25.422C25.3054 98.8112 25.2277 98.8493 25.1499 98.9256C25.0722 99.0019 25.0334 99.0782 25.0334 99.1926V109.263C25.0334 109.378 25.0722 109.454 25.1499 109.53C25.2277 109.607 25.3054 109.645 25.422 109.645H27.2101C27.3268 109.645 27.4045 109.607 27.4822 109.53C27.5599 109.454 27.5988 109.34 27.5988 109.263V101.52C27.9875 101.329 28.3763 101.138 28.7649 101.024C29.1148 100.909 29.4646 100.833 29.8144 100.833C30.1254 100.833 30.4364 100.871 30.7085 100.947C30.9029 100.985 31.0972 101.138 31.2138 101.291C31.3304 101.481 31.4082 101.71 31.447 101.939C31.4859 102.283 31.4859 102.626 31.4859 103.007V109.302C31.4859 109.416 31.5247 109.492 31.6025 109.569C31.6802 109.645 31.758 109.683 31.8745 109.683H33.7015C33.8181 109.683 33.8959 109.645 33.9736 109.569C34.0514 109.492 34.0903 109.378 34.0903 109.302V103.007C34.0903 102.435 34.0514 101.863 33.9348 101.291C33.8959 100.871 33.7404 100.375 33.4683 99.9555Z" fill="white"/>
<path d="M49.4426 102.855H37.3926C37.2761 102.855 37.1983 102.893 37.1206 102.969C37.0428 103.045 37.0039 103.122 37.0039 103.236V104.648C37.0039 104.762 37.0428 104.838 37.1206 104.876C37.1983 104.953 37.2761 104.991 37.3926 104.991H49.4426C49.6759 104.991 49.8314 104.876 49.8314 104.648V103.236C49.8702 103.045 49.7147 102.893 49.5592 102.893C49.5204 102.817 49.4814 102.817 49.4426 102.855Z" fill="white"/>
<path d="M61.961 96.2174C61.4168 95.8741 60.7948 95.6071 60.1729 95.4927C59.4732 95.3401 58.7347 95.2638 57.9961 95.2638C57.2576 95.2638 55.9748 95.3019 55.314 95.3401C54.6533 95.3782 54.0702 95.4545 53.526 95.5308C53.3705 95.5308 53.215 95.6071 53.0595 95.6834C52.9429 95.7978 52.8652 95.9504 52.9041 96.103V109.378C52.9041 109.569 53.0984 109.76 53.2927 109.76H55.2752C55.3918 109.76 55.4695 109.722 55.5473 109.645C55.625 109.569 55.6638 109.493 55.6638 109.378V104.381L56.5191 104.419C56.8689 104.419 57.7629 104.457 58.035 104.457C58.7736 104.457 59.4732 104.381 60.2118 104.228C60.8726 104.076 61.4556 103.847 61.9998 103.465C62.5051 103.122 62.9328 102.626 63.2437 102.054C63.5547 101.405 63.7491 100.643 63.7102 99.9177V99.727C63.7491 99.0022 63.5936 98.2774 63.2437 97.5907C62.9328 97.0567 62.5051 96.5608 61.961 96.2174ZM60.9503 99.8796C60.9892 100.528 60.756 101.177 60.2895 101.634C59.823 102.016 59.0845 102.207 58.035 102.207H56.5968L56.0915 102.168H55.7416V97.5526C55.8193 97.5526 55.936 97.5526 56.0915 97.5144H56.5579L57.0633 97.4763H58.035C58.8124 97.4382 59.5899 97.5907 60.2507 98.0103C60.756 98.3536 60.9892 98.9259 60.9892 99.727V99.8796H60.9503Z" fill="white"/>
<path d="M70.939 98.7351C70.4727 98.7351 70.045 98.8114 69.6175 98.9259C69.0732 99.0784 68.5679 99.3073 68.1404 99.6506V99.231C68.1404 99.0021 67.9849 98.8496 67.7516 98.8496H66.0413C65.9248 98.8496 65.847 98.8877 65.7693 98.964C65.6915 99.0403 65.6526 99.1166 65.6526 99.231V109.302C65.6526 109.416 65.6915 109.493 65.7693 109.569C65.847 109.645 65.9248 109.683 66.0413 109.683H67.8294C67.9461 109.683 68.0237 109.645 68.1014 109.569C68.1792 109.493 68.2181 109.378 68.2181 109.302V101.558C68.6069 101.329 69.0344 101.177 69.5009 101.062C69.9673 100.948 70.4727 100.871 70.939 100.871C71.1723 100.871 71.3278 100.719 71.3278 100.49V99.1166C71.3278 98.9259 71.1335 98.7351 70.939 98.7351Z" fill="white"/>
<path d="M80.3452 100.109C79.9176 99.6894 79.4511 99.3461 78.8681 99.1172C77.5465 98.6213 76.1082 98.6213 74.7867 99.1172C74.2424 99.3461 73.7371 99.6894 73.3096 100.109C72.9208 100.567 72.6098 101.063 72.4155 101.635C72.2211 102.245 72.1046 102.894 72.1046 103.542V105.106C72.1046 105.755 72.1823 106.403 72.4155 107.014C72.6098 107.586 72.9208 108.082 73.3096 108.54C73.6982 108.959 74.2036 109.302 74.7867 109.531C76.1082 110.027 77.5465 110.027 78.8681 109.531C79.4123 109.302 79.9176 108.959 80.3452 108.54C80.7339 108.082 81.0449 107.586 81.2392 107.014C81.4335 106.403 81.5502 105.755 81.5502 105.106V103.542C81.5502 102.894 81.4724 102.245 81.2392 101.635C81.0449 101.063 80.7339 100.567 80.3452 100.109ZM78.9458 105.106C78.9846 105.793 78.7903 106.441 78.4016 107.014C77.6242 107.853 76.3415 107.967 75.4474 107.204C75.3697 107.128 75.2919 107.09 75.2531 107.014C74.8644 106.441 74.67 105.793 74.7089 105.106V103.542C74.67 102.856 74.8644 102.207 75.2531 101.635C76.0305 100.796 77.3133 100.681 78.2073 101.444C78.285 101.521 78.3628 101.559 78.4016 101.635C78.7903 102.207 78.9846 102.856 78.9458 103.542V105.106Z" fill="white"/>
<path d="M89.3254 95.1113C89.2476 95.073 89.17 95.0349 89.0923 94.9969L88.548 94.8823C88.3537 94.8442 88.1205 94.8442 87.9261 94.8442C87.4597 94.8442 86.9932 94.8823 86.5267 94.9586C86.138 95.0349 85.7494 95.1876 85.4384 95.4546C85.1274 95.7216 84.8942 96.0268 84.7387 96.4082C84.5444 96.9041 84.4666 97.4001 84.5054 97.9341V98.8878H82.7563C82.6396 98.8878 82.5619 98.9259 82.4842 99.0022C82.4065 99.0785 82.3676 99.1549 82.3676 99.2693V100.147C82.3676 100.261 82.4065 100.337 82.4842 100.376C82.5619 100.452 82.6396 100.49 82.7563 100.49L84.5054 100.757V109.302C84.5054 109.531 84.6998 109.683 84.9331 109.722H86.7212C86.8377 109.722 86.9155 109.683 86.9932 109.607C87.071 109.531 87.1098 109.416 87.1098 109.34V100.795H88.9756C89.0923 100.795 89.17 100.757 89.2476 100.681C89.3254 100.604 89.3643 100.528 89.3643 100.414V99.2693C89.3643 99.0405 89.2088 98.8878 88.9756 98.8878H87.071V97.9341C87.032 97.5908 87.1098 97.2857 87.3042 96.9804C87.5763 96.7897 87.9261 96.7134 88.237 96.7515H89.1311C89.2088 96.7515 89.2866 96.7134 89.3254 96.6752C89.4031 96.599 89.4421 96.5227 89.4031 96.4082V95.2639C89.4421 95.2257 89.4031 95.1494 89.3254 95.1113Z" fill="white"/>
<path d="M93.3673 98.8878H91.5792C91.346 98.8878 91.1905 99.0403 91.1905 99.2692V109.34C91.1905 109.455 91.2294 109.531 91.3072 109.607C91.3849 109.683 91.4627 109.722 91.5792 109.722H93.3673C93.4839 109.722 93.5616 109.683 93.6393 109.607C93.7171 109.531 93.756 109.416 93.756 109.34V99.2692C93.756 99.1548 93.7171 99.0785 93.6393 99.0022C93.5616 98.9259 93.4839 98.8878 93.3673 98.8878Z" fill="white"/>
<path d="M93.4448 94.9584H91.5402C91.4236 94.9584 91.3459 94.9966 91.2681 95.0728C91.1904 95.1491 91.1514 95.2254 91.1514 95.3399V97.0184C91.1514 97.1328 91.1904 97.2091 91.2681 97.2854C91.3459 97.3617 91.4624 97.3998 91.5402 97.3998H93.4448C93.5615 97.3998 93.6392 97.3617 93.717 97.2854C93.7947 97.2091 93.8335 97.1328 93.8335 97.0184V95.3399C93.8335 95.1491 93.6392 94.9584 93.4448 94.9584Z" fill="white"/>
<path d="M102.153 107.929H101.104C100.948 107.929 100.832 107.929 100.676 107.89C100.599 107.89 100.482 107.814 100.443 107.738C100.365 107.623 100.365 107.509 100.365 107.395V100.757H102.153C102.27 100.757 102.348 100.719 102.425 100.642C102.503 100.566 102.542 100.49 102.542 100.375V99.231C102.542 99.1165 102.503 99.0402 102.425 98.9639C102.348 98.8877 102.27 98.8495 102.153 98.8495H100.365V96.8659C100.365 96.6751 100.249 96.5607 100.054 96.5607H99.9766L98.1498 96.8659C98.0331 96.904 97.9553 96.9422 97.8776 97.0184C97.7998 97.0947 97.761 97.171 97.761 97.2855V98.8495H95.8952C95.662 98.8495 95.5065 99.0021 95.5065 99.231V100.108C95.5065 100.223 95.5454 100.299 95.6231 100.375C95.7009 100.452 95.7786 100.49 95.8952 100.528L97.761 100.795V106.86C97.761 107.395 97.7998 107.929 97.9165 108.424C97.9943 108.768 98.1886 109.111 98.4607 109.378C98.7328 109.607 99.0826 109.76 99.4324 109.836C99.8989 109.912 100.365 109.95 100.871 109.95C101.104 109.95 101.298 109.95 101.531 109.912C101.765 109.874 101.959 109.874 102.231 109.836C102.503 109.798 102.62 109.683 102.62 109.492V108.272C102.581 108.005 102.425 107.929 102.153 107.929Z" fill="white"/>
<path d="M118.518 103.771C118.284 103.428 118.012 103.122 117.701 102.817C117.273 102.474 116.846 102.169 116.379 101.902L113.62 100.605C113.347 100.452 113.075 100.299 112.842 100.147C112.648 100.032 112.492 99.8799 112.337 99.7273C112.22 99.6129 112.142 99.4603 112.104 99.3076C112.065 99.155 112.026 99.0025 112.026 98.888C111.987 98.5066 112.181 98.1251 112.492 97.8963C112.959 97.6292 113.503 97.4767 114.086 97.553C114.708 97.553 115.757 97.5911 116.418 97.5911C117.079 97.5911 117.701 97.6674 118.362 97.7437H118.401C118.479 97.7437 118.594 97.7055 118.633 97.6674C118.711 97.5911 118.711 97.5148 118.711 97.4004V95.9889C118.711 95.9126 118.672 95.7982 118.633 95.76C118.557 95.6837 118.479 95.6456 118.362 95.6456C118.206 95.6074 117.973 95.5693 117.662 95.531L116.69 95.4166C116.34 95.3786 115.991 95.3403 115.602 95.3403C115.252 95.3403 114.475 95.3022 114.164 95.3022C113.386 95.3022 112.609 95.3786 111.87 95.5693C111.326 95.7219 110.782 95.9889 110.354 96.3322C109.966 96.6374 109.694 97.057 109.538 97.5148C109.383 97.9725 109.266 98.4684 109.305 98.9643C109.305 99.3076 109.344 99.6129 109.421 99.9181C109.499 100.223 109.616 100.528 109.81 100.834C110.005 101.139 110.238 101.444 110.51 101.673C110.86 101.978 111.248 102.245 111.637 102.474L114.63 104C114.941 104.19 115.213 104.381 115.446 104.496C115.641 104.61 115.796 104.763 115.952 104.915C116.068 105.03 116.185 105.182 116.224 105.335C116.263 105.488 116.263 105.678 116.263 105.831C116.302 106.327 116.107 106.785 115.796 107.128C115.485 107.433 114.863 107.586 114.008 107.586H112.881L111.832 107.547L110.86 107.509C110.549 107.509 110.277 107.471 110.082 107.433H110.043C109.927 107.433 109.849 107.471 109.771 107.547C109.694 107.624 109.655 107.7 109.655 107.814V109.188C109.655 109.264 109.694 109.379 109.771 109.455C109.849 109.531 109.927 109.569 110.043 109.607C110.549 109.722 111.054 109.798 111.559 109.874C112.104 109.951 113.153 109.951 113.892 109.951C114.747 109.989 115.563 109.836 116.341 109.607C116.924 109.417 117.468 109.112 117.934 108.692C118.323 108.349 118.594 107.891 118.789 107.395C118.945 106.937 119.062 106.441 119.062 105.945C119.062 105.564 119.023 105.22 118.945 104.839C118.828 104.419 118.672 104.076 118.518 103.771Z" fill="white"/>
<path d="M129.05 100.109C128.66 99.6511 128.155 99.3078 127.573 99.1171C126.951 98.8882 126.251 98.7356 125.552 98.7738C124.852 98.7738 124.19 98.8882 123.568 99.1171C123.025 99.346 122.481 99.6511 122.091 100.109C121.664 100.567 121.353 101.063 121.197 101.635C120.965 102.283 120.887 102.97 120.887 103.657V105.068C120.848 105.869 121.004 106.67 121.353 107.433C121.859 108.539 122.869 109.379 124.075 109.684C124.579 109.836 125.123 109.913 125.667 109.913H126.834C127.183 109.913 127.456 109.875 127.767 109.875C128.077 109.875 128.311 109.836 128.584 109.798C128.855 109.76 129.166 109.722 129.477 109.646C129.671 109.608 129.788 109.569 129.827 109.493C129.866 109.379 129.905 109.264 129.905 109.15V107.891C129.905 107.815 129.866 107.738 129.827 107.662C129.749 107.624 129.671 107.586 129.555 107.586H129.516C129.089 107.624 128.584 107.662 127.922 107.7C127.261 107.738 126.6 107.777 125.901 107.777C125.513 107.777 125.084 107.7 124.735 107.548C124.463 107.433 124.19 107.204 123.997 106.975C123.802 106.747 123.685 106.479 123.646 106.174C123.568 105.907 123.568 105.602 123.568 105.335V105.297H129.944C130.215 105.297 130.332 105.144 130.332 104.801V103.733C130.332 103.046 130.254 102.398 130.022 101.749C129.749 101.063 129.477 100.567 129.05 100.109ZM127.65 103.39H123.491V103.313C123.452 102.665 123.646 102.054 124.075 101.559C124.463 101.139 125.007 100.948 125.591 100.948C126.173 100.91 126.717 101.139 127.068 101.559C127.495 102.054 127.689 102.665 127.65 103.313V103.39Z" fill="white"/>
<path d="M139.12 99.0021C138.809 98.9259 138.459 98.8496 138.148 98.8114C137.643 98.7733 137.099 98.7351 136.593 98.7351C135.971 98.7351 135.388 98.8114 134.806 99.0403C134.261 99.231 133.795 99.5363 133.406 99.9177C132.978 100.337 132.668 100.833 132.473 101.367C132.24 102.016 132.123 102.702 132.123 103.427V105.22C132.123 105.907 132.24 106.632 132.473 107.28C132.668 107.814 133.017 108.31 133.406 108.73C133.795 109.111 134.299 109.416 134.806 109.607C135.388 109.798 135.971 109.912 136.593 109.912C137.099 109.912 137.643 109.874 138.148 109.836C138.498 109.798 138.809 109.76 139.12 109.645C139.237 109.645 139.354 109.569 139.469 109.493C139.547 109.378 139.547 109.264 139.547 109.149V107.89C139.547 107.814 139.508 107.738 139.469 107.662C139.391 107.623 139.315 107.585 139.198 107.585H139.159L138.615 107.662C138.459 107.7 138.265 107.7 138.07 107.7H136.632C136.398 107.7 136.166 107.662 135.932 107.585C135.699 107.509 135.505 107.395 135.349 107.204C135.155 106.975 134.999 106.708 134.921 106.441C134.806 106.021 134.728 105.602 134.767 105.182V103.389C134.767 102.97 134.806 102.55 134.921 102.168C134.999 101.901 135.155 101.634 135.349 101.405C135.505 101.215 135.738 101.1 135.932 101.024C136.166 100.948 136.398 100.91 136.632 100.91H138.07C138.265 100.91 138.42 100.91 138.615 100.948L139.159 101.024H139.198C139.276 101.024 139.391 100.986 139.469 100.948C139.547 100.91 139.586 100.795 139.547 100.719V99.5362C139.547 99.4217 139.547 99.3073 139.469 99.1929C139.354 99.0784 139.237 99.0403 139.12 99.0021Z" fill="white"/>
<path d="M147.437 107.929H146.387C146.232 107.929 146.115 107.929 145.959 107.89C145.882 107.89 145.804 107.814 145.726 107.738C145.648 107.623 145.648 107.509 145.609 107.395V100.757H147.398C147.514 100.757 147.592 100.719 147.67 100.642C147.748 100.566 147.787 100.49 147.787 100.375V99.231C147.787 99.1547 147.748 99.0402 147.67 98.9639C147.592 98.8877 147.514 98.8495 147.398 98.8495H145.648V96.8659C145.648 96.6751 145.532 96.5607 145.338 96.5607H145.26L143.432 96.8659C143.317 96.904 143.239 96.9422 143.161 96.9803C143.083 97.0566 143.044 97.1329 143.044 97.2473V98.8114H141.178C141.062 98.8114 140.984 98.8495 140.906 98.9258C140.829 99.0021 140.79 99.0784 140.79 99.1928V100.07C140.79 100.185 140.829 100.261 140.906 100.337C140.984 100.414 141.062 100.452 141.178 100.49L143.044 100.757V106.822C143.044 107.356 143.083 107.89 143.239 108.386C143.317 108.73 143.51 109.073 143.783 109.34C144.055 109.569 144.405 109.721 144.755 109.798C145.221 109.874 145.687 109.912 146.193 109.912C146.425 109.912 146.62 109.912 146.854 109.874C147.048 109.836 147.281 109.836 147.514 109.798C147.748 109.76 147.903 109.645 147.903 109.454V108.234C147.864 108.005 147.748 107.929 147.437 107.929Z" fill="white"/>
<path d="M157.311 100.109C156.884 99.6894 156.418 99.3461 155.834 99.1172C154.513 98.6213 153.074 98.6213 151.753 99.1172C151.209 99.3461 150.703 99.6894 150.276 100.109C149.887 100.567 149.576 101.063 149.382 101.635C149.187 102.245 149.07 102.894 149.07 103.542V105.106C149.07 105.755 149.187 106.403 149.382 107.014C149.576 107.586 149.887 108.082 150.276 108.54C150.664 108.959 151.17 109.302 151.753 109.531C153.074 110.027 154.513 110.027 155.834 109.531C156.379 109.302 156.884 108.959 157.311 108.54C157.7 108.082 158.011 107.586 158.205 107.014C158.4 106.403 158.517 105.755 158.517 105.106V103.542C158.517 102.894 158.4 102.245 158.205 101.635C158.011 101.063 157.7 100.567 157.311 100.109ZM155.912 105.106C155.951 105.793 155.756 106.441 155.368 107.014C154.629 107.853 153.308 107.967 152.414 107.204C152.336 107.128 152.258 107.09 152.219 107.014C151.831 106.441 151.636 105.793 151.675 105.106V103.542C151.636 102.856 151.831 102.207 152.219 101.635C152.958 100.796 154.279 100.681 155.173 101.444C155.251 101.521 155.329 101.559 155.368 101.635C155.756 102.207 155.951 102.856 155.912 103.542V105.106Z" fill="white"/>
<path d="M166.017 98.7351C165.551 98.7351 165.123 98.8114 164.695 98.9259C164.152 99.0784 163.645 99.3073 163.218 99.6506V99.231C163.218 99.0021 163.063 98.8496 162.829 98.8496H161.12C160.886 98.8496 160.73 99.0021 160.73 99.231V109.302C160.73 109.416 160.769 109.493 160.847 109.569C160.925 109.645 161.003 109.683 161.12 109.683H162.907C163.024 109.683 163.102 109.645 163.179 109.569C163.257 109.493 163.296 109.378 163.296 109.302V101.558C163.684 101.329 164.113 101.177 164.579 101.062C165.045 100.948 165.551 100.871 166.017 100.871C166.134 100.871 166.211 100.833 166.289 100.757C166.367 100.681 166.406 100.604 166.406 100.49V99.1166C166.406 99.0021 166.367 98.9259 166.289 98.8496C166.211 98.7733 166.134 98.7351 166.017 98.7351Z" fill="white"/>
</g>
<defs>
<clipPath id="clip0_254_547">
<rect width="259.55" height="110" fill="white" transform="translate(0 0.223633)"/>
</clipPath>
</defs>
</svg>
