<svg width="30" height="32" viewBox="0 0 30 32" fill="none" xmlns="http://www.w3.org/2000/svg">
<path d="M3.29916 28.8012L0.696625 0H29.3034L26.6974 28.7966L14.9826 32L3.29916 28.8012Z" fill="#1572B6"/>
<path d="M15 29.251L24.6704 26.6934L26.9453 2.38037H15V29.251Z" fill="#33A9DC"/>
<path d="M15 12.6897H19.8411L20.1749 9.11594H15V5.62573H15.013H24.1732L24.0857 6.56178L23.1872 16.18H15V12.6897Z" fill="white"/>
<path d="M15.0225 21.7533L15.006 21.7578L10.9319 20.7077L10.6715 17.9243H8.69119H6.99858L7.51112 23.4041L15.0047 25.3892L15.0225 25.3846V21.7533Z" fill="#EBEBEB"/>
<path d="M19.5298 16.0317L19.0895 20.7053L15.0094 21.7554V25.3868L22.5091 23.404L22.5647 22.8146L23.2003 16.0317H19.5298Z" fill="white"/>
<path d="M15.0131 5.62573V7.79372V9.1069V9.11594H6.1878H6.17596L6.10258 8.3312L5.93566 6.56178L5.84807 5.62573H15.0131Z" fill="#EBEBEB"/>
<path d="M15 12.6895V14.8574V16.1707V16.1797H10.9886H10.9768L10.9034 15.3949L10.7377 13.6256L10.6501 12.6895H15Z" fill="#EBEBEB"/>
</svg>
