<svg width="32" height="32" viewBox="0 0 32 32" fill="none" xmlns="http://www.w3.org/2000/svg">
<g clip-path="url(#clip0_334_470)">
<path fill-rule="evenodd" clip-rule="evenodd" d="M29.0991 0H2.90086C1.2988 0 0 1.2988 0 2.90086V29.0991C0 30.7012 1.2988 32 2.90086 32H29.0991C30.7012 32 32 30.7012 32 29.0991V2.90086C32 1.2988 30.7012 0 29.0991 0ZM10.6944 10.0681C11.7582 10.0681 12.6492 9.23431 12.6492 8.14158C12.6492 7.04958 11.7582 6.216 10.6944 6.216C9.63066 6.216 8.73977 7.04958 8.73977 8.14158C8.73977 9.23431 9.63066 10.0681 10.6944 10.0681ZM6.64109 20.3832C6.52631 20.8719 6.46861 21.3996 6.46861 21.8302C6.46861 23.5265 7.38849 24.6527 9.3434 24.6527C10.9647 24.6527 12.279 23.6898 13.2253 22.1353L12.6475 24.4544H15.8669L17.7069 17.0745C18.1668 15.2059 19.0579 14.2361 20.4092 14.2361C21.4729 14.2361 22.1341 14.8976 22.1341 15.9896C22.1341 16.3061 22.1052 16.6507 21.9903 17.0245L21.0415 20.4166C20.8977 20.9053 20.8405 21.3944 20.8405 21.8539C20.8405 23.4644 21.789 24.6423 23.7725 24.6423C25.4686 24.6423 26.8196 23.5504 27.5672 20.9343L26.3024 20.4459C25.6698 22.1987 25.1236 22.5155 24.6925 22.5155C24.2612 22.5155 24.0311 22.2283 24.0311 21.6536C24.0311 21.3949 24.0888 21.1078 24.1749 20.7621L25.095 17.4572C25.3249 16.6812 25.4113 15.9931 25.4113 15.3608C25.4113 12.8886 23.9162 11.5984 22.1052 11.5984C20.4092 11.5984 18.6842 13.1282 17.8221 14.7383L18.4543 11.8484H13.5387L12.8486 14.3938H15.1485L13.7324 20.0639C12.6201 22.5361 10.5772 22.5762 10.3208 22.5188C9.89987 22.4239 9.63068 22.264 9.63068 21.717C9.63068 21.4013 9.68813 20.948 9.83189 20.4013L11.9881 11.8484H6.52631L5.83624 14.3938H8.10716L6.64109 20.3832Z" fill="#FF2A63"/>
</g>
<defs>
<clipPath id="clip0_334_470">
<rect width="32" height="32" fill="white"/>
</clipPath>
</defs>
</svg>
