<svg width="602" height="77" viewBox="0 0 602 77" fill="none" xmlns="http://www.w3.org/2000/svg">
<rect x="0.5" y="0.723633" width="601" height="75.6667" rx="14.5" fill="#D63484" fill-opacity="0.2"/>
<rect x="0.5" y="0.723633" width="601" height="75.6667" rx="14.5" stroke="white"/>
<path d="M65.1364 54.1124C64.3726 54.1197 63.6429 54.4292 63.1067 54.9732C62.5705 55.5172 62.2715 56.2514 62.2752 57.0152C62.2789 57.779 62.5849 58.5103 63.1263 59.049C63.6677 59.5878 64.4004 59.8903 65.1642 59.8903C65.928 59.8903 66.6607 59.5878 67.2021 59.049C67.7435 58.5103 68.0495 57.779 68.0532 57.0152C68.0569 56.2514 67.7579 55.5172 67.2217 54.9732C66.6856 54.4292 65.9558 54.1197 65.192 54.1124H65.1364ZM65.1364 59.5596C64.6354 59.5679 64.1432 59.4275 63.7221 59.1561C63.3009 58.8847 62.9697 58.4945 62.7702 58.0349C62.5708 57.5752 62.5122 57.0668 62.6017 56.5738C62.6913 56.0809 62.925 55.6255 63.2734 55.2654C63.6217 54.9052 64.069 54.6565 64.5587 54.5506C65.0484 54.4447 65.5586 54.4863 66.0246 54.6703C66.4906 54.8543 66.8916 55.1724 67.1769 55.5843C67.4621 55.9962 67.6188 56.4834 67.6272 56.9844V57.0269C67.6412 57.6841 67.3937 58.32 66.939 58.7947C66.4843 59.2693 65.8596 59.544 65.2025 59.5583H65.1371M54.0465 53.3231H47.7689V43.492C47.7689 41.1477 47.727 38.1298 44.5038 38.1298C41.2342 38.1298 40.734 40.6841 40.734 43.3213V53.3224H34.4563V33.1057H40.4829V35.8686H40.5672C41.1703 34.8374 42.0418 33.989 43.0889 33.414C44.136 32.8389 45.3195 32.5586 46.5133 32.6029C52.876 32.6029 54.0491 36.788 54.0491 42.2326L54.0465 53.3231ZM27.373 30.3423C26.6525 30.3424 25.9481 30.1289 25.349 29.7287C24.7498 29.3285 24.2828 28.7596 24.0069 28.094C23.7311 27.4284 23.6588 26.6959 23.7992 25.9892C23.9397 25.2825 24.2865 24.6333 24.7959 24.1237C25.3053 23.6141 25.9544 23.2671 26.661 23.1264C27.3676 22.9857 28.1002 23.0577 28.7659 23.3333C29.4316 23.6089 30.0006 24.0757 30.401 24.6748C30.8014 25.2738 31.0152 25.9781 31.0154 26.6986C31.0154 27.177 30.9213 27.6507 30.7383 28.0928C30.5553 28.5348 30.287 28.9364 29.9488 29.2748C29.6106 29.6131 29.209 29.8815 28.7671 30.0647C28.3251 30.2479 27.8514 30.3422 27.373 30.3423ZM30.5118 53.3231H24.2276V33.1057H30.5118V53.3231ZM57.1762 17.2265H21.0731C20.2537 17.2173 19.4641 17.5337 18.8779 18.1064C18.2916 18.679 17.9567 19.4609 17.9467 20.2803V56.5332C17.9564 57.353 18.2911 58.1355 18.8773 58.7087C19.4635 59.2819 20.2533 59.599 21.0731 59.5903H57.1762C57.9977 59.6006 58.7897 59.2844 59.3782 58.7112C59.9667 58.138 60.3037 57.3547 60.315 56.5332V20.2777C60.3033 19.4567 59.9661 18.6738 59.3776 18.1012C58.7891 17.5286 57.9973 17.2131 57.1762 17.2239M65.5948 57.1845C65.7023 57.1856 65.8089 57.1646 65.9079 57.1227C66.007 57.0809 66.0964 57.0192 66.1706 56.9414C66.2448 56.8635 66.3022 56.7713 66.3392 56.6704C66.3763 56.5695 66.3923 56.462 66.3861 56.3547C66.3861 55.7662 66.031 55.485 65.3025 55.485H64.1254V58.5663H64.5681V57.2231H65.1122L65.1246 57.2394L65.9689 58.5663H66.4423L65.534 57.193L65.5948 57.1845ZM65.0828 56.8759H64.5695V55.8342H65.2201C65.5562 55.8342 65.9394 55.8891 65.9394 56.3292C65.9394 56.8353 65.5517 56.8759 65.0802 56.8759" fill="#2867B2"/>
<rect x="84.0532" y="18.5569" width="500" height="40" rx="4" fill="white" fill-opacity="0.85"/>
<path d="M123.691 44.0569V30.0709H125.131V35.8849H125.203C125.719 34.6969 126.643 34.1029 127.975 34.1029C128.983 34.1029 129.775 34.4269 130.351 35.0749C130.939 35.7229 131.233 36.6289 131.233 37.7929V44.0569H129.793V38.0809C129.793 37.1929 129.601 36.5269 129.217 36.0829C128.845 35.6269 128.293 35.3989 127.561 35.3989C126.889 35.3989 126.313 35.5669 125.833 35.9029C125.365 36.2269 125.131 36.6949 125.131 37.3069V44.0569H123.691ZM136.466 44.0569C135.974 44.0569 135.596 43.9189 135.332 43.6429C135.068 43.3549 134.936 42.9769 134.936 42.5089V35.5789H133.298V34.3189H134.234C134.546 34.3189 134.762 34.2589 134.882 34.1389C135.002 34.0069 135.062 33.7789 135.062 33.4549V31.6009H136.376V34.3189H138.518V35.5789H136.376V42.7969H138.374V44.0569H136.466ZM142.917 44.0569C142.425 44.0569 142.047 43.9189 141.783 43.6429C141.519 43.3549 141.387 42.9769 141.387 42.5089V35.5789H139.749V34.3189H140.685C140.997 34.3189 141.213 34.2589 141.333 34.1389C141.453 34.0069 141.513 33.7789 141.513 33.4549V31.6009H142.827V34.3189H144.969V35.5789H142.827V42.7969H144.825V44.0569H142.917ZM147.457 47.8369V34.3189H148.897V35.8849H148.969C149.473 34.6849 150.433 34.0849 151.849 34.0849C152.641 34.0849 153.331 34.2949 153.919 34.7149C154.519 35.1229 154.981 35.7109 155.305 36.4789C155.629 37.2469 155.791 38.1469 155.791 39.1789C155.791 40.2109 155.629 41.1169 155.305 41.8969C154.981 42.6649 154.519 43.2589 153.919 43.6789C153.331 44.0869 152.641 44.2909 151.849 44.2909C151.165 44.2909 150.583 44.1409 150.103 43.8409C149.635 43.5409 149.257 43.0909 148.969 42.4909H148.897V47.8369H147.457ZM151.453 42.9949C152.305 42.9949 152.983 42.7249 153.487 42.1849C153.991 41.6329 154.243 40.9009 154.243 39.9889V38.3689C154.243 37.4689 153.991 36.7489 153.487 36.2089C152.983 35.6569 152.305 35.3809 151.453 35.3809C150.745 35.3809 150.139 35.5609 149.635 35.9209C149.143 36.2809 148.897 36.7429 148.897 37.3069V40.9609C148.897 41.5849 149.137 42.0829 149.617 42.4549C150.109 42.8149 150.721 42.9949 151.453 42.9949ZM161.306 44.2909C160.454 44.2909 159.716 44.1289 159.092 43.8049C158.468 43.4689 157.928 42.9949 157.472 42.3829L158.516 41.5369C158.9 42.0409 159.326 42.4249 159.794 42.6889C160.262 42.9409 160.796 43.0669 161.396 43.0669C162.068 43.0669 162.59 42.9229 162.962 42.6349C163.334 42.3469 163.52 41.9449 163.52 41.4289C163.52 40.9969 163.382 40.6489 163.106 40.3849C162.83 40.1089 162.374 39.9289 161.738 39.8449L160.964 39.7369C158.888 39.4489 157.85 38.5129 157.85 36.9289C157.85 36.0049 158.168 35.3029 158.804 34.8229C159.452 34.3309 160.286 34.0849 161.306 34.0849C162.062 34.0849 162.71 34.2229 163.25 34.4989C163.802 34.7629 164.282 35.1469 164.69 35.6509L163.736 36.5149C163.484 36.1669 163.142 35.8789 162.71 35.6509C162.29 35.4229 161.792 35.3089 161.216 35.3089C160.58 35.3089 160.088 35.4469 159.74 35.7229C159.404 35.9989 159.236 36.3769 159.236 36.8569C159.236 37.3249 159.392 37.6729 159.704 37.9009C160.016 38.1289 160.502 38.3029 161.162 38.4229L161.918 38.5309C162.95 38.6749 163.706 38.9809 164.186 39.4489C164.666 39.9049 164.906 40.5109 164.906 41.2669C164.906 42.2029 164.582 42.9409 163.934 43.4809C163.298 44.0209 162.422 44.2909 161.306 44.2909ZM168.7 36.4069C168.34 36.4069 168.064 36.3169 167.872 36.1369C167.692 35.9449 167.602 35.6869 167.602 35.3629V35.1289C167.602 34.8049 167.692 34.5529 167.872 34.3729C168.064 34.1809 168.34 34.0849 168.7 34.0849C169.06 34.0849 169.33 34.1809 169.51 34.3729C169.702 34.5529 169.798 34.8049 169.798 35.1289V35.3629C169.798 35.6869 169.702 35.9449 169.51 36.1369C169.33 36.3169 169.06 36.4069 168.7 36.4069ZM168.7 44.2729C168.34 44.2729 168.064 44.1829 167.872 44.0029C167.692 43.8109 167.602 43.5529 167.602 43.2289V42.9949C167.602 42.6709 167.692 42.4189 167.872 42.2389C168.064 42.0469 168.34 41.9509 168.7 41.9509C169.06 41.9509 169.33 42.0469 169.51 42.2389C169.702 42.4189 169.798 42.6709 169.798 42.9949V43.2289C169.798 43.5529 169.702 43.8109 169.51 44.0029C169.33 44.1829 169.06 44.2729 168.7 44.2729ZM172.96 46.9189H171.664L176.596 30.0709H177.892L172.96 46.9189ZM178.04 46.9189H176.744L181.676 30.0709H182.972L178.04 46.9189ZM188.738 44.0569H186.974L184.364 34.3189H185.768L186.902 38.7829L187.892 42.8329H187.928L189.062 38.7829L190.358 34.3189H191.654L193.004 38.7829L194.156 42.8329H194.192L195.128 38.7829L196.28 34.3189H197.648L195.038 44.0569H193.256L191.816 39.1609L191.006 36.3349H190.97L190.178 39.1609L188.738 44.0569ZM203.24 44.0569H201.476L198.866 34.3189H200.27L201.404 38.7829L202.394 42.8329H202.43L203.564 38.7829L204.86 34.3189H206.156L207.506 38.7829L208.658 42.8329H208.694L209.63 38.7829L210.782 34.3189H212.15L209.54 44.0569H207.758L206.318 39.1609L205.508 36.3349H205.472L204.68 39.1609L203.24 44.0569ZM217.742 44.0569H215.978L213.368 34.3189H214.772L215.906 38.7829L216.896 42.8329H216.932L218.066 38.7829L219.362 34.3189H220.658L222.008 38.7829L223.16 42.8329H223.196L224.132 38.7829L225.284 34.3189H226.652L224.042 44.0569H222.26L220.82 39.1609L220.01 36.3349H219.974L219.182 39.1609L217.742 44.0569ZM229.287 44.2909C228.927 44.2909 228.651 44.2009 228.459 44.0209C228.279 43.8289 228.189 43.5709 228.189 43.2469V43.0129C228.189 42.6889 228.279 42.4369 228.459 42.2569C228.651 42.0649 228.927 41.9689 229.287 41.9689C229.647 41.9689 229.917 42.0649 230.097 42.2569C230.289 42.4369 230.385 42.6889 230.385 43.0129V43.2469C230.385 43.5709 230.289 43.8289 230.097 44.0209C229.917 44.2009 229.647 44.2909 229.287 44.2909ZM235.05 44.0569C234.558 44.0569 234.174 43.9189 233.898 43.6429C233.622 43.3549 233.484 42.9889 233.484 42.5449V30.0709H234.924V42.7969H236.364V44.0569H235.05ZM239.337 31.9609C239.037 31.9609 238.815 31.8889 238.671 31.7449C238.527 31.6009 238.455 31.4029 238.455 31.1509V30.9169C238.455 30.6649 238.527 30.4669 238.671 30.3229C238.815 30.1789 239.037 30.1069 239.337 30.1069C239.637 30.1069 239.859 30.1789 240.003 30.3229C240.147 30.4669 240.219 30.6649 240.219 30.9169V31.1509C240.219 31.4029 240.147 31.6009 240.003 31.7449C239.859 31.8889 239.637 31.9609 239.337 31.9609ZM240.039 44.0569H238.599V34.3189H240.039V44.0569ZM243.31 44.0569V34.3189H244.75V35.8849H244.822C245.338 34.6969 246.262 34.1029 247.594 34.1029C248.602 34.1029 249.394 34.4269 249.97 35.0749C250.558 35.7229 250.852 36.6289 250.852 37.7929V44.0569H249.412V38.0809C249.412 37.1929 249.22 36.5269 248.836 36.0829C248.464 35.6269 247.912 35.3989 247.18 35.3989C246.508 35.3989 245.932 35.5669 245.452 35.9029C244.984 36.2269 244.75 36.6949 244.75 37.3069V44.0569H243.31ZM255.455 44.0569H253.997V30.0709H255.455V38.9989H255.527L257.003 37.3429L259.865 34.3189H261.611L257.957 38.1709L261.971 44.0569H260.225L256.913 39.0709L255.455 40.5829V44.0569ZM267.249 44.2909C266.385 44.2909 265.623 44.0809 264.963 43.6609C264.303 43.2409 263.793 42.6469 263.433 41.8789C263.073 41.1109 262.893 40.2109 262.893 39.1789C262.893 38.1589 263.073 37.2649 263.433 36.4969C263.793 35.7289 264.297 35.1409 264.945 34.7329C265.605 34.3129 266.367 34.1029 267.231 34.1029C268.083 34.1029 268.821 34.3069 269.445 34.7149C270.081 35.1109 270.567 35.6689 270.903 36.3889C271.239 37.1089 271.407 37.9309 271.407 38.8549V39.5209H264.405V39.9889C264.405 40.8889 264.663 41.6209 265.179 42.1849C265.707 42.7489 266.421 43.0309 267.321 43.0309C267.945 43.0309 268.491 42.8809 268.959 42.5809C269.439 42.2809 269.805 41.8549 270.057 41.3029L271.083 42.0409C270.771 42.7249 270.279 43.2709 269.607 43.6789C268.935 44.0869 268.149 44.2909 267.249 44.2909ZM264.405 38.4409H269.859V38.2609C269.859 37.3729 269.613 36.6589 269.121 36.1189C268.641 35.5789 268.011 35.3089 267.231 35.3089C266.403 35.3089 265.725 35.5909 265.197 36.1549C264.669 36.7189 264.405 37.4449 264.405 38.3329V38.4409ZM277.243 44.2909C276.451 44.2909 275.755 44.0869 275.155 43.6789C274.567 43.2589 274.111 42.6649 273.787 41.8969C273.463 41.1169 273.301 40.2109 273.301 39.1789C273.301 38.1469 273.463 37.2469 273.787 36.4789C274.111 35.7109 274.567 35.1229 275.155 34.7149C275.755 34.2949 276.451 34.0849 277.243 34.0849C278.659 34.0849 279.619 34.6849 280.123 35.8849H280.195V30.0709H281.635V44.0569H280.195V42.4909H280.123C279.835 43.0909 279.451 43.5409 278.971 43.8409C278.503 44.1409 277.927 44.2909 277.243 44.2909ZM277.639 42.9949C278.371 42.9949 278.977 42.8149 279.457 42.4549C279.949 42.0829 280.195 41.5849 280.195 40.9609V37.3069C280.195 36.7429 279.943 36.2809 279.439 35.9209C278.947 35.5609 278.347 35.3809 277.639 35.3809C276.787 35.3809 276.109 35.6569 275.605 36.2089C275.101 36.7489 274.849 37.4689 274.849 38.3689V39.9889C274.849 40.9009 275.101 41.6329 275.605 42.1849C276.109 42.7249 276.787 42.9949 277.639 42.9949ZM285.638 31.9609C285.338 31.9609 285.116 31.8889 284.972 31.7449C284.828 31.6009 284.756 31.4029 284.756 31.1509V30.9169C284.756 30.6649 284.828 30.4669 284.972 30.3229C285.116 30.1789 285.338 30.1069 285.638 30.1069C285.938 30.1069 286.16 30.1789 286.304 30.3229C286.448 30.4669 286.52 30.6649 286.52 30.9169V31.1509C286.52 31.4029 286.448 31.6009 286.304 31.7449C286.16 31.8889 285.938 31.9609 285.638 31.9609ZM286.34 44.0569H284.9V34.3189H286.34V44.0569ZM289.611 44.0569V34.3189H291.051V35.8849H291.123C291.639 34.6969 292.563 34.1029 293.895 34.1029C294.903 34.1029 295.695 34.4269 296.271 35.0749C296.859 35.7229 297.153 36.6289 297.153 37.7929V44.0569H295.713V38.0809C295.713 37.1929 295.521 36.5269 295.137 36.0829C294.765 35.6269 294.213 35.3989 293.481 35.3989C292.809 35.3989 292.233 35.5669 291.753 35.9029C291.285 36.2269 291.051 36.6949 291.051 37.3069V44.0569H289.611ZM301.234 44.2909C300.874 44.2909 300.598 44.2009 300.406 44.0209C300.226 43.8289 300.136 43.5709 300.136 43.2469V43.0129C300.136 42.6889 300.226 42.4369 300.406 42.2569C300.598 42.0649 300.874 41.9689 301.234 41.9689C301.594 41.9689 301.864 42.0649 302.044 42.2569C302.236 42.4369 302.332 42.6889 302.332 43.0129V43.2469C302.332 43.5709 302.236 43.8289 302.044 44.0209C301.864 44.2009 301.594 44.2909 301.234 44.2909ZM308.856 44.2909C307.5 44.2909 306.438 43.8349 305.67 42.9229C304.902 41.9989 304.518 40.7509 304.518 39.1789C304.518 37.6069 304.902 36.3709 305.67 35.4709C306.438 34.5589 307.5 34.1029 308.856 34.1029C309.768 34.1029 310.524 34.3069 311.124 34.7149C311.724 35.1109 312.174 35.6569 312.474 36.3529L311.268 36.9649C311.076 36.4609 310.77 36.0709 310.35 35.7949C309.942 35.5189 309.444 35.3809 308.856 35.3809C307.956 35.3809 307.266 35.6569 306.786 36.2089C306.306 36.7489 306.066 37.4749 306.066 38.3869V39.9889C306.066 40.9129 306.306 41.6509 306.786 42.2029C307.266 42.7429 307.956 43.0129 308.856 43.0129C310.068 43.0129 310.956 42.4429 311.52 41.3029L312.564 41.9869C312.24 42.7069 311.76 43.2709 311.124 43.6789C310.5 44.0869 309.744 44.2909 308.856 44.2909ZM318.278 44.2909C317.414 44.2909 316.652 44.0809 315.992 43.6609C315.332 43.2409 314.816 42.6469 314.444 41.8789C314.084 41.0989 313.904 40.1989 313.904 39.1789C313.904 38.1589 314.084 37.2649 314.444 36.4969C314.816 35.7289 315.332 35.1349 315.992 34.7149C316.652 34.2949 317.414 34.0849 318.278 34.0849C319.142 34.0849 319.904 34.2949 320.564 34.7149C321.236 35.1349 321.752 35.7289 322.112 36.4969C322.484 37.2649 322.67 38.1589 322.67 39.1789C322.67 40.1989 322.484 41.0989 322.112 41.8789C321.752 42.6469 321.236 43.2409 320.564 43.6609C319.904 44.0809 319.142 44.2909 318.278 44.2909ZM318.278 43.0129C319.142 43.0129 319.832 42.7489 320.348 42.2209C320.864 41.6809 321.122 40.9009 321.122 39.8809V38.4949C321.122 37.4749 320.864 36.7009 320.348 36.1729C319.832 35.6329 319.142 35.3629 318.278 35.3629C317.426 35.3629 316.742 35.6329 316.226 36.1729C315.71 36.7009 315.452 37.4749 315.452 38.4949V39.8809C315.452 40.9009 315.71 41.6809 316.226 42.2209C316.742 42.7489 317.426 43.0129 318.278 43.0129ZM325.207 44.0569V34.3189H326.647V35.8849H326.719C326.971 35.3329 327.295 34.9009 327.691 34.5889C328.099 34.2649 328.657 34.1029 329.365 34.1029C330.049 34.1029 330.655 34.2649 331.183 34.5889C331.711 34.9129 332.101 35.4109 332.353 36.0829H332.389C332.581 35.4949 332.929 35.0209 333.433 34.6609C333.937 34.2889 334.579 34.1029 335.359 34.1029C336.367 34.1029 337.147 34.4269 337.699 35.0749C338.263 35.7109 338.545 36.6169 338.545 37.7929V44.0569H337.105V38.0809C337.105 37.1929 336.925 36.5269 336.565 36.0829C336.205 35.6269 335.653 35.3989 334.909 35.3989C334.261 35.3989 333.715 35.5669 333.271 35.9029C332.827 36.2269 332.605 36.6949 332.605 37.3069V44.0569H331.165V38.0809C331.165 37.1809 330.985 36.5089 330.625 36.0649C330.277 35.6209 329.737 35.3989 329.005 35.3989C328.357 35.3989 327.799 35.5669 327.331 35.9029C326.875 36.2269 326.647 36.6949 326.647 37.3069V44.0569H325.207ZM341.569 46.9189H340.273L345.205 30.0709H346.501L341.569 46.9189ZM349.657 31.9609C349.357 31.9609 349.135 31.8889 348.991 31.7449C348.847 31.6009 348.775 31.4029 348.775 31.1509V30.9169C348.775 30.6649 348.847 30.4669 348.991 30.3229C349.135 30.1789 349.357 30.1069 349.657 30.1069C349.957 30.1069 350.179 30.1789 350.323 30.3229C350.467 30.4669 350.539 30.6649 350.539 30.9169V31.1509C350.539 31.4029 350.467 31.6009 350.323 31.7449C350.179 31.8889 349.957 31.9609 349.657 31.9609ZM350.359 44.0569H348.919V34.3189H350.359V44.0569ZM353.631 44.0569V34.3189H355.071V35.8849H355.143C355.659 34.6969 356.583 34.1029 357.915 34.1029C358.923 34.1029 359.715 34.4269 360.291 35.0749C360.879 35.7229 361.173 36.6289 361.173 37.7929V44.0569H359.733V38.0809C359.733 37.1929 359.541 36.5269 359.157 36.0829C358.785 35.6269 358.233 35.3989 357.501 35.3989C356.829 35.3989 356.253 35.5669 355.773 35.9029C355.305 36.2269 355.071 36.6949 355.071 37.3069V44.0569H353.631ZM364.21 46.9189H362.914L367.846 30.0709H369.142L364.21 46.9189ZM373.868 44.2909C372.848 44.2909 372.05 44.0269 371.474 43.4989C370.91 42.9709 370.628 42.2509 370.628 41.3389C370.628 40.4149 370.97 39.7129 371.654 39.2329C372.338 38.7409 373.37 38.4949 374.75 38.4949H376.712V37.5229C376.712 36.8029 376.514 36.2569 376.118 35.8849C375.734 35.5129 375.152 35.3269 374.372 35.3269C373.28 35.3269 372.44 35.8189 371.852 36.8029L370.988 35.9929C371.276 35.4289 371.714 34.9729 372.302 34.6249C372.902 34.2649 373.616 34.0849 374.444 34.0849C375.608 34.0849 376.514 34.3729 377.162 34.9489C377.822 35.5249 378.152 36.3289 378.152 37.3609V42.7969H379.268V44.0569H378.494C377.498 44.0569 376.934 43.5289 376.802 42.4729H376.712C376.508 43.0609 376.154 43.5109 375.65 43.8229C375.158 44.1349 374.564 44.2909 373.868 44.2909ZM374.12 43.0669C374.864 43.0669 375.482 42.8929 375.974 42.5449C376.466 42.1849 376.712 41.7409 376.712 41.2129V39.5749H374.678C373.826 39.5749 373.19 39.7069 372.77 39.9709C372.35 40.2229 372.14 40.5949 372.14 41.0869V41.4829C372.14 41.9869 372.314 42.3769 372.662 42.6529C373.022 42.9289 373.508 43.0669 374.12 43.0669ZM384.39 44.2909C383.538 44.2909 382.8 44.1289 382.176 43.8049C381.552 43.4689 381.012 42.9949 380.556 42.3829L381.6 41.5369C381.984 42.0409 382.41 42.4249 382.878 42.6889C383.346 42.9409 383.88 43.0669 384.48 43.0669C385.152 43.0669 385.674 42.9229 386.046 42.6349C386.418 42.3469 386.604 41.9449 386.604 41.4289C386.604 40.9969 386.466 40.6489 386.19 40.3849C385.914 40.1089 385.458 39.9289 384.822 39.8449L384.048 39.7369C381.972 39.4489 380.934 38.5129 380.934 36.9289C380.934 36.0049 381.252 35.3029 381.888 34.8229C382.536 34.3309 383.37 34.0849 384.39 34.0849C385.146 34.0849 385.794 34.2229 386.334 34.4989C386.886 34.7629 387.366 35.1469 387.774 35.6509L386.82 36.5149C386.568 36.1669 386.226 35.8789 385.794 35.6509C385.374 35.4229 384.876 35.3089 384.3 35.3089C383.664 35.3089 383.172 35.4469 382.824 35.7229C382.488 35.9989 382.32 36.3769 382.32 36.8569C382.32 37.3249 382.476 37.6729 382.788 37.9009C383.1 38.1289 383.586 38.3029 384.246 38.4229L385.002 38.5309C386.034 38.6749 386.79 38.9809 387.27 39.4489C387.75 39.9049 387.99 40.5109 387.99 41.2669C387.99 42.2029 387.666 42.9409 387.018 43.4809C386.382 44.0209 385.506 44.2909 384.39 44.2909ZM390.668 44.0569V34.3189H392.108V35.8849H392.18C392.432 35.3329 392.756 34.9009 393.152 34.5889C393.56 34.2649 394.118 34.1029 394.826 34.1029C395.51 34.1029 396.116 34.2649 396.644 34.5889C397.172 34.9129 397.562 35.4109 397.814 36.0829H397.85C398.042 35.4949 398.39 35.0209 398.894 34.6609C399.398 34.2889 400.04 34.1029 400.82 34.1029C401.828 34.1029 402.608 34.4269 403.16 35.0749C403.724 35.7109 404.006 36.6169 404.006 37.7929V44.0569H402.566V38.0809C402.566 37.1929 402.386 36.5269 402.026 36.0829C401.666 35.6269 401.114 35.3989 400.37 35.3989C399.722 35.3989 399.176 35.5669 398.732 35.9029C398.288 36.2269 398.066 36.6949 398.066 37.3069V44.0569H396.626V38.0809C396.626 37.1809 396.446 36.5089 396.086 36.0649C395.738 35.6209 395.198 35.3989 394.466 35.3989C393.818 35.3989 393.26 35.5669 392.792 35.9029C392.336 36.2269 392.108 36.6949 392.108 37.3069V44.0569H390.668ZM409.622 44.2909C408.602 44.2909 407.804 44.0269 407.228 43.4989C406.664 42.9709 406.382 42.2509 406.382 41.3389C406.382 40.4149 406.724 39.7129 407.408 39.2329C408.092 38.7409 409.124 38.4949 410.504 38.4949H412.466V37.5229C412.466 36.8029 412.268 36.2569 411.872 35.8849C411.488 35.5129 410.906 35.3269 410.126 35.3269C409.034 35.3269 408.194 35.8189 407.606 36.8029L406.742 35.9929C407.03 35.4289 407.468 34.9729 408.056 34.6249C408.656 34.2649 409.37 34.0849 410.198 34.0849C411.362 34.0849 412.268 34.3729 412.916 34.9489C413.576 35.5249 413.906 36.3289 413.906 37.3609V42.7969H415.022V44.0569H414.248C413.252 44.0569 412.688 43.5289 412.556 42.4729H412.466C412.262 43.0609 411.908 43.5109 411.404 43.8229C410.912 44.1349 410.318 44.2909 409.622 44.2909ZM409.874 43.0669C410.618 43.0669 411.236 42.8929 411.728 42.5449C412.22 42.1849 412.466 41.7409 412.466 41.2129V39.5749H410.432C409.58 39.5749 408.944 39.7069 408.524 39.9709C408.104 40.2229 407.894 40.5949 407.894 41.0869V41.4829C407.894 41.9869 408.068 42.3769 408.416 42.6529C408.776 42.9289 409.262 43.0669 409.874 43.0669ZM419.712 44.2909C418.692 44.2909 417.894 44.0269 417.318 43.4989C416.754 42.9709 416.472 42.2509 416.472 41.3389C416.472 40.4149 416.814 39.7129 417.498 39.2329C418.182 38.7409 419.214 38.4949 420.594 38.4949H422.556V37.5229C422.556 36.8029 422.358 36.2569 421.962 35.8849C421.578 35.5129 420.996 35.3269 420.216 35.3269C419.124 35.3269 418.284 35.8189 417.696 36.8029L416.832 35.9929C417.12 35.4289 417.558 34.9729 418.146 34.6249C418.746 34.2649 419.46 34.0849 420.288 34.0849C421.452 34.0849 422.358 34.3729 423.006 34.9489C423.666 35.5249 423.996 36.3289 423.996 37.3609V42.7969H425.112V44.0569H424.338C423.342 44.0569 422.778 43.5289 422.646 42.4729H422.556C422.352 43.0609 421.998 43.5109 421.494 43.8229C421.002 44.1349 420.408 44.2909 419.712 44.2909ZM419.964 43.0669C420.708 43.0669 421.326 42.8929 421.818 42.5449C422.31 42.1849 422.556 41.7409 422.556 41.2129V39.5749H420.522C419.67 39.5749 419.034 39.7069 418.614 39.9709C418.194 40.2229 417.984 40.5949 417.984 41.0869V41.4829C417.984 41.9869 418.158 42.3769 418.506 42.6529C418.866 42.9289 419.352 43.0669 419.964 43.0669ZM431.838 39.0889H426.924V37.5409H431.838V39.0889ZM441.005 42.7969V44.0569H433.517V42.8509L439.097 35.5789H433.679V34.3189H440.843V35.3989L435.155 42.7969H441.005ZM447.482 39.0889H442.568V37.5409H447.482V39.0889ZM452.179 44.0569C453.175 43.3249 453.997 42.6349 454.645 41.9869C455.305 41.3269 455.851 40.6129 456.283 39.8449C456.715 39.0769 457.045 38.1949 457.273 37.1989L457.183 37.1629C456.451 38.4229 455.389 39.0529 453.997 39.0529C453.241 39.0529 452.569 38.8909 451.981 38.5669C451.393 38.2309 450.931 37.7569 450.595 37.1449C450.259 36.5209 450.091 35.8009 450.091 34.9849C450.091 34.1329 450.271 33.3769 450.631 32.7169C451.003 32.0569 451.513 31.5469 452.161 31.1869C452.821 30.8149 453.583 30.6289 454.447 30.6289C455.347 30.6289 456.127 30.8329 456.787 31.2409C457.447 31.6489 457.951 32.2369 458.299 33.0049C458.659 33.7609 458.839 34.6489 458.839 35.6689C458.839 36.9049 458.605 38.0749 458.137 39.1789C457.681 40.2709 457.093 41.2309 456.373 42.0589C455.653 42.8869 454.903 43.5529 454.123 44.0569H452.179ZM454.465 37.7749C455.365 37.7749 456.055 37.5289 456.535 37.0369C457.027 36.5449 457.273 35.8489 457.273 34.9489V34.7689C457.273 33.8689 457.027 33.1729 456.535 32.6809C456.043 32.1889 455.353 31.9429 454.465 31.9429C453.577 31.9429 452.887 32.1889 452.395 32.6809C451.903 33.1729 451.657 33.8689 451.657 34.7689V34.9489C451.657 35.8489 451.903 36.5449 452.395 37.0369C452.887 37.5289 453.577 37.7749 454.465 37.7749ZM466.163 44.2909C465.479 44.2909 464.897 44.1409 464.417 43.8409C463.949 43.5409 463.571 43.0909 463.283 42.4909H463.211V44.0569H461.771V30.0709H463.211V35.8849H463.283C463.787 34.6849 464.747 34.0849 466.163 34.0849C466.955 34.0849 467.645 34.2949 468.233 34.7149C468.833 35.1229 469.295 35.7109 469.619 36.4789C469.943 37.2469 470.105 38.1469 470.105 39.1789C470.105 40.2109 469.943 41.1169 469.619 41.8969C469.295 42.6649 468.833 43.2589 468.233 43.6789C467.645 44.0869 466.955 44.2909 466.163 44.2909ZM465.767 42.9949C466.619 42.9949 467.297 42.7249 467.801 42.1849C468.305 41.6329 468.557 40.9009 468.557 39.9889V38.3689C468.557 37.4689 468.305 36.7489 467.801 36.2089C467.297 35.6569 466.619 35.3809 465.767 35.3809C465.059 35.3809 464.453 35.5609 463.949 35.9209C463.457 36.2809 463.211 36.7429 463.211 37.3069V40.9609C463.211 41.5849 463.451 42.0829 463.931 42.4549C464.423 42.8149 465.035 42.9949 465.767 42.9949ZM476.052 36.4789C476.928 36.4789 477.6 36.2749 478.068 35.8669C478.548 35.4589 478.788 34.9249 478.788 34.2649V34.1209C478.788 33.4249 478.566 32.8969 478.122 32.5369C477.69 32.1649 477.102 31.9789 476.358 31.9789C475.686 31.9789 475.128 32.1229 474.684 32.4109C474.252 32.6989 473.892 33.1189 473.604 33.6709L472.488 32.7889C473.352 31.3489 474.654 30.6289 476.394 30.6289C477.15 30.6289 477.828 30.7609 478.428 31.0249C479.04 31.2889 479.52 31.6729 479.868 32.1769C480.216 32.6809 480.39 33.2749 480.39 33.9589C480.39 34.7749 480.156 35.4469 479.688 35.9749C479.22 36.4909 478.608 36.8449 477.852 37.0369V37.1269C478.644 37.2709 479.304 37.6249 479.832 38.1889C480.36 38.7529 480.624 39.5029 480.624 40.4389C480.624 41.1949 480.438 41.8669 480.066 42.4549C479.706 43.0309 479.184 43.4809 478.5 43.8049C477.828 44.1289 477.054 44.2909 476.178 44.2909C475.146 44.2909 474.3 44.0929 473.64 43.6969C472.98 43.2889 472.41 42.7429 471.93 42.0589L473.046 41.1769C473.418 41.7649 473.838 42.2089 474.306 42.5089C474.786 42.7969 475.404 42.9409 476.16 42.9409C477.096 42.9409 477.81 42.7249 478.302 42.2929C478.794 41.8489 479.04 41.2309 479.04 40.4389V40.2769C479.04 39.4849 478.794 38.8729 478.302 38.4409C477.81 38.0089 477.096 37.7929 476.16 37.7929H474.594V36.4789H476.052ZM488.092 44.2909C487.12 44.2909 486.292 44.1289 485.608 43.8049C484.924 43.4689 484.408 43.0129 484.06 42.4369C483.712 41.8609 483.538 41.2069 483.538 40.4749C483.538 39.6109 483.772 38.9089 484.24 38.3689C484.72 37.8169 485.374 37.4269 486.202 37.1989V37.0549C485.494 36.8269 484.936 36.4429 484.528 35.9029C484.132 35.3509 483.934 34.6969 483.934 33.9409C483.934 32.9329 484.3 32.1289 485.032 31.5289C485.776 30.9289 486.796 30.6289 488.092 30.6289C489.388 30.6289 490.402 30.9289 491.134 31.5289C491.878 32.1289 492.25 32.9329 492.25 33.9409C492.25 34.6969 492.046 35.3509 491.638 35.9029C491.242 36.4429 490.69 36.8269 489.982 37.0549V37.1989C490.81 37.4269 491.458 37.8169 491.926 38.3689C492.406 38.9089 492.646 39.6109 492.646 40.4749C492.646 41.2069 492.472 41.8609 492.124 42.4369C491.776 43.0129 491.26 43.4689 490.576 43.8049C489.892 44.1289 489.064 44.2909 488.092 44.2909ZM488.092 36.4969C488.92 36.4969 489.556 36.3169 490 35.9569C490.456 35.5849 490.684 35.0569 490.684 34.3729V34.0849C490.684 33.3889 490.456 32.8609 490 32.5009C489.556 32.1289 488.92 31.9429 488.092 31.9429C487.264 31.9429 486.622 32.1289 486.166 32.5009C485.722 32.8609 485.5 33.3889 485.5 34.0849V34.3729C485.5 35.0569 485.722 35.5849 486.166 35.9569C486.622 36.3169 487.264 36.4969 488.092 36.4969ZM488.092 42.9769C489.016 42.9769 489.736 42.7669 490.252 42.3469C490.78 41.9269 491.044 41.3329 491.044 40.5649V40.1689C491.044 39.4129 490.78 38.8249 490.252 38.4049C489.736 37.9729 489.016 37.7569 488.092 37.7569C487.168 37.7569 486.442 37.9729 485.914 38.4049C485.398 38.8249 485.14 39.4129 485.14 40.1689V40.5649C485.14 41.3329 485.398 41.9269 485.914 42.3469C486.442 42.7669 487.168 42.9769 488.092 42.9769ZM499.43 44.2909C496.418 44.2909 494.912 42.0169 494.912 37.4689C494.912 32.9089 496.418 30.6289 499.43 30.6289C502.442 30.6289 503.948 32.9089 503.948 37.4689C503.948 42.0169 502.442 44.2909 499.43 44.2909ZM499.43 42.9769C500.426 42.9769 501.164 42.5809 501.644 41.7889C502.124 40.9969 502.364 39.9049 502.364 38.5129V36.4069C502.364 35.0149 502.124 33.9229 501.644 33.1309C501.164 32.3389 500.426 31.9429 499.43 31.9429C498.434 31.9429 497.696 32.3389 497.216 33.1309C496.736 33.9229 496.496 35.0149 496.496 36.4069V38.5129C496.496 39.9049 496.736 40.9969 497.216 41.7889C497.696 42.5809 498.434 42.9769 499.43 42.9769ZM508.482 44.0569C509.478 43.3249 510.3 42.6349 510.948 41.9869C511.608 41.3269 512.154 40.6129 512.586 39.8449C513.018 39.0769 513.348 38.1949 513.576 37.1989L513.486 37.1629C512.754 38.4229 511.692 39.0529 510.3 39.0529C509.544 39.0529 508.872 38.8909 508.284 38.5669C507.696 38.2309 507.234 37.7569 506.898 37.1449C506.562 36.5209 506.394 35.8009 506.394 34.9849C506.394 34.1329 506.574 33.3769 506.934 32.7169C507.306 32.0569 507.816 31.5469 508.464 31.1869C509.124 30.8149 509.886 30.6289 510.75 30.6289C511.65 30.6289 512.43 30.8329 513.09 31.2409C513.75 31.6489 514.254 32.2369 514.602 33.0049C514.962 33.7609 515.142 34.6489 515.142 35.6689C515.142 36.9049 514.908 38.0749 514.44 39.1789C513.984 40.2709 513.396 41.2309 512.676 42.0589C511.956 42.8869 511.206 43.5529 510.426 44.0569H508.482ZM510.768 37.7749C511.668 37.7749 512.358 37.5289 512.838 37.0369C513.33 36.5449 513.576 35.8489 513.576 34.9489V34.7689C513.576 33.8689 513.33 33.1729 512.838 32.6809C512.346 32.1889 511.656 31.9429 510.768 31.9429C509.88 31.9429 509.19 32.1889 508.698 32.6809C508.206 33.1729 507.96 33.8689 507.96 34.7689V34.9489C507.96 35.8489 508.206 36.5449 508.698 37.0369C509.19 37.5289 509.88 37.7749 510.768 37.7749ZM519.82 44.0569C520.816 43.3249 521.638 42.6349 522.286 41.9869C522.946 41.3269 523.492 40.6129 523.924 39.8449C524.356 39.0769 524.686 38.1949 524.914 37.1989L524.824 37.1629C524.092 38.4229 523.03 39.0529 521.638 39.0529C520.882 39.0529 520.21 38.8909 519.622 38.5669C519.034 38.2309 518.572 37.7569 518.236 37.1449C517.9 36.5209 517.732 35.8009 517.732 34.9849C517.732 34.1329 517.912 33.3769 518.272 32.7169C518.644 32.0569 519.154 31.5469 519.802 31.1869C520.462 30.8149 521.224 30.6289 522.088 30.6289C522.988 30.6289 523.768 30.8329 524.428 31.2409C525.088 31.6489 525.592 32.2369 525.94 33.0049C526.3 33.7609 526.48 34.6489 526.48 35.6689C526.48 36.9049 526.246 38.0749 525.778 39.1789C525.322 40.2709 524.734 41.2309 524.014 42.0589C523.294 42.8869 522.544 43.5529 521.764 44.0569H519.82ZM522.106 37.7749C523.006 37.7749 523.696 37.5289 524.176 37.0369C524.668 36.5449 524.914 35.8489 524.914 34.9489V34.7689C524.914 33.8689 524.668 33.1729 524.176 32.6809C523.684 32.1889 522.994 31.9429 522.106 31.9429C521.218 31.9429 520.528 32.1889 520.036 32.6809C519.544 33.1729 519.298 33.8689 519.298 34.7689V34.9489C519.298 35.8489 519.544 36.5449 520.036 37.0369C520.528 37.5289 521.218 37.7749 522.106 37.7749ZM531.878 44.2909C530.858 44.2909 530.06 44.0269 529.484 43.4989C528.92 42.9709 528.638 42.2509 528.638 41.3389C528.638 40.4149 528.98 39.7129 529.664 39.2329C530.348 38.7409 531.38 38.4949 532.76 38.4949H534.722V37.5229C534.722 36.8029 534.524 36.2569 534.128 35.8849C533.744 35.5129 533.162 35.3269 532.382 35.3269C531.29 35.3269 530.45 35.8189 529.862 36.8029L528.998 35.9929C529.286 35.4289 529.724 34.9729 530.312 34.6249C530.912 34.2649 531.626 34.0849 532.454 34.0849C533.618 34.0849 534.524 34.3729 535.172 34.9489C535.832 35.5249 536.162 36.3289 536.162 37.3609V42.7969H537.278V44.0569H536.504C535.508 44.0569 534.944 43.5289 534.812 42.4729H534.722C534.518 43.0609 534.164 43.5109 533.66 43.8229C533.168 44.1349 532.574 44.2909 531.878 44.2909ZM532.13 43.0669C532.874 43.0669 533.492 42.8929 533.984 42.5449C534.476 42.1849 534.722 41.7409 534.722 41.2129V39.5749H532.688C531.836 39.5749 531.2 39.7069 530.78 39.9709C530.36 40.2229 530.15 40.5949 530.15 41.0869V41.4829C530.15 41.9869 530.324 42.3769 530.672 42.6529C531.032 42.9289 531.518 43.0669 532.13 43.0669ZM539.727 46.9189H538.431L543.363 30.0709H544.659L539.727 46.9189Z" fill="black"/>
</svg>
