<svg width="602" height="76" viewBox="0 0 602 76" fill="none" xmlns="http://www.w3.org/2000/svg">
<rect x="0.5" y="0.723633" width="601" height="74" rx="14.5" fill="#D63484" fill-opacity="0.2"/>
<rect x="0.5" y="0.723633" width="601" height="74" rx="14.5" stroke="white"/>
<g filter="url(#filter0_dd_254_723)">
<path d="M52.9551 32.1875H64.948C65.2175 32.1875 65.4843 32.2406 65.7333 32.3437C65.9822 32.4468 66.2084 32.598 66.399 32.7885C66.5895 32.9791 66.7407 33.2053 66.8438 33.4543C66.9469 33.7032 67 33.9701 67 34.2396V45.2752C67 47.2909 66.1993 49.2241 64.774 50.6494C63.3487 52.0747 61.4156 52.8754 59.3999 52.8754C57.3843 52.8754 55.4512 52.0747 54.0259 50.6494C52.6006 49.2241 51.7999 47.2909 51.7999 45.2752V33.2667C51.7995 33.1184 51.8297 32.9715 51.8886 32.8354C51.9476 32.6992 52.0339 32.5767 52.1423 32.4754C52.2508 32.3741 52.3789 32.2963 52.5187 32.2468C52.6586 32.1972 52.8071 32.177 52.9551 32.1875Z" fill="#5059C9"/>
<path d="M59.4307 29.4506C62.0751 29.4506 64.2188 27.3069 64.2188 24.6624C64.2188 22.018 62.0751 19.8743 59.4307 19.8743C56.7864 19.8743 54.6427 22.018 54.6427 24.6624C54.6427 27.3069 56.7864 29.4506 59.4307 29.4506Z" fill="#5059C9"/>
</g>
<g filter="url(#filter1_dd_254_723)">
<path d="M45.0321 29.4506C48.8181 29.4506 51.8874 26.3814 51.8874 22.5952C51.8874 18.809 48.8181 15.7397 45.0321 15.7397C41.246 15.7397 38.1768 18.809 38.1768 22.5952C38.1768 26.3814 41.246 29.4506 45.0321 29.4506Z" fill="#7B83EB"/>
<g style="mix-blend-mode:multiply" opacity="0.3">
<path d="M55.3132 32.1873H34.7626C34.4891 32.1912 34.2191 32.249 33.968 32.3574C33.7169 32.4657 33.4895 32.6224 33.299 32.8186C33.1084 33.0148 32.9584 33.2467 32.8574 33.5009C32.7565 33.7551 32.7066 34.0267 32.7106 34.3001V46.947C32.6525 48.6013 32.9281 50.2504 33.5211 51.7958C34.114 53.3413 35.0122 54.7515 36.1619 55.9424C37.3116 57.1333 38.6894 58.0804 40.2131 58.7272C41.7367 59.3741 43.375 59.7075 45.0303 59.7075C46.6856 59.7075 48.3239 59.3741 49.8476 58.7272C51.3712 58.0804 52.749 57.1333 53.8987 55.9424C55.0485 54.7515 55.9466 53.3413 56.5395 51.7958C57.1325 50.2504 57.4081 48.6013 57.35 46.947V34.3001C57.3582 33.7504 57.1486 33.2197 56.767 32.8239C56.3855 32.4281 55.8629 32.1992 55.3132 32.1873Z" fill="white"/>
</g>
<g style="mix-blend-mode:multiply" opacity="0.24">
<path d="M55.3156 32.187H34.765C34.4915 32.191 34.2215 32.2488 33.9704 32.3571C33.7192 32.4654 33.4919 32.6222 33.3013 32.8184C33.1108 33.0146 32.9608 33.2464 32.8598 33.5006C32.7589 33.7548 32.709 34.0264 32.713 34.2999V46.9468C32.6549 48.6011 32.9305 50.2501 33.5235 51.7956C34.1164 53.3411 35.0145 54.7513 36.1643 55.9422C37.314 57.133 38.6918 58.0801 40.2154 58.727C41.7391 59.3739 43.3774 59.7072 45.0327 59.7072C46.688 59.7072 48.3263 59.3739 49.85 58.727C51.3736 58.0801 52.7514 57.133 53.9011 55.9422C55.0508 54.7513 55.949 53.3411 56.5419 51.7956C57.1349 50.2501 57.4105 48.6011 57.3524 46.9468V34.2999C57.3606 33.7502 57.151 33.2195 56.7694 32.8237C56.3878 32.4279 55.8652 32.199 55.3156 32.187Z" fill="white"/>
</g>
<path d="M55.3132 32.1873H34.7626C34.4891 32.1912 34.2191 32.249 33.968 32.3574C33.7169 32.4657 33.4895 32.6224 33.299 32.8186C33.1084 33.0148 32.9584 33.2467 32.8574 33.5009C32.7565 33.7551 32.7066 34.0267 32.7106 34.3001V46.947C32.6525 48.6013 32.9281 50.2504 33.5211 51.7958C34.114 53.3413 35.0122 54.7515 36.1619 55.9424C37.3116 57.1333 38.6894 58.0804 40.2131 58.7272C41.7367 59.3741 43.375 59.7075 45.0303 59.7075C46.6856 59.7075 48.3239 59.3741 49.8476 58.7272C51.3712 58.0804 52.749 57.1333 53.8987 55.9424C55.0485 54.7515 55.9466 53.3413 56.5395 51.7958C57.1325 50.2504 57.4081 48.6013 57.35 46.947V34.3001C57.3582 33.7504 57.1486 33.2197 56.767 32.8239C56.3855 32.4281 55.8629 32.1992 55.3132 32.1873Z" fill="#7B83EB"/>
</g>
<g filter="url(#filter2_dd_254_723)">
<g style="mix-blend-mode:multiply" opacity="0.48">
<path d="M41.6178 25.3481H21.052C19.9187 25.3481 19 26.2669 19 27.4002V47.9666C19 49.0999 19.9187 50.0186 21.052 50.0186H41.6178C42.7511 50.0186 43.6698 49.0999 43.6698 47.9666V27.4002C43.6698 26.2669 42.7511 25.3481 41.6178 25.3481Z" fill="white"/>
</g>
<g style="mix-blend-mode:multiply" opacity="0.24">
<path d="M41.6178 25.3462H21.052C19.9187 25.3462 19 26.2649 19 27.3983V47.9646C19 49.0979 19.9187 50.0167 21.052 50.0167H41.6178C42.7511 50.0167 43.6698 49.0979 43.6698 47.9646V27.3983C43.6698 26.2649 42.7511 25.3462 41.6178 25.3462Z" fill="white"/>
</g>
<path d="M41.6178 25.3472H21.052C19.9187 25.3472 19 26.2659 19 27.3992V47.9656C19 49.0989 19.9187 50.0177 21.052 50.0177H41.6178C42.7511 50.0177 43.6698 49.0989 43.6698 47.9656V27.3992C43.6698 26.2659 42.7511 25.3472 41.6178 25.3472Z" fill="#4B53BC"/>
<path style="mix-blend-mode:soft-light" opacity="0.5" d="M41.6201 25.3474H21.0543C19.921 25.3474 19.0023 26.2662 19.0023 27.3995V47.9658C19.0023 49.0992 19.921 50.0179 21.0543 50.0179H41.6201C42.7534 50.0179 43.6722 49.0992 43.6722 47.9658V27.3995C43.6722 26.2662 42.7534 25.3474 41.6201 25.3474Z" fill="url(#paint0_linear_254_723)"/>
<path d="M36.7518 33.1146H32.6326V44.3022H29.9878V33.1146H25.9293V31.0017H36.7518V33.1146Z" fill="white"/>
</g>
<rect x="83" y="17.7236" width="500" height="40" rx="4" fill="white" fill-opacity="0.85"/>
<path d="M188.104 43.4576C187.084 43.4576 186.286 43.1936 185.71 42.6656C185.146 42.1376 184.864 41.4176 184.864 40.5056C184.864 39.5816 185.206 38.8796 185.89 38.3996C186.574 37.9076 187.606 37.6616 188.986 37.6616H190.948V36.6896C190.948 35.9696 190.75 35.4236 190.354 35.0516C189.97 34.6796 189.388 34.4936 188.608 34.4936C187.516 34.4936 186.676 34.9856 186.088 35.9696L185.224 35.1596C185.512 34.5956 185.95 34.1396 186.538 33.7916C187.138 33.4316 187.852 33.2516 188.68 33.2516C189.844 33.2516 190.75 33.5396 191.398 34.1156C192.058 34.6916 192.388 35.4956 192.388 36.5276V41.9636H193.504V43.2236H192.73C191.734 43.2236 191.17 42.6956 191.038 41.6396H190.948C190.744 42.2276 190.39 42.6776 189.886 42.9896C189.394 43.3016 188.8 43.4576 188.104 43.4576ZM188.356 42.2336C189.1 42.2336 189.718 42.0596 190.21 41.7116C190.702 41.3516 190.948 40.9076 190.948 40.3796V38.7416H188.914C188.062 38.7416 187.426 38.8736 187.006 39.1376C186.586 39.3896 186.376 39.7616 186.376 40.2536V40.6496C186.376 41.1536 186.55 41.5436 186.898 41.8196C187.258 42.0956 187.744 42.2336 188.356 42.2336ZM198.626 43.4576C197.774 43.4576 197.036 43.2956 196.412 42.9716C195.788 42.6356 195.248 42.1616 194.792 41.5496L195.836 40.7036C196.22 41.2076 196.646 41.5916 197.114 41.8556C197.582 42.1076 198.116 42.2336 198.716 42.2336C199.388 42.2336 199.91 42.0896 200.282 41.8016C200.654 41.5136 200.84 41.1116 200.84 40.5956C200.84 40.1636 200.702 39.8156 200.426 39.5516C200.15 39.2756 199.694 39.0956 199.058 39.0116L198.284 38.9036C196.208 38.6156 195.17 37.6796 195.17 36.0956C195.17 35.1716 195.488 34.4696 196.124 33.9896C196.772 33.4976 197.606 33.2516 198.626 33.2516C199.382 33.2516 200.03 33.3896 200.57 33.6656C201.122 33.9296 201.602 34.3136 202.01 34.8176L201.056 35.6816C200.804 35.3336 200.462 35.0456 200.03 34.8176C199.61 34.5896 199.112 34.4756 198.536 34.4756C197.9 34.4756 197.408 34.6136 197.06 34.8896C196.724 35.1656 196.556 35.5436 196.556 36.0236C196.556 36.4916 196.712 36.8396 197.024 37.0676C197.336 37.2956 197.822 37.4696 198.482 37.5896L199.238 37.6976C200.27 37.8416 201.026 38.1476 201.506 38.6156C201.986 39.0716 202.226 39.6776 202.226 40.4336C202.226 41.3696 201.902 42.1076 201.254 42.6476C200.618 43.1876 199.742 43.4576 198.626 43.4576ZM204.904 43.2236V33.4856H206.344V35.0516H206.416C206.668 34.4996 206.992 34.0676 207.388 33.7556C207.796 33.4316 208.354 33.2696 209.062 33.2696C209.746 33.2696 210.352 33.4316 210.88 33.7556C211.408 34.0796 211.798 34.5776 212.05 35.2496H212.086C212.278 34.6616 212.626 34.1876 213.13 33.8276C213.634 33.4556 214.276 33.2696 215.056 33.2696C216.064 33.2696 216.844 33.5936 217.396 34.2416C217.96 34.8776 218.242 35.7836 218.242 36.9596V43.2236H216.802V37.2476C216.802 36.3596 216.622 35.6936 216.262 35.2496C215.902 34.7936 215.35 34.5656 214.606 34.5656C213.958 34.5656 213.412 34.7336 212.968 35.0696C212.524 35.3936 212.302 35.8616 212.302 36.4736V43.2236H210.862V37.2476C210.862 36.3476 210.682 35.6756 210.322 35.2316C209.974 34.7876 209.434 34.5656 208.702 34.5656C208.054 34.5656 207.496 34.7336 207.028 35.0696C206.572 35.3936 206.344 35.8616 206.344 36.4736V43.2236H204.904ZM223.858 43.4576C222.838 43.4576 222.04 43.1936 221.464 42.6656C220.9 42.1376 220.618 41.4176 220.618 40.5056C220.618 39.5816 220.96 38.8796 221.644 38.3996C222.328 37.9076 223.36 37.6616 224.74 37.6616H226.702V36.6896C226.702 35.9696 226.504 35.4236 226.108 35.0516C225.724 34.6796 225.142 34.4936 224.362 34.4936C223.27 34.4936 222.43 34.9856 221.842 35.9696L220.978 35.1596C221.266 34.5956 221.704 34.1396 222.292 33.7916C222.892 33.4316 223.606 33.2516 224.434 33.2516C225.598 33.2516 226.504 33.5396 227.152 34.1156C227.812 34.6916 228.142 35.4956 228.142 36.5276V41.9636H229.258V43.2236H228.484C227.488 43.2236 226.924 42.6956 226.792 41.6396H226.702C226.498 42.2276 226.144 42.6776 225.64 42.9896C225.148 43.3016 224.554 43.4576 223.858 43.4576ZM224.11 42.2336C224.854 42.2336 225.472 42.0596 225.964 41.7116C226.456 41.3516 226.702 40.9076 226.702 40.3796V38.7416H224.668C223.816 38.7416 223.18 38.8736 222.76 39.1376C222.34 39.3896 222.13 39.7616 222.13 40.2536V40.6496C222.13 41.1536 222.304 41.5436 222.652 41.8196C223.012 42.0956 223.498 42.2336 224.11 42.2336ZM233.948 43.4576C232.928 43.4576 232.13 43.1936 231.554 42.6656C230.99 42.1376 230.708 41.4176 230.708 40.5056C230.708 39.5816 231.05 38.8796 231.734 38.3996C232.418 37.9076 233.45 37.6616 234.83 37.6616H236.792V36.6896C236.792 35.9696 236.594 35.4236 236.198 35.0516C235.814 34.6796 235.232 34.4936 234.452 34.4936C233.36 34.4936 232.52 34.9856 231.932 35.9696L231.068 35.1596C231.356 34.5956 231.794 34.1396 232.382 33.7916C232.982 33.4316 233.696 33.2516 234.524 33.2516C235.688 33.2516 236.594 33.5396 237.242 34.1156C237.902 34.6916 238.232 35.4956 238.232 36.5276V41.9636H239.348V43.2236H238.574C237.578 43.2236 237.014 42.6956 236.882 41.6396H236.792C236.588 42.2276 236.234 42.6776 235.73 42.9896C235.238 43.3016 234.644 43.4576 233.948 43.4576ZM234.2 42.2336C234.944 42.2336 235.562 42.0596 236.054 41.7116C236.546 41.3516 236.792 40.9076 236.792 40.3796V38.7416H234.758C233.906 38.7416 233.27 38.8736 232.85 39.1376C232.43 39.3896 232.22 39.7616 232.22 40.2536V40.6496C232.22 41.1536 232.394 41.5436 232.742 41.8196C233.102 42.0956 233.588 42.2336 234.2 42.2336ZM241.572 43.2236V33.4856H243.012V35.0516H243.084C243.336 34.4996 243.66 34.0676 244.056 33.7556C244.464 33.4316 245.022 33.2696 245.73 33.2696C246.414 33.2696 247.02 33.4316 247.548 33.7556C248.076 34.0796 248.466 34.5776 248.718 35.2496H248.754C248.946 34.6616 249.294 34.1876 249.798 33.8276C250.302 33.4556 250.944 33.2696 251.724 33.2696C252.732 33.2696 253.512 33.5936 254.064 34.2416C254.628 34.8776 254.91 35.7836 254.91 36.9596V43.2236H253.47V37.2476C253.47 36.3596 253.29 35.6936 252.93 35.2496C252.57 34.7936 252.018 34.5656 251.274 34.5656C250.626 34.5656 250.08 34.7336 249.636 35.0696C249.192 35.3936 248.97 35.8616 248.97 36.4736V43.2236H247.53V37.2476C247.53 36.3476 247.35 35.6756 246.99 35.2316C246.642 34.7876 246.102 34.5656 245.37 34.5656C244.722 34.5656 244.164 34.7336 243.696 35.0696C243.24 35.3936 243.012 35.8616 243.012 36.4736V43.2236H241.572ZM261.696 43.4576C260.832 43.4576 260.07 43.2476 259.41 42.8276C258.75 42.4076 258.234 41.8136 257.862 41.0456C257.502 40.2656 257.322 39.3656 257.322 38.3456C257.322 37.3256 257.502 36.4316 257.862 35.6636C258.234 34.8956 258.75 34.3016 259.41 33.8816C260.07 33.4616 260.832 33.2516 261.696 33.2516C262.56 33.2516 263.322 33.4616 263.982 33.8816C264.654 34.3016 265.17 34.8956 265.53 35.6636C265.902 36.4316 266.088 37.3256 266.088 38.3456C266.088 39.3656 265.902 40.2656 265.53 41.0456C265.17 41.8136 264.654 42.4076 263.982 42.8276C263.322 43.2476 262.56 43.4576 261.696 43.4576ZM261.696 42.1796C262.56 42.1796 263.25 41.9156 263.766 41.3876C264.282 40.8476 264.54 40.0676 264.54 39.0476V37.6616C264.54 36.6416 264.282 35.8676 263.766 35.3396C263.25 34.7996 262.56 34.5296 261.696 34.5296C260.844 34.5296 260.16 34.7996 259.644 35.3396C259.128 35.8676 258.87 36.6416 258.87 37.6616V39.0476C258.87 40.0676 259.128 40.8476 259.644 41.3876C260.16 41.9156 260.844 42.1796 261.696 42.1796ZM268.624 43.2236V29.2376H270.064V35.0516H270.136C270.652 33.8636 271.576 33.2696 272.908 33.2696C273.916 33.2696 274.708 33.5936 275.284 34.2416C275.872 34.8896 276.166 35.7956 276.166 36.9596V43.2236H274.726V37.2476C274.726 36.3596 274.534 35.6936 274.15 35.2496C273.778 34.7936 273.226 34.5656 272.494 34.5656C271.822 34.5656 271.246 34.7336 270.766 35.0696C270.298 35.3936 270.064 35.8616 270.064 36.4736V43.2236H268.624ZM281.795 43.4576C280.775 43.4576 279.977 43.1936 279.401 42.6656C278.837 42.1376 278.555 41.4176 278.555 40.5056C278.555 39.5816 278.897 38.8796 279.581 38.3996C280.265 37.9076 281.297 37.6616 282.677 37.6616H284.639V36.6896C284.639 35.9696 284.441 35.4236 284.045 35.0516C283.661 34.6796 283.079 34.4936 282.299 34.4936C281.207 34.4936 280.367 34.9856 279.779 35.9696L278.915 35.1596C279.203 34.5956 279.641 34.1396 280.229 33.7916C280.829 33.4316 281.543 33.2516 282.371 33.2516C283.535 33.2516 284.441 33.5396 285.089 34.1156C285.749 34.6916 286.079 35.4956 286.079 36.5276V41.9636H287.195V43.2236H286.421C285.425 43.2236 284.861 42.6956 284.729 41.6396H284.639C284.435 42.2276 284.081 42.6776 283.577 42.9896C283.085 43.3016 282.491 43.4576 281.795 43.4576ZM282.047 42.2336C282.791 42.2336 283.409 42.0596 283.901 41.7116C284.393 41.3516 284.639 40.9076 284.639 40.3796V38.7416H282.605C281.753 38.7416 281.117 38.8736 280.697 39.1376C280.277 39.3896 280.067 39.7616 280.067 40.2536V40.6496C280.067 41.1536 280.241 41.5436 280.589 41.8196C280.949 42.0956 281.435 42.2336 282.047 42.2336ZM289.419 43.2236V33.4856H290.859V35.0516H290.931C291.183 34.4996 291.507 34.0676 291.903 33.7556C292.311 33.4316 292.869 33.2696 293.577 33.2696C294.261 33.2696 294.867 33.4316 295.395 33.7556C295.923 34.0796 296.313 34.5776 296.565 35.2496H296.601C296.793 34.6616 297.141 34.1876 297.645 33.8276C298.149 33.4556 298.791 33.2696 299.571 33.2696C300.579 33.2696 301.359 33.5936 301.911 34.2416C302.475 34.8776 302.757 35.7836 302.757 36.9596V43.2236H301.317V37.2476C301.317 36.3596 301.137 35.6936 300.777 35.2496C300.417 34.7936 299.865 34.5656 299.121 34.5656C298.473 34.5656 297.927 34.7336 297.483 35.0696C297.039 35.3936 296.817 35.8616 296.817 36.4736V43.2236H295.377V37.2476C295.377 36.3476 295.197 35.6756 294.837 35.2316C294.489 34.7876 293.949 34.5656 293.217 34.5656C292.569 34.5656 292.011 34.7336 291.543 35.0696C291.087 35.3936 290.859 35.8616 290.859 36.4736V43.2236H289.419ZM309.544 43.4576C308.68 43.4576 307.918 43.2476 307.258 42.8276C306.598 42.4076 306.088 41.8136 305.728 41.0456C305.368 40.2776 305.188 39.3776 305.188 38.3456C305.188 37.3256 305.368 36.4316 305.728 35.6636C306.088 34.8956 306.592 34.3076 307.24 33.8996C307.9 33.4796 308.662 33.2696 309.526 33.2696C310.378 33.2696 311.116 33.4736 311.74 33.8816C312.376 34.2776 312.862 34.8356 313.198 35.5556C313.534 36.2756 313.702 37.0976 313.702 38.0216V38.6876H306.7V39.1556C306.7 40.0556 306.958 40.7876 307.474 41.3516C308.002 41.9156 308.716 42.1976 309.616 42.1976C310.24 42.1976 310.786 42.0476 311.254 41.7476C311.734 41.4476 312.1 41.0216 312.352 40.4696L313.378 41.2076C313.066 41.8916 312.574 42.4376 311.902 42.8456C311.23 43.2536 310.444 43.4576 309.544 43.4576ZM306.7 37.6076H312.154V37.4276C312.154 36.5396 311.908 35.8256 311.416 35.2856C310.936 34.7456 310.306 34.4756 309.526 34.4756C308.698 34.4756 308.02 34.7576 307.492 35.3216C306.964 35.8856 306.7 36.6116 306.7 37.4996V37.6076ZM319.537 43.4576C318.745 43.4576 318.049 43.2536 317.449 42.8456C316.861 42.4256 316.405 41.8316 316.081 41.0636C315.757 40.2836 315.595 39.3776 315.595 38.3456C315.595 37.3136 315.757 36.4136 316.081 35.6456C316.405 34.8776 316.861 34.2896 317.449 33.8816C318.049 33.4616 318.745 33.2516 319.537 33.2516C320.953 33.2516 321.913 33.8516 322.417 35.0516H322.489V29.2376H323.929V43.2236H322.489V41.6576H322.417C322.129 42.2576 321.745 42.7076 321.265 43.0076C320.797 43.3076 320.221 43.4576 319.537 43.4576ZM319.933 42.1616C320.665 42.1616 321.271 41.9816 321.751 41.6216C322.243 41.2496 322.489 40.7516 322.489 40.1276V36.4736C322.489 35.9096 322.237 35.4476 321.733 35.0876C321.241 34.7276 320.641 34.5476 319.933 34.5476C319.081 34.5476 318.403 34.8236 317.899 35.3756C317.395 35.9156 317.143 36.6356 317.143 37.5356V39.1556C317.143 40.0676 317.395 40.7996 317.899 41.3516C318.403 41.8916 319.081 42.1616 319.933 42.1616ZM331.244 43.4576C328.232 43.4576 326.726 41.1836 326.726 36.6356C326.726 32.0756 328.232 29.7956 331.244 29.7956C334.256 29.7956 335.762 32.0756 335.762 36.6356C335.762 41.1836 334.256 43.4576 331.244 43.4576ZM331.244 42.1436C332.24 42.1436 332.978 41.7476 333.458 40.9556C333.938 40.1636 334.178 39.0716 334.178 37.6796V35.5736C334.178 34.1816 333.938 33.0896 333.458 32.2976C332.978 31.5056 332.24 31.1096 331.244 31.1096C330.248 31.1096 329.51 31.5056 329.03 32.2976C328.55 33.0896 328.31 34.1816 328.31 35.5736V37.6796C328.31 39.0716 328.55 40.1636 329.03 40.9556C329.51 41.7476 330.248 42.1436 331.244 42.1436ZM338.352 43.2236V41.6756L342.708 37.6256C344.148 36.2696 344.868 35.0276 344.868 33.8996V33.6476C344.868 32.8796 344.652 32.2736 344.22 31.8296C343.8 31.3736 343.182 31.1456 342.366 31.1456C340.926 31.1456 339.996 31.9016 339.576 33.4136L338.226 32.8916C338.526 31.9916 339.012 31.2536 339.684 30.6776C340.368 30.0896 341.292 29.7956 342.456 29.7956C343.284 29.7956 343.998 29.9576 344.598 30.2816C345.21 30.6056 345.672 31.0556 345.984 31.6316C346.308 32.2076 346.47 32.8736 346.47 33.6296C346.47 34.5656 346.23 35.4116 345.75 36.1676C345.27 36.9116 344.562 37.7156 343.626 38.5796L339.99 41.8916H346.974V43.2236H338.352ZM358.564 41.8916V43.2236H349.888V41.8916H353.614V31.1456H353.488L350.122 34.2596L349.24 33.3056L352.768 30.0296H355.126V41.8916H358.564ZM368.03 45.4916C366.602 45.4916 365.342 45.1736 364.25 44.5376C363.17 43.9016 362.33 43.0016 361.73 41.8376C361.13 40.6616 360.83 39.3056 360.83 37.7696C360.83 36.2216 361.136 34.8476 361.748 33.6476C362.36 32.4476 363.224 31.5176 364.34 30.8576C365.456 30.1856 366.74 29.8496 368.192 29.8496C369.452 29.8496 370.604 30.1076 371.648 30.6236C372.704 31.1276 373.556 31.9256 374.204 33.0176C374.852 34.0976 375.176 35.4656 375.176 37.1216C375.176 38.5256 374.912 39.6776 374.384 40.5776C373.856 41.4656 373.04 41.9096 371.936 41.9096C371.36 41.9096 370.91 41.7656 370.586 41.4776C370.274 41.1776 370.088 40.7816 370.028 40.2896H369.938C369.422 41.3696 368.642 41.9096 367.598 41.9096C366.998 41.9096 366.446 41.7596 365.942 41.4596C365.45 41.1476 365.054 40.6796 364.754 40.0556C364.466 39.4316 364.322 38.6696 364.322 37.7696C364.322 36.8696 364.466 36.1076 364.754 35.4836C365.054 34.8476 365.45 34.3796 365.942 34.0796C366.446 33.7676 366.998 33.6116 367.598 33.6116C368.138 33.6116 368.588 33.7436 368.948 34.0076C369.32 34.2716 369.596 34.6196 369.776 35.0516H369.848V33.7736H371.09V39.5516C371.09 40.0196 371.174 40.3436 371.342 40.5236C371.51 40.7036 371.78 40.7936 372.152 40.7936C372.74 40.7936 373.19 40.4936 373.502 39.8936C373.826 39.2816 373.988 38.4356 373.988 37.3556V36.4916C373.988 35.3996 373.73 34.4336 373.214 33.5936C372.71 32.7416 372.014 32.0876 371.126 31.6316C370.25 31.1636 369.266 30.9296 368.174 30.9296C366.986 30.9296 365.924 31.2056 364.988 31.7576C364.064 32.2976 363.338 33.0416 362.81 33.9896C362.294 34.9376 362.036 35.9936 362.036 37.1576V38.2556C362.036 39.4436 362.288 40.5056 362.792 41.4416C363.296 42.3656 363.998 43.0856 364.898 43.6016C365.81 44.1296 366.86 44.3936 368.048 44.3936H372.422V45.4916H368.03ZM367.85 40.7216C368.498 40.7216 368.99 40.5596 369.326 40.2356C369.674 39.9116 369.848 39.4556 369.848 38.8676V36.5456C369.848 36.0296 369.674 35.6096 369.326 35.2856C368.99 34.9616 368.498 34.7996 367.85 34.7996C367.178 34.7996 366.674 34.9976 366.338 35.3936C366.002 35.7896 365.834 36.3356 365.834 37.0316V38.5076C365.834 39.1916 366.002 39.7316 366.338 40.1276C366.686 40.5236 367.19 40.7216 367.85 40.7216ZM381.684 43.4576C380.82 43.4576 380.058 43.2476 379.398 42.8276C378.738 42.4076 378.222 41.8136 377.85 41.0456C377.49 40.2656 377.31 39.3656 377.31 38.3456C377.31 37.3256 377.49 36.4316 377.85 35.6636C378.222 34.8956 378.738 34.3016 379.398 33.8816C380.058 33.4616 380.82 33.2516 381.684 33.2516C382.548 33.2516 383.31 33.4616 383.97 33.8816C384.642 34.3016 385.158 34.8956 385.518 35.6636C385.89 36.4316 386.076 37.3256 386.076 38.3456C386.076 39.3656 385.89 40.2656 385.518 41.0456C385.158 41.8136 384.642 42.4076 383.97 42.8276C383.31 43.2476 382.548 43.4576 381.684 43.4576ZM381.684 42.1796C382.548 42.1796 383.238 41.9156 383.754 41.3876C384.27 40.8476 384.528 40.0676 384.528 39.0476V37.6616C384.528 36.6416 384.27 35.8676 383.754 35.3396C383.238 34.7996 382.548 34.5296 381.684 34.5296C380.832 34.5296 380.148 34.7996 379.632 35.3396C379.116 35.8676 378.858 36.6416 378.858 37.6616V39.0476C378.858 40.0676 379.116 40.8476 379.632 41.3876C380.148 41.9156 380.832 42.1796 381.684 42.1796ZM391.763 43.4396C390.755 43.4396 389.957 43.1156 389.369 42.4676C388.793 41.8196 388.505 40.9136 388.505 39.7496V33.4856H389.945V39.4616C389.945 40.3496 390.131 41.0216 390.503 41.4776C390.887 41.9216 391.445 42.1436 392.177 42.1436C392.849 42.1436 393.419 41.9816 393.887 41.6576C394.367 41.3216 394.607 40.8476 394.607 40.2356V33.4856H396.047V43.2236H394.607V41.6576H394.535C394.019 42.8456 393.095 43.4396 391.763 43.4396ZM401.388 43.2236C400.896 43.2236 400.518 43.0856 400.254 42.8096C399.99 42.5216 399.858 42.1436 399.858 41.6756V34.7456H398.22V33.4856H399.156C399.468 33.4856 399.684 33.4256 399.804 33.3056C399.924 33.1736 399.984 32.9456 399.984 32.6216V30.7676H401.298V33.4856H403.44V34.7456H401.298V41.9636H403.296V43.2236H401.388ZM407.493 43.2236C407.001 43.2236 406.617 43.0856 406.341 42.8096C406.065 42.5216 405.927 42.1556 405.927 41.7116V29.2376H407.367V41.9636H408.807V43.2236H407.493ZM414.696 43.4576C413.832 43.4576 413.07 43.2476 412.41 42.8276C411.75 42.4076 411.234 41.8136 410.862 41.0456C410.502 40.2656 410.322 39.3656 410.322 38.3456C410.322 37.3256 410.502 36.4316 410.862 35.6636C411.234 34.8956 411.75 34.3016 412.41 33.8816C413.07 33.4616 413.832 33.2516 414.696 33.2516C415.56 33.2516 416.322 33.4616 416.982 33.8816C417.654 34.3016 418.17 34.8956 418.53 35.6636C418.902 36.4316 419.088 37.3256 419.088 38.3456C419.088 39.3656 418.902 40.2656 418.53 41.0456C418.17 41.8136 417.654 42.4076 416.982 42.8276C416.322 43.2476 415.56 43.4576 414.696 43.4576ZM414.696 42.1796C415.56 42.1796 416.25 41.9156 416.766 41.3876C417.282 40.8476 417.54 40.0676 417.54 39.0476V37.6616C417.54 36.6416 417.282 35.8676 416.766 35.3396C416.25 34.7996 415.56 34.5296 414.696 34.5296C413.844 34.5296 413.16 34.7996 412.644 35.3396C412.128 35.8676 411.87 36.6416 411.87 37.6616V39.0476C411.87 40.0676 412.128 40.8476 412.644 41.3876C413.16 41.9156 413.844 42.1796 414.696 42.1796ZM425.26 43.4576C424.396 43.4576 423.634 43.2476 422.974 42.8276C422.314 42.4076 421.798 41.8136 421.426 41.0456C421.066 40.2656 420.886 39.3656 420.886 38.3456C420.886 37.3256 421.066 36.4316 421.426 35.6636C421.798 34.8956 422.314 34.3016 422.974 33.8816C423.634 33.4616 424.396 33.2516 425.26 33.2516C426.124 33.2516 426.886 33.4616 427.546 33.8816C428.218 34.3016 428.734 34.8956 429.094 35.6636C429.466 36.4316 429.652 37.3256 429.652 38.3456C429.652 39.3656 429.466 40.2656 429.094 41.0456C428.734 41.8136 428.218 42.4076 427.546 42.8276C426.886 43.2476 426.124 43.4576 425.26 43.4576ZM425.26 42.1796C426.124 42.1796 426.814 41.9156 427.33 41.3876C427.846 40.8476 428.104 40.0676 428.104 39.0476V37.6616C428.104 36.6416 427.846 35.8676 427.33 35.3396C426.814 34.7996 426.124 34.5296 425.26 34.5296C424.408 34.5296 423.724 34.7996 423.208 35.3396C422.692 35.8676 422.434 36.6416 422.434 37.6616V39.0476C422.434 40.0676 422.692 40.8476 423.208 41.3876C423.724 41.9156 424.408 42.1796 425.26 42.1796ZM433.629 43.2236H432.171V29.2376H433.629V38.1656H433.701L435.177 36.5096L438.039 33.4856H439.785L436.131 37.3376L440.145 43.2236H438.399L435.087 38.2376L433.629 39.7496V43.2236ZM443.003 43.4576C442.643 43.4576 442.367 43.3676 442.175 43.1876C441.995 42.9956 441.905 42.7376 441.905 42.4136V42.1796C441.905 41.8556 441.995 41.6036 442.175 41.4236C442.367 41.2316 442.643 41.1356 443.003 41.1356C443.363 41.1356 443.633 41.2316 443.813 41.4236C444.005 41.6036 444.101 41.8556 444.101 42.1796V42.4136C444.101 42.7376 444.005 42.9956 443.813 43.1876C443.633 43.3676 443.363 43.4576 443.003 43.4576ZM450.625 43.4576C449.269 43.4576 448.207 43.0016 447.439 42.0896C446.671 41.1656 446.287 39.9176 446.287 38.3456C446.287 36.7736 446.671 35.5376 447.439 34.6376C448.207 33.7256 449.269 33.2696 450.625 33.2696C451.537 33.2696 452.293 33.4736 452.893 33.8816C453.493 34.2776 453.943 34.8236 454.243 35.5196L453.037 36.1316C452.845 35.6276 452.539 35.2376 452.119 34.9616C451.711 34.6856 451.213 34.5476 450.625 34.5476C449.725 34.5476 449.035 34.8236 448.555 35.3756C448.075 35.9156 447.835 36.6416 447.835 37.5536V39.1556C447.835 40.0796 448.075 40.8176 448.555 41.3696C449.035 41.9096 449.725 42.1796 450.625 42.1796C451.837 42.1796 452.725 41.6096 453.289 40.4696L454.333 41.1536C454.009 41.8736 453.529 42.4376 452.893 42.8456C452.269 43.2536 451.513 43.4576 450.625 43.4576ZM460.047 43.4576C459.183 43.4576 458.421 43.2476 457.761 42.8276C457.101 42.4076 456.585 41.8136 456.213 41.0456C455.853 40.2656 455.673 39.3656 455.673 38.3456C455.673 37.3256 455.853 36.4316 456.213 35.6636C456.585 34.8956 457.101 34.3016 457.761 33.8816C458.421 33.4616 459.183 33.2516 460.047 33.2516C460.911 33.2516 461.673 33.4616 462.333 33.8816C463.005 34.3016 463.521 34.8956 463.881 35.6636C464.253 36.4316 464.439 37.3256 464.439 38.3456C464.439 39.3656 464.253 40.2656 463.881 41.0456C463.521 41.8136 463.005 42.4076 462.333 42.8276C461.673 43.2476 460.911 43.4576 460.047 43.4576ZM460.047 42.1796C460.911 42.1796 461.601 41.9156 462.117 41.3876C462.633 40.8476 462.891 40.0676 462.891 39.0476V37.6616C462.891 36.6416 462.633 35.8676 462.117 35.3396C461.601 34.7996 460.911 34.5296 460.047 34.5296C459.195 34.5296 458.511 34.7996 457.995 35.3396C457.479 35.8676 457.221 36.6416 457.221 37.6616V39.0476C457.221 40.0676 457.479 40.8476 457.995 41.3876C458.511 41.9156 459.195 42.1796 460.047 42.1796ZM466.976 43.2236V33.4856H468.416V35.0516H468.488C468.74 34.4996 469.064 34.0676 469.46 33.7556C469.868 33.4316 470.426 33.2696 471.134 33.2696C471.818 33.2696 472.424 33.4316 472.952 33.7556C473.48 34.0796 473.87 34.5776 474.122 35.2496H474.158C474.35 34.6616 474.698 34.1876 475.202 33.8276C475.706 33.4556 476.348 33.2696 477.128 33.2696C478.136 33.2696 478.916 33.5936 479.468 34.2416C480.032 34.8776 480.314 35.7836 480.314 36.9596V43.2236H478.874V37.2476C478.874 36.3596 478.694 35.6936 478.334 35.2496C477.974 34.7936 477.422 34.5656 476.678 34.5656C476.03 34.5656 475.484 34.7336 475.04 35.0696C474.596 35.3936 474.374 35.8616 474.374 36.4736V43.2236H472.934V37.2476C472.934 36.3476 472.754 35.6756 472.394 35.2316C472.046 34.7876 471.506 34.5656 470.774 34.5656C470.126 34.5656 469.568 34.7336 469.1 35.0696C468.644 35.3936 468.416 35.8616 468.416 36.4736V43.2236H466.976Z" fill="black"/>
<defs>
<filter id="filter0_dd_254_723" x="46.3695" y="17.547" width="26.8367" height="43.862" filterUnits="userSpaceOnUse" color-interpolation-filters="sRGB">
<feFlood flood-opacity="0" result="BackgroundImageFix"/>
<feColorMatrix in="SourceAlpha" type="matrix" values="0 0 0 0 0 0 0 0 0 0 0 0 0 0 0 0 0 0 127 0" result="hardAlpha"/>
<feOffset dx="2.32731" dy="2.32731"/>
<feGaussianBlur stdDeviation="1.93943"/>
<feComposite in2="hardAlpha" operator="out"/>
<feColorMatrix type="matrix" values="0 0 0 0 0 0 0 0 0 0 0 0 0 0 0 0 0 0 0.25 0"/>
<feBlend mode="normal" in2="BackgroundImageFix" result="effect1_dropShadow_254_723"/>
<feColorMatrix in="SourceAlpha" type="matrix" values="0 0 0 0 0 0 0 0 0 0 0 0 0 0 0 0 0 0 127 0" result="hardAlpha"/>
<feOffset dy="3.10308"/>
<feGaussianBlur stdDeviation="2.7152"/>
<feComposite in2="hardAlpha" operator="out"/>
<feColorMatrix type="matrix" values="0 0 0 0 0 0 0 0 0 0 0 0 0 0 0 0 0 0 0.15 0"/>
<feBlend mode="normal" in2="effect1_dropShadow_254_723" result="effect2_dropShadow_254_723"/>
<feBlend mode="normal" in="SourceGraphic" in2="effect2_dropShadow_254_723" result="shape"/>
</filter>
<filter id="filter1_dd_254_723" x="27.2726" y="13.4124" width="36.2935" height="54.8286" filterUnits="userSpaceOnUse" color-interpolation-filters="sRGB">
<feFlood flood-opacity="0" result="BackgroundImageFix"/>
<feColorMatrix in="SourceAlpha" type="matrix" values="0 0 0 0 0 0 0 0 0 0 0 0 0 0 0 0 0 0 127 0" result="hardAlpha"/>
<feOffset dx="2.32731" dy="2.32731"/>
<feGaussianBlur stdDeviation="1.93943"/>
<feComposite in2="hardAlpha" operator="out"/>
<feColorMatrix type="matrix" values="0 0 0 0 0 0 0 0 0 0 0 0 0 0 0 0 0 0 0.25 0"/>
<feBlend mode="normal" in2="BackgroundImageFix" result="effect1_dropShadow_254_723"/>
<feColorMatrix in="SourceAlpha" type="matrix" values="0 0 0 0 0 0 0 0 0 0 0 0 0 0 0 0 0 0 127 0" result="hardAlpha"/>
<feOffset dy="3.10308"/>
<feGaussianBlur stdDeviation="2.7152"/>
<feComposite in2="hardAlpha" operator="out"/>
<feColorMatrix type="matrix" values="0 0 0 0 0 0 0 0 0 0 0 0 0 0 0 0 0 0 0.15 0"/>
<feBlend mode="normal" in2="effect1_dropShadow_254_723" result="effect2_dropShadow_254_723"/>
<feBlend mode="normal" in="SourceGraphic" in2="effect2_dropShadow_254_723" result="shape"/>
</filter>
<filter id="filter2_dd_254_723" x="13.5696" y="23.0189" width="36.3087" height="35.5331" filterUnits="userSpaceOnUse" color-interpolation-filters="sRGB">
<feFlood flood-opacity="0" result="BackgroundImageFix"/>
<feColorMatrix in="SourceAlpha" type="matrix" values="0 0 0 0 0 0 0 0 0 0 0 0 0 0 0 0 0 0 127 0" result="hardAlpha"/>
<feOffset dx="2.32731" dy="2.32731"/>
<feGaussianBlur stdDeviation="1.93943"/>
<feComposite in2="hardAlpha" operator="out"/>
<feColorMatrix type="matrix" values="0 0 0 0 0 0 0 0 0 0 0 0 0 0 0 0 0 0 0.25 0"/>
<feBlend mode="normal" in2="BackgroundImageFix" result="effect1_dropShadow_254_723"/>
<feColorMatrix in="SourceAlpha" type="matrix" values="0 0 0 0 0 0 0 0 0 0 0 0 0 0 0 0 0 0 127 0" result="hardAlpha"/>
<feOffset dy="3.10308"/>
<feGaussianBlur stdDeviation="2.7152"/>
<feComposite in2="hardAlpha" operator="out"/>
<feColorMatrix type="matrix" values="0 0 0 0 0 0 0 0 0 0 0 0 0 0 0 0 0 0 0.15 0"/>
<feBlend mode="normal" in2="effect1_dropShadow_254_723" result="effect2_dropShadow_254_723"/>
<feBlend mode="normal" in="SourceGraphic" in2="effect2_dropShadow_254_723" result="shape"/>
</filter>
<linearGradient id="paint0_linear_254_723" x1="23.2888" y1="23.7362" x2="39.3864" y2="51.6136" gradientUnits="userSpaceOnUse">
<stop stop-color="white" stop-opacity="0.5"/>
<stop offset="1" stop-opacity="0.7"/>
</linearGradient>
</defs>
</svg>
