<svg width="32" height="32" viewBox="0 0 32 32" fill="none" xmlns="http://www.w3.org/2000/svg">
<g clip-path="url(#clip0_360_385)">
<mask id="mask0_360_385" style="mask-type:luminance" maskUnits="userSpaceOnUse" x="0" y="0" width="32" height="32">
<path d="M32 0H0V31.5616H32V0Z" fill="white"/>
</mask>
<g mask="url(#mask0_360_385)">
<path d="M1.33331 1.70972H30.6667V29.8523H1.33331V1.70972Z" fill="url(#paint0_radial_360_385)"/>
<path d="M1.33332 1.70958H30.6668V29.8521H1.33332V1.70958ZM0 31.1672H32.0001V0.394531H0V31.1672ZM21.5734 13.0192C20.52 13.0192 20.1601 13.5452 20.1601 13.9792C20.1601 14.4526 20.4 14.7814 21.8134 15.5047C23.9067 16.5041 24.5601 17.4641 24.5601 18.8713C24.5601 20.9753 22.9334 22.1063 20.7334 22.1063C19.5734 22.1063 18.5733 21.8696 18 21.5409C17.9067 21.5014 17.8934 21.4357 17.8934 21.3304V19.3973C17.8934 19.2658 17.96 19.2263 18.0534 19.2921C18.8934 19.8313 19.8534 20.068 20.7334 20.068C21.7868 20.068 22.2268 19.634 22.2268 19.0422C22.2268 18.5688 21.92 18.148 20.5733 17.4641C18.68 16.5699 17.8934 15.6625 17.8934 14.1502C17.8934 12.4537 19.2401 11.0466 21.5734 11.0466C22.72 11.0466 23.52 11.2176 23.96 11.4148C24.0667 11.4805 24.0934 11.5857 24.0934 11.6778V13.4794C24.0934 13.5846 24.0267 13.6504 23.8933 13.6109C23.3067 13.2428 22.44 13.0192 21.5734 13.0192ZM10.1067 14.5841C10.4133 14.6104 10.6534 14.6104 11.1867 14.6104C12.7468 14.6104 14.2134 14.0713 14.2134 11.9803C14.2134 10.3102 13.16 9.46849 11.3867 9.46849C10.8534 9.46849 10.3467 9.49479 10.1067 9.50794V14.5841ZM7.73338 7.60109C7.73338 7.50903 7.92009 7.44324 8.02667 7.44324C8.88004 7.40383 10.1467 7.37753 11.4667 7.37753C15.16 7.37753 16.6 9.37643 16.6 11.9277C16.6 15.2679 14.1467 16.7014 11.1334 16.7014C10.6267 16.7014 10.4534 16.6751 10.0933 16.6751V21.725C10.0933 21.8301 10.0533 21.8827 9.93338 21.8827H7.89338C7.78671 21.8827 7.73333 21.8433 7.73333 21.725L7.73338 7.60109Z" fill="#31C5F0"/>
</g>
</g>
<defs>
<radialGradient id="paint0_radial_360_385" cx="0" cy="0" r="1" gradientUnits="userSpaceOnUse" gradientTransform="translate(10.9943 8.0165) scale(22.2934 21.2884)">
<stop stop-color="#34364E" stop-opacity="0.98"/>
<stop offset="1" stop-color="#0C0824"/>
</radialGradient>
<clipPath id="clip0_360_385">
<rect width="32" height="31.5616" fill="white"/>
</clipPath>
</defs>
</svg>
