<svg width="32" height="32" viewBox="0 0 32 32" fill="none" xmlns="http://www.w3.org/2000/svg">
<path d="M5.51809 5.61026C6.55565 6.41885 6.94488 6.35717 8.89315 6.23248L27.2609 5.1745C27.6504 5.1745 27.3264 4.80167 27.1967 4.73969L24.146 2.62426C23.5616 2.18896 22.7828 1.69043 21.2904 1.81513L3.50486 3.05955C2.85628 3.12122 2.72671 3.43234 2.98503 3.68172L5.51809 5.61026ZM6.62082 9.71652V28.2557C6.62082 29.252 7.13988 29.6248 8.30809 29.5632L28.4942 28.4428C29.663 28.3811 29.7932 27.6956 29.7932 26.8864V8.47163C29.7932 7.66354 29.4693 7.22774 28.7536 7.28996L7.65894 8.47163C6.88048 8.53435 6.62082 8.90793 6.62082 9.71652ZM26.5486 10.711C26.678 11.2715 26.5486 11.8315 25.9632 11.8945L24.9906 12.0804V25.7671C24.146 26.2025 23.3674 26.4514 22.7185 26.4514C21.6796 26.4514 21.4194 26.1401 20.6412 25.2074L14.2793 15.6266V24.8964L16.2924 25.3321C16.2924 25.3321 16.2924 26.4514 14.6682 26.4514L10.1906 26.7005C10.0606 26.4514 10.1906 25.8299 10.6448 25.7052L11.8133 25.3947V13.1384L10.1909 13.0136C10.0608 12.4532 10.3848 11.6451 11.2942 11.5823L16.0976 11.2718L22.7185 20.9773V12.3914L21.0304 12.2056C20.9009 11.5204 21.4194 11.0229 22.0686 10.9612L26.5486 10.711ZM2.01158 1.37984L20.5114 0.0729785C22.7832 -0.11394 23.3676 0.011265 24.7956 1.00627L30.7008 4.98784C31.6753 5.67248 32 5.8589 32 6.60527V28.4428C32 29.8111 31.4804 30.6206 29.6632 30.7444L8.1796 31.989C6.81557 32.0514 6.16642 31.8648 5.4521 30.9933L1.10329 25.5807C0.324048 24.5845 0 23.839 0 22.967V3.55653C0 2.43733 0.519848 1.50379 2.01158 1.37984Z" fill="black"/>
</svg>
