<svg width="166" height="111" viewBox="0 0 166 111" fill="none" xmlns="http://www.w3.org/2000/svg">
<mask id="mask0_254_428" style="mask-type:luminance" maskUnits="userSpaceOnUse" x="0" y="0" width="166" height="111">
<path d="M165.607 0.223633H0.120361V110.224H165.607V0.223633Z" fill="white"/>
</mask>
<g mask="url(#mask0_254_428)">
<path d="M22.4546 23.7052H20.4888V6.62791H22.4546V23.7052ZM38.5256 19.0764C38.5256 22.006 36.0377 23.9121 32.5836 23.9121C29.9388 23.9408 27.3861 22.9606 25.4644 21.1785L26.6862 19.7626C27.4627 20.5451 28.3919 21.1663 29.4186 21.5891C30.4452 22.0119 31.548 22.2279 32.6615 22.224C34.9938 22.224 36.5375 21.0042 36.5375 19.316C36.5375 17.726 35.6712 16.822 32.0061 16.0487C28.0078 15.1883 26.1641 13.8705 26.1641 11.115C26.1641 8.42495 28.5743 6.45366 31.884 6.45366C34.1184 6.39026 36.298 7.13887 38.0037 8.55564L36.893 10.0368C35.5017 8.84685 33.719 8.18939 31.8729 8.18533C29.6515 8.18533 28.1634 9.40513 28.1634 10.9408C28.1634 12.5418 29.0629 13.4457 32.8947 14.2081C36.7263 14.9705 38.559 16.3863 38.559 19.0438L38.5256 19.0764ZM56.0294 6.34474C54.8508 6.33577 53.6821 6.55864 52.5927 7.00017C51.5032 7.4417 50.5152 8.09294 49.6867 8.91537C48.8584 9.73781 48.2066 10.7148 47.7699 11.7885C47.3331 12.8622 47.1205 14.0108 47.1443 15.1665V15.221C47.148 16.3652 47.3814 17.4974 47.8312 18.5532C48.2811 19.6089 48.9387 20.5674 49.7663 21.3739C50.5939 22.1805 51.5755 22.8192 52.6548 23.2539C53.7343 23.6884 54.8905 23.9102 56.0573 23.9066C57.224 23.903 58.3788 23.6741 59.4553 23.2329C60.532 22.7919 61.5094 22.147 62.3318 21.3354C63.1544 20.5238 63.8059 19.5613 64.2488 18.5029C64.692 17.4445 64.9183 16.3107 64.9146 15.1665C64.9432 14.0116 64.7334 12.863 64.298 11.7896C63.8625 10.7162 63.2101 9.74018 62.3802 8.92026C61.5502 8.10033 60.5599 7.45337 59.4685 7.01827C58.3772 6.58317 57.2075 6.36887 56.0294 6.38831V6.34474ZM62.8488 15.2645C62.8877 16.1678 62.7403 17.0694 62.4154 17.9156C62.0905 18.7616 61.595 19.5347 60.9583 20.1885C60.3216 20.8423 59.5569 21.3636 58.7101 21.7207C57.8631 22.0779 56.9514 22.2639 56.0294 22.2675C55.1021 22.2594 54.1859 22.0689 53.3349 21.7073C52.484 21.3457 51.7158 20.8201 51.0758 20.162C50.4356 19.5039 49.9369 18.7265 49.6087 17.8759C49.2807 17.0254 49.13 16.1188 49.1657 15.2101C49.1253 14.3065 49.2716 13.4041 49.5958 12.5574C49.9201 11.7106 50.4156 10.9369 51.0526 10.2828C51.6896 9.62862 52.455 9.10753 53.3027 8.75082C54.1502 8.39413 55.0626 8.20919 55.985 8.20711C56.9119 8.21373 57.828 8.40289 58.6787 8.76335C59.5297 9.12381 60.2981 9.64823 60.9382 10.3055C61.5784 10.9627 62.0775 11.7394 62.4057 12.5894C62.7338 13.4394 62.8845 14.3454 62.8488 15.2537V15.2645ZM41.7465 6.67148H43.7123V23.7052H41.7688L41.7465 6.67148ZM8.58257 23.825L1.0968 6.62791H3.31809L4.42875 9.17642L9.54883 21.3417L10.0375 22.5071L9.84871 20.6338L15.6685 6.62791H17.7788L10.3263 23.825H8.58257ZM80.9079 6.62791H82.8295V23.7052H81.2635L68.9797 8.3487L70.0903 10.8428V23.7052H68.1022V6.62791H69.9459L81.7188 21.3199L80.9079 19.2289V6.62791Z" fill="white"/>
<path d="M135.976 25.5123H137.842V27.3202H135.998L135.976 25.5123ZM139.663 25.5123H141.507V27.3202H139.663V25.5123ZM101.69 4.81926H99.8465V3.03313H101.69V4.81926ZM146.783 17.4639C147.519 17.9687 148.343 18.3379 149.215 18.5529C150.17 18.7878 151.151 18.9049 152.136 18.9015H152.624L153.246 17.6272V19.4133C153.286 19.7935 153.231 20.1775 153.086 20.5322C152.941 20.887 152.71 21.2018 152.413 21.45C151.723 21.8929 150.905 22.1068 150.081 22.0598C149.57 22.064 149.06 22.0127 148.56 21.9074C148.023 21.7688 147.499 21.5867 146.994 21.3629L146.427 23.1053C147.04 23.3324 147.667 23.5216 148.304 23.6717C148.842 23.802 149.394 23.8678 149.948 23.8678C150.654 23.931 151.366 23.8527 152.04 23.6373C152.714 23.4219 153.336 23.0742 153.868 22.6153C154.714 21.6918 155.153 20.4784 155.09 19.239V6.64897H152.136C151.079 6.63833 150.028 6.80029 149.026 7.12818C148.147 7.40897 147.33 7.84856 146.616 8.42422C145.949 8.96413 145.414 9.64326 145.048 10.412C144.683 11.1808 144.498 12.0198 144.506 12.8678C144.482 13.8174 144.692 14.7586 145.117 15.6123C145.513 16.3569 146.084 16.9988 146.783 17.4855V17.4639ZM146.783 11.0816C147.052 10.5474 147.43 10.0729 147.893 9.68759C148.375 9.30369 148.92 9.00181 149.504 8.79452C150.081 8.59132 150.689 8.48456 151.303 8.47867H154.279L153.235 8.99055V17.1153H151.37C150.707 17.1184 150.048 17.0229 149.415 16.8321C148.837 16.6492 148.296 16.3691 147.815 16.0044C147.347 15.6502 146.967 15.1957 146.705 14.6757C146.431 14.1115 146.294 13.4926 146.305 12.8678C146.298 12.2466 146.447 11.6332 146.738 11.0816H146.783ZM105.333 4.84105H103.489V3.03313H105.333V4.84105ZM159.755 23.8896C159.248 23.8889 158.743 23.8193 158.256 23.6827L158.744 21.951C158.908 21.999 159.075 22.0354 159.244 22.0598H159.688C159.984 22.0722 160.279 22.0239 160.555 21.9182C160.778 21.8194 160.961 21.6509 161.077 21.439C161.225 21.1726 161.319 20.8804 161.354 20.5786C161.417 20.1494 161.447 19.7163 161.443 19.2827V6.64897H163.276V19.3045C163.282 19.9435 163.226 20.5817 163.109 21.2104C163.015 21.7274 162.815 22.2204 162.52 22.6588C162.244 23.0595 161.86 23.3762 161.41 23.5737C160.885 23.7973 160.316 23.9051 159.744 23.8896H159.755ZM155.079 4.84105H151.036V3.35985C151.008 3.04876 151.044 2.73529 151.141 2.43789C151.238 2.1405 151.395 1.86519 151.603 1.62818C151.823 1.43662 152.079 1.28983 152.358 1.19635C152.636 1.10287 152.931 1.06455 153.224 1.08362H154.502V2.40144H153.235C153.135 2.38908 153.034 2.39618 152.937 2.42236C152.839 2.44852 152.748 2.49322 152.669 2.55391C152.559 2.70997 152.508 2.89866 152.525 3.08758V3.49054H155.057L155.079 4.84105ZM100.357 23.639H104.178V22.2886C104.178 22.3539 104.256 22.4192 104.3 22.4737C104.578 22.8731 104.962 23.1897 105.411 23.3886C105.938 23.6174 106.512 23.7253 107.088 23.7045H141.518V6.64897H139.674V21.8965H107.132C106.837 21.9088 106.542 21.8606 106.266 21.7549C106.042 21.6533 105.855 21.4859 105.733 21.2757C105.589 21.0083 105.498 20.7163 105.466 20.4153C105.403 19.9862 105.374 19.5529 105.377 19.1192V6.64897H100.402C99.2654 6.63856 98.1384 6.85182 97.0875 7.27616C96.0365 7.70049 95.0832 8.32725 94.2836 9.11935C93.4842 9.91144 92.8548 10.8528 92.4329 11.8876C92.0112 12.9224 91.8053 14.0298 91.8276 15.144C91.8006 16.2538 92.0021 17.3574 92.42 18.3891C92.8381 19.4207 93.464 20.359 94.2602 21.148C95.0565 21.9369 96.0069 22.5603 97.0545 22.9809C98.1021 23.4015 99.2255 23.6105 100.357 23.5955V23.639ZM93.7934 15.0569C93.7545 14.1871 93.8953 13.3185 94.2075 12.5034C94.5196 11.6883 94.9966 10.9435 95.6097 10.3138C96.2227 9.68406 96.9594 9.18239 97.7754 8.83897C98.5913 8.49553 99.4694 8.3174 100.357 8.3153H104.667L103.556 8.87075V19.0757C103.553 19.7151 103.613 20.3533 103.734 20.9817C103.796 21.2924 103.893 21.5954 104.023 21.8855H100.424C99.5269 21.8862 98.639 21.7094 97.8135 21.3653C96.9878 21.0214 96.2416 20.5176 95.6193 19.8839C94.9971 19.2504 94.5116 18.5001 94.1921 17.6782C93.8727 16.8562 93.7258 15.9795 93.7601 15.1005L93.7934 15.0569Z" fill="white"/>
<path d="M7.92639 109.22H6.56028L3.93916 105.822L2.63969 107.129V109.22H1.50684V101.989H2.63969V105.877L6.3937 101.989H7.74869L4.70551 105.082L7.92639 109.22Z" fill="white"/>
<path d="M10.5705 101.989H9.43762V109.22H10.5705V101.989Z" fill="white"/>
<path d="M19.2346 101.989V109.22H18.2683L13.9368 103.742V109.22H12.8262V101.989H13.9146L18.1239 107.314V101.989H19.2346Z" fill="white"/>
<path d="M27.9752 105.267V108.241C27.1183 108.95 26.0314 109.336 24.9099 109.33C24.403 109.354 23.8962 109.275 23.4222 109.097C22.9483 108.919 22.5171 108.646 22.1567 108.296C21.7961 107.945 21.5141 107.525 21.3284 107.062C21.1427 106.599 21.0575 106.103 21.0781 105.605C21.0722 105.112 21.1666 104.624 21.3557 104.167C21.5451 103.711 21.8252 103.296 22.18 102.947C22.5349 102.598 22.957 102.322 23.4221 102.135C23.887 101.948 24.3852 101.854 24.8878 101.859C25.9 101.807 26.894 102.138 27.6643 102.784L26.9536 103.612C26.3712 103.111 25.6178 102.843 24.8432 102.86C24.142 102.905 23.4867 103.218 23.0174 103.731C22.5483 104.244 22.3027 104.917 22.3332 105.605C22.3067 105.962 22.3569 106.321 22.4802 106.659C22.6035 106.996 22.7976 107.304 23.0496 107.564C23.3017 107.823 23.6062 108.028 23.9438 108.165C24.2814 108.303 24.6446 108.369 25.0099 108.361C25.6908 108.369 26.3566 108.163 26.9091 107.772V106.237H24.9543V105.3L27.9752 105.267Z" fill="white"/>
<path d="M32.7389 101.989H30.0178V109.221H32.7389C33.2473 109.259 33.7582 109.195 34.2397 109.03C34.7213 108.866 35.1631 108.606 35.5372 108.267C35.9114 107.927 36.21 107.516 36.4141 107.057C36.6183 106.599 36.7237 106.105 36.7237 105.605C36.7237 105.105 36.6183 104.61 36.4141 104.152C36.21 103.694 35.9114 103.282 35.5372 102.943C35.1631 102.603 34.7213 102.343 34.2397 102.179C33.7582 102.015 33.2473 101.95 32.7389 101.989ZM32.7389 108.23H31.1506V102.98H32.7389C33.4488 102.98 34.1296 103.257 34.6316 103.749C35.1336 104.241 35.4155 104.909 35.4155 105.605C35.4155 106.301 35.1336 106.969 34.6316 107.461C34.1296 107.953 33.4488 108.23 32.7389 108.23Z" fill="white"/>
<path d="M41.9912 101.858C41.4834 101.843 40.9777 101.93 40.5048 102.112C40.032 102.295 39.6019 102.569 39.2404 102.92C38.8792 103.27 38.594 103.689 38.4024 104.15C38.2109 104.612 38.1169 105.107 38.1261 105.605C38.1218 106.355 38.3447 107.09 38.7668 107.716C39.1887 108.342 39.7909 108.832 40.4967 109.122C41.2026 109.412 41.9804 109.49 42.7315 109.346C43.4828 109.203 44.1735 108.843 44.7163 108.314C45.2591 107.785 45.6294 107.11 45.7803 106.374C45.9313 105.638 45.8561 104.875 45.5641 104.181C45.2723 103.487 44.7769 102.894 44.1408 102.477C43.5048 102.059 42.7566 101.836 41.9912 101.836V101.858ZM44.6567 105.605C44.6717 105.957 44.6139 106.309 44.4867 106.638C44.3594 106.968 44.1655 107.269 43.9164 107.524C43.6675 107.778 43.3685 107.981 43.0376 108.119C42.7068 108.257 42.3509 108.328 41.9912 108.327C41.6306 108.323 41.2744 108.249 40.9436 108.108C40.6128 107.967 40.3138 107.763 40.0646 107.507C39.8153 107.251 39.6205 106.95 39.4918 106.619C39.3629 106.289 39.3028 105.937 39.3147 105.583C39.2965 105.23 39.3518 104.877 39.477 104.545C39.6021 104.213 39.7946 103.91 40.0428 103.653C40.2908 103.397 40.5896 103.192 40.9207 103.052C41.2517 102.912 41.6085 102.839 41.9691 102.838C42.3302 102.843 42.6869 102.917 43.0182 103.058C43.3497 103.199 43.6494 103.403 43.8995 103.658C44.1496 103.914 44.3454 104.216 44.4754 104.546C44.6055 104.876 44.6672 105.229 44.6567 105.583V105.605Z" fill="white"/>
<path d="M54.952 101.989V109.22H53.8192V103.666L51.309 107.347L48.8101 103.688V109.22H47.6995V101.989H48.9655L51.3313 105.583L53.6859 101.989H54.952Z" fill="white"/>
<path d="M64.4146 101.858C63.9061 101.843 63.4001 101.93 62.9266 102.112C62.4532 102.294 62.0224 102.569 61.66 102.919C61.2979 103.269 61.0117 103.688 60.8188 104.149C60.6262 104.611 60.5307 105.106 60.5384 105.605C60.534 106.355 60.7567 107.089 61.1782 107.715C61.5998 108.341 62.2013 108.83 62.9064 109.121C63.6116 109.411 64.3888 109.49 65.1398 109.347C65.8908 109.204 66.5814 108.846 67.1246 108.318C67.6679 107.79 68.0391 107.116 68.1912 106.381C68.3434 105.646 68.2698 104.883 67.9796 104.189C67.6895 103.495 67.1958 102.901 66.5612 102.482C65.9266 102.063 65.1795 101.839 64.4146 101.836V101.858ZM67.069 105.605C67.084 105.956 67.0265 106.307 66.8999 106.636C66.7734 106.965 66.5804 107.266 66.3325 107.52C66.0848 107.774 65.7871 107.977 65.4575 108.116C65.128 108.254 64.7733 108.326 64.4146 108.327C64.054 108.323 63.6978 108.249 63.367 108.108C63.036 107.967 62.7373 107.763 62.488 107.507C62.2387 107.251 62.044 106.95 61.9151 106.619C61.7863 106.289 61.7261 105.937 61.7379 105.583C61.72 105.23 61.7752 104.877 61.9003 104.545C62.0255 104.213 62.218 103.91 62.4661 103.653C62.7143 103.397 63.013 103.192 63.344 103.052C63.6751 102.912 64.0317 102.839 64.3925 102.838C64.7531 102.843 65.1093 102.917 65.4401 103.058C65.7709 103.199 66.0698 103.403 66.3191 103.659C66.5684 103.915 66.7631 104.216 66.8919 104.547C67.0208 104.877 67.0809 105.229 67.069 105.583V105.605Z" fill="white"/>
<path d="M71.2567 102.98V105.201H75.0772V106.193H71.2567V109.22H70.1238V101.989H75.566V102.98H71.2567Z" fill="white"/>
<path d="M86.3607 107.206C86.3607 108.491 85.339 109.384 83.7507 109.384C82.6459 109.391 81.5762 109.004 80.7407 108.295L81.4072 107.511C82.0566 108.095 82.9027 108.425 83.7839 108.437C84.6614 108.437 85.2279 108.034 85.2279 107.348C85.2279 106.661 84.8169 106.422 83.4397 106.117C81.8625 105.736 80.9963 105.289 80.9963 103.939C81.0109 103.639 81.0882 103.346 81.2234 103.078C81.3588 102.809 81.5492 102.571 81.7826 102.378C82.016 102.184 82.2878 102.04 82.5804 101.955C82.8732 101.869 83.1809 101.844 83.4841 101.88C84.4281 101.859 85.3503 102.159 86.0941 102.73L85.4944 103.568C84.9148 103.116 84.202 102.86 83.4618 102.839C82.6733 102.839 82.1291 103.241 82.1291 103.841C82.1291 104.44 82.529 104.755 84.006 105.104C85.7055 105.507 86.3607 106.095 86.3607 107.206Z" fill="white"/>
<path d="M91.7146 101.935H90.6039L87.3497 109.221H88.4604L89.2379 107.424H92.9585L93.7248 109.221H94.9132L91.7146 101.935ZM89.6932 106.466L91.1481 103.198L92.6032 106.466H89.6932Z" fill="white"/>
<path d="M102.3 101.989V106.106C102.359 106.534 102.32 106.969 102.186 107.38C102.051 107.791 101.824 108.167 101.521 108.481C101.219 108.794 100.848 109.037 100.437 109.192C100.026 109.346 99.5845 109.408 99.1457 109.373C98.7162 109.41 98.2836 109.353 97.8797 109.205C97.4757 109.058 97.1102 108.823 96.8103 108.52C96.5101 108.216 96.283 107.851 96.1452 107.45C96.0074 107.049 95.9625 106.624 96.0137 106.204V102.022H97.1244V106.15C97.1244 107.554 97.8574 108.328 99.1457 108.328C100.434 108.328 101.145 107.533 101.145 106.15V101.967L102.3 101.989Z" fill="white"/>
<path d="M107.164 101.989H104.443V109.221H107.164C107.672 109.259 108.183 109.195 108.665 109.03C109.146 108.866 109.588 108.606 109.962 108.267C110.336 107.927 110.635 107.516 110.839 107.057C111.043 106.599 111.149 106.105 111.149 105.605C111.149 105.105 111.043 104.61 110.839 104.152C110.635 103.694 110.336 103.282 109.962 102.943C109.588 102.603 109.146 102.343 108.665 102.179C108.183 102.015 107.672 101.95 107.164 101.989ZM107.164 108.23H105.565V102.98H107.164C107.874 102.98 108.555 103.257 109.057 103.749C109.559 104.241 109.841 104.909 109.841 105.605C109.841 106.301 109.559 106.969 109.057 107.461C108.555 107.953 107.874 108.23 107.164 108.23Z" fill="white"/>
<path d="M114.117 101.989H112.984V109.22H114.117V101.989Z" fill="white"/>
<path d="M124.068 101.935H122.958L119.703 109.221H120.814L121.592 107.424H125.312L126.079 109.221H127.267L124.068 101.935ZM122.047 106.466L123.502 103.198L124.957 106.466H122.047Z" fill="white"/>
<path d="M132.953 106.455H133.087C133.59 106.346 134.039 106.07 134.357 105.672C134.675 105.275 134.842 104.782 134.83 104.277C134.849 103.7 134.633 103.14 134.231 102.719C133.646 102.219 132.884 101.965 132.11 102.011H128.777V109.243H129.888V106.629H131.687L133.52 109.178H134.853L132.953 106.455ZM129.966 105.671V102.981H131.998C133.109 102.981 133.676 103.46 133.676 104.309C133.676 105.159 133.02 105.671 132.01 105.671H129.966Z" fill="white"/>
<path d="M140.651 101.935H139.54L136.286 109.221H137.397L138.174 107.424H141.895L142.661 109.221H143.85L140.651 101.935ZM138.618 106.466L140.073 103.198L141.539 106.466H138.618Z" fill="white"/>
<path d="M150.057 105.551L149.824 105.475L150.035 105.366C150.349 105.238 150.616 105.02 150.8 104.739C150.985 104.459 151.078 104.131 151.068 103.798C151.076 103.578 151.037 103.36 150.955 103.155C150.873 102.951 150.749 102.766 150.59 102.61C150.06 102.169 149.375 101.946 148.68 101.99H145.348V109.221H148.758C150.457 109.221 151.468 108.492 151.468 107.283C151.477 106.874 151.339 106.476 151.076 106.159C150.814 105.841 150.445 105.626 150.035 105.551H150.057ZM146.459 102.948H148.48C149.38 102.948 149.913 103.34 149.913 104.037C149.913 104.734 149.358 105.126 148.38 105.126H146.459V102.948ZM148.769 108.263H146.459V106.085H148.68C150.124 106.085 150.335 106.771 150.335 107.174C150.335 107.914 149.768 108.263 148.769 108.263Z" fill="white"/>
<path d="M154.51 101.989H153.378V109.22H154.51V101.989Z" fill="white"/>
<path d="M160.377 101.935H159.266L156.023 109.221H157.133L157.911 107.424H161.632L162.398 109.221H163.586L160.377 101.935ZM158.355 106.466L159.81 103.198L161.276 106.466H158.355Z" fill="white"/>
<path d="M118.338 85.708H117.227V86.797H118.338V85.708ZM105.01 95.0525H106.12V85.708H105.01V95.0525ZM12.3371 87.9841H11.2265V94.007H7.00602V87.9841H5.37336C4.76322 87.9766 4.1558 88.0649 3.5741 88.2456C3.07172 88.4056 2.60452 88.6567 2.1969 88.9862C1.82642 89.2844 1.52374 89.6555 1.30838 90.0754C1.09963 90.5152 0.993396 90.9951 0.997396 91.4803C0.985352 92.0304 1.10719 92.5754 1.3528 93.0703C1.58486 93.4984 1.91113 93.8704 2.30797 94.1594C2.72897 94.4558 3.20402 94.6703 3.70738 94.7911C4.25038 94.9358 4.81064 95.0092 5.37336 95.009H12.3371V87.9841ZM5.99531 94.007H4.95132C4.57472 94.0089 4.20008 93.9539 3.84066 93.8435C3.50695 93.7334 3.19512 93.5675 2.91883 93.3535C2.66096 93.1375 2.45276 92.8702 2.30797 92.5693C2.14464 92.2295 2.0684 91.8556 2.08583 91.4803C2.0808 91.1245 2.16469 90.773 2.33018 90.4564C2.48703 90.151 2.70631 89.8803 2.97436 89.6615C3.24619 89.4382 3.55912 89.2682 3.89619 89.1605C4.25214 89.0341 4.6283 88.9714 5.00683 88.9753H6.05085L5.99531 94.007ZM9.39391 97.3505H10.5046V96.2615H9.39391V97.3505ZM7.03933 85.708H5.92868V86.797H7.03933V85.708ZM71.8679 85.708H70.7572V86.797H71.8679V85.708ZM11.2265 97.3505H12.3371V96.2615H11.2265V97.3505ZM73.7228 85.708H72.6121V86.797H73.7228V85.708ZM116.483 85.708H115.372V86.797H116.483V85.708ZM5.18455 85.708H4.07389V86.797H5.18455V85.708ZM77.2658 97.3505H78.3764V96.2615H77.2658V97.3505ZM84.0741 87.9841H82.9634V94.007H78.9762V87.9841H77.8655V94.007H73.6451V87.9841H71.9791C71.3652 87.9768 70.7543 88.0651 70.1686 88.2456C69.6673 88.4078 69.2005 88.6589 68.7914 88.9862C68.4242 89.2847 68.1253 89.6558 67.914 90.0754C67.7053 90.5152 67.5991 90.9951 67.6031 91.4803C67.5853 92.0309 67.7074 92.5773 67.9584 93.0703C68.1863 93.5012 68.5134 93.874 68.9137 94.1594C69.3306 94.4558 69.802 94.6703 70.3019 94.7911C70.8485 94.9367 71.4126 95.0099 71.9791 95.009H84.0741V87.9841ZM72.6677 94.007H71.6126C71.2361 94.0075 70.8616 93.9523 70.5019 93.8435C70.1726 93.731 69.8648 93.5653 69.5912 93.3535C69.3301 93.1378 69.1181 92.8706 68.9691 92.5693C68.8115 92.2276 68.7355 91.8551 68.747 91.4803C68.742 91.1245 68.8259 90.773 68.9914 90.4564C69.1557 90.1527 69.3783 89.8827 69.6467 89.6615C69.9185 89.4382 70.2314 89.2682 70.5686 89.1605C70.9245 89.0338 71.3006 88.9711 71.6791 88.9753H72.7342L72.6677 94.007ZM79.1204 97.3505H80.2311V96.2615H79.1204V97.3505ZM19.1454 88.899C18.8792 88.6075 18.5538 88.374 18.1903 88.2129C17.7856 88.0496 17.3504 87.9718 16.913 87.9841H16.1356V89.0733H17.0574C17.3111 89.073 17.5618 89.1288 17.7905 89.2366C18.0094 89.3346 18.203 89.4798 18.3568 89.6615C18.5056 89.8352 18.612 90.0401 18.6679 90.2605C18.7296 90.5174 18.7595 90.7806 18.7568 91.0446V94.0615H13.8143V95.1505H19.8563V90.9466C19.8531 90.5776 19.7972 90.211 19.6896 89.8574C19.5849 89.5247 19.411 89.2168 19.1787 88.9535L19.1454 88.899ZM100.9 94.0615H96.3912L98.2458 89.705C97.96 89.4592 97.6597 89.2301 97.3463 89.0188C97.032 88.8088 96.7016 88.623 96.3579 88.4633C96.0318 88.3016 95.6893 88.1737 95.3361 88.0823C95.003 87.9926 94.6597 87.945 94.3142 87.9407C93.9651 87.9448 93.6181 87.9924 93.2812 88.0823C92.9454 88.1739 92.6184 88.294 92.304 88.4417C91.9565 88.5984 91.6253 88.7882 91.3154 89.008C91.0087 89.2186 90.7157 89.4477 90.438 89.6941L92.304 94.0505H88.3057V87.9841H87.195V95.2703C87.2087 95.5207 87.2087 95.7715 87.195 96.0219C87.1701 96.1938 87.1136 96.3598 87.0283 96.5119C86.9572 96.6291 86.853 96.7237 86.7285 96.7842C86.5693 96.8452 86.3994 96.8747 86.2287 96.8713H85.9732L85.6845 96.806L85.4068 97.808C85.6894 97.8814 85.9806 97.918 86.2731 97.9168C86.6006 97.9287 86.9269 97.869 87.2282 97.7425C87.4888 97.6052 87.7073 97.4022 87.8613 97.1545C88.0269 96.9027 88.1402 96.6216 88.1945 96.3268C88.2637 95.9677 88.2971 95.603 88.2945 95.2376V95.0199H101.956V85.708H100.845L100.9 94.0615ZM93.3812 94.0615L91.7152 90.0644C92.0873 89.7488 92.5118 89.4982 92.9703 89.3237C93.4013 89.1713 93.8561 89.0939 94.3142 89.0951C94.8016 89.0948 95.2843 89.1873 95.7358 89.3674C96.1713 89.5348 96.5763 89.7703 96.9354 90.0644L95.2693 94.0615H93.3812ZM82.9967 97.405H84.1073V96.3158H82.9967V97.405ZM162.142 95.107H163.252V85.708H162.142V95.107ZM157.988 94.0178H154.345C154.568 93.5355 154.681 93.0117 154.678 92.4823C154.682 91.9667 154.58 91.4555 154.378 90.9792C154.185 90.532 153.906 90.1254 153.556 89.7813C153.208 89.4349 152.793 89.161 152.335 88.9753C151.849 88.7777 151.328 88.6778 150.802 88.6813C150.289 88.6751 149.781 88.7791 149.314 88.9862C148.863 89.1735 148.455 89.4477 148.114 89.7921C147.666 90.2469 147.34 90.8027 147.164 91.4106C146.987 92.0186 146.967 92.6597 147.103 93.2772C147.156 93.5311 147.234 93.7793 147.337 94.0178H144.005C144.222 93.5338 144.336 93.0112 144.338 92.4823C144.336 91.9672 144.234 91.4571 144.038 90.9792C143.845 90.532 143.566 90.1254 143.216 89.7813C142.868 89.4349 142.453 89.161 141.994 88.9753C141.509 88.7777 140.988 88.6778 140.462 88.6813C139.949 88.6751 139.441 88.7791 138.973 88.9862C138.523 89.1735 138.115 89.4477 137.774 89.7921C137.326 90.2469 137 90.8027 136.824 91.4106C136.647 92.0186 136.627 92.6597 136.763 93.2772C136.816 93.5311 136.894 93.7793 136.996 94.0178H133.665V85.708H132.554V94.007H129.222V92.4168C129.222 92.0306 129.17 91.6461 129.066 91.2733C128.968 90.937 128.798 90.6252 128.567 90.3584C128.311 90.0676 127.992 89.8368 127.634 89.6831C127.218 89.5183 126.771 89.4404 126.323 89.4545H121.625L123.624 85.708H122.514L120.47 89.4435C120.496 89.6465 120.552 89.8447 120.637 90.0317C120.715 90.2025 120.82 90.3605 120.948 90.5001H126.368C126.664 90.4951 126.958 90.547 127.234 90.6525C127.46 90.7388 127.662 90.877 127.823 91.0556C127.973 91.2279 128.08 91.4333 128.133 91.6545C128.184 91.9056 128.21 92.1609 128.211 92.4168V94.007H118.393V87.9841H116.716C116.106 87.9759 115.498 88.0642 114.917 88.2456C114.412 88.4078 113.941 88.6588 113.528 88.9862C113.164 89.2876 112.866 89.658 112.651 90.0754C112.442 90.5152 112.336 90.9951 112.34 91.4803C112.328 92.0304 112.45 92.5754 112.695 93.0703C112.927 93.4984 113.254 93.8704 113.651 94.1594C114.069 94.4539 114.54 94.6682 115.039 94.7911C115.586 94.9367 116.15 95.0099 116.716 95.009H137.818C138.166 95.3744 138.585 95.667 139.051 95.8693C139.537 96.0812 140.063 96.1889 140.595 96.1852C141.137 96.1914 141.674 96.0875 142.172 95.8803C142.656 95.6814 143.091 95.3844 143.449 95.009H148.114C148.462 95.3744 148.881 95.667 149.347 95.8693C149.832 96.0826 150.359 96.1903 150.891 96.1852C151.436 96.1905 151.976 96.0867 152.479 95.8803C152.958 95.6783 153.389 95.3817 153.745 95.009H159.143V85.708H158.032L157.988 94.0178ZM117.282 94.0178H116.238C115.862 94.0199 115.487 93.9647 115.128 93.8545C114.794 93.7442 114.482 93.5785 114.206 93.3644C113.948 93.1483 113.74 92.881 113.595 92.5803C113.438 92.257 113.357 91.9036 113.357 91.5456C113.357 91.1876 113.438 90.8342 113.595 90.5109C113.759 90.2072 113.982 89.9372 114.25 89.7158C114.522 89.4927 114.835 89.3227 115.172 89.2149C115.528 89.0886 115.904 89.0259 116.283 89.0297H117.327L117.282 94.0178ZM143.094 93.5605C142.955 93.8836 142.751 94.1763 142.494 94.4209C142.241 94.6682 141.939 94.861 141.606 94.9872C141.252 95.1225 140.875 95.189 140.495 95.1831C140.114 95.1912 139.736 95.1207 139.384 94.9762C139.06 94.8421 138.768 94.6416 138.529 94.3882C138.276 94.1356 138.077 93.836 137.943 93.5067C137.81 93.1775 137.744 92.8255 137.752 92.4713C137.748 92.0992 137.815 91.7297 137.952 91.3823C138.086 91.0609 138.278 90.7658 138.518 90.5109C138.763 90.2644 139.053 90.0649 139.373 89.9227C139.724 89.7753 140.102 89.701 140.484 89.705C140.864 89.7012 141.242 89.7717 141.595 89.9119C141.923 90.0473 142.224 90.239 142.483 90.4782C142.733 90.7304 142.932 91.0258 143.072 91.3495C143.211 91.6965 143.282 92.0658 143.283 92.4386C143.284 92.8126 143.209 93.183 143.061 93.5278L143.094 93.5605ZM153.356 93.5278C153.217 93.8509 153.013 94.1435 152.757 94.3882C152.504 94.6355 152.201 94.8284 151.868 94.9545C151.514 95.0898 151.137 95.1563 150.757 95.1505C150.377 95.1586 149.998 95.0881 149.647 94.9435C149.324 94.8066 149.033 94.6065 148.792 94.3556C148.538 94.1029 148.339 93.8033 148.205 93.474C148.072 93.1449 148.007 92.7929 148.014 92.4386C148.01 92.0665 148.078 91.6968 148.214 91.3495C148.352 91.0303 148.544 90.7359 148.78 90.4782C149.026 90.2318 149.316 90.0322 149.636 89.8901C149.986 89.7426 150.365 89.6684 150.746 89.6723C151.127 89.6685 151.504 89.7388 151.857 89.8792C152.185 90.0145 152.486 90.2063 152.746 90.4456C152.995 90.6977 153.195 90.9932 153.334 91.3168C153.62 92.016 153.62 92.796 153.334 93.4951L153.356 93.5278ZM56.019 93.9525H54.342C53.8394 93.975 53.3381 93.8857 52.8758 93.6911C52.5232 93.519 52.2325 93.2454 52.043 92.907C52.1057 92.5877 52.1354 92.2628 52.1318 91.9376V88.6376H51.0767V92.1556C51.103 92.6796 50.9243 93.1939 50.5767 93.5931C50.3856 93.7836 50.1545 93.931 49.8995 94.025C49.6443 94.1191 49.3715 94.1576 49.0997 94.1376C48.8081 94.1431 48.5181 94.095 48.2444 93.996C48.0005 93.9047 47.775 93.772 47.5781 93.6039C47.4001 93.4383 47.2534 93.2428 47.1449 93.0268C47.0355 92.8058 46.9749 92.5644 46.9672 92.3188V88.6376H45.8565V92.2425C45.8661 92.5182 45.817 92.7927 45.7121 93.0486C45.6236 93.2516 45.4916 93.4336 45.3249 93.5821C45.158 93.7306 44.9606 93.8422 44.7459 93.909C44.5262 93.9742 44.298 94.0072 44.0684 94.007H42.0691V88.6376H40.9586V94.007H35.4053L37.2712 89.6505C36.9824 89.4109 36.6826 89.1823 36.3605 88.9644C36.0486 88.7567 35.7219 88.5711 35.3831 88.409C35.057 88.2471 34.7146 88.1192 34.3613 88.0278C33.6899 87.8393 32.978 87.8393 32.3066 88.0278C31.9522 88.1222 31.6067 88.2461 31.2737 88.398C30.9298 88.5549 30.6025 88.7447 30.2964 88.9644C29.9839 89.1722 29.6871 89.4014 29.4078 89.6505L31.2848 94.007H27.6309V87.9841H25.9316C25.3205 87.9757 24.7122 88.0677 24.1323 88.2564C23.6303 88.4224 23.1636 88.6771 22.7551 89.008C22.3766 89.3011 22.0693 89.6732 21.8554 90.097C21.6413 90.5394 21.5312 91.0232 21.5333 91.5129C21.52 92.0633 21.6418 92.6086 21.8886 93.1029C22.1153 93.5347 22.4424 93.908 22.8439 94.1921C23.2655 94.4852 23.7405 94.6959 24.2433 94.8129C24.7953 94.9492 25.3623 95.0188 25.9316 95.0199H26.5646V95.3139C26.5862 95.5331 26.5541 95.7541 26.4711 95.9588C26.388 96.1633 26.2563 96.3455 26.0869 96.4901C25.6886 96.7443 25.2175 96.8665 24.743 96.8386C24.4476 96.8421 24.1528 96.8092 23.8658 96.7407C23.5573 96.6649 23.2563 96.5628 22.966 96.4356L22.644 97.4376C23.0437 97.5792 23.4102 97.6882 23.7546 97.7644C24.0637 97.8381 24.3807 97.8747 24.6986 97.8733C25.0991 97.905 25.502 97.8577 25.8835 97.7341C26.265 97.6107 26.6174 97.4136 26.92 97.1545C27.1649 96.8924 27.3541 96.5849 27.476 96.2501C27.5981 95.9153 27.6507 95.5601 27.6309 95.205V95.0199H44.124C44.6004 95.0281 45.0709 94.9155 45.49 94.6931C45.8844 94.4865 46.2203 94.1871 46.4674 93.8219C46.72 94.2311 47.0808 94.5661 47.5114 94.7911C48.0021 95.0374 48.5487 95.1572 49.0997 95.1397C49.6579 95.1587 50.2128 95.0506 50.7211 94.8237C51.1647 94.6049 51.5261 94.2542 51.7541 93.8219C51.8466 93.9771 51.9545 94.123 52.0762 94.2574C52.2164 94.4147 52.3861 94.5441 52.576 94.6386C52.8061 94.7626 53.0529 94.8542 53.309 94.9109C53.5607 94.9652 53.8175 94.9944 54.0753 94.998H57.1408V85.708H56.0301L56.019 93.9525ZM26.509 93.9525H25.3983C25.0219 93.9539 24.6474 93.8987 24.2877 93.7892C23.9518 93.6892 23.6388 93.5264 23.3658 93.3099C23.1059 93.1017 22.8941 92.8419 22.7439 92.5476C22.5863 92.2059 22.5102 91.8333 22.5218 91.4584C22.5168 91.1028 22.6006 90.7513 22.7661 90.4347C22.9268 90.1254 23.1498 89.8512 23.4214 89.6288C23.6982 89.4099 24.0095 89.2369 24.3432 89.1168C24.6998 88.9943 25.0761 88.9351 25.4539 88.9425H26.5646L26.509 93.9525ZM32.3622 93.9525L30.7073 89.9556C31.0759 89.6354 31.5013 89.3842 31.9623 89.2149C32.393 89.0616 32.848 88.9841 33.3062 88.9862C33.7934 88.9869 34.2761 89.0793 34.7278 89.2584C35.16 89.426 35.5613 89.6613 35.9162 89.9556L34.2613 93.9525H32.3622ZM60.1285 95.0417H61.239V85.708H60.1285V95.0417Z" fill="white"/>
<path d="M142.704 32.8972C129.688 32.8972 120.236 42.525 120.236 54.2764V54.3962C120.236 66.1478 129.576 75.6556 142.582 75.6556C155.588 75.6556 165.04 66.0279 165.04 54.2764V54.1566C165.04 42.4052 155.71 32.8972 142.704 32.8972ZM155.344 54.3962C155.344 61.4754 150.168 67.2695 142.704 67.2695C135.241 67.2695 129.932 61.3666 129.932 54.2764V54.1566C129.932 47.0666 135.119 41.2833 142.582 41.2833C150.046 41.2833 155.344 47.1864 155.344 54.2764V54.3962ZM16.1236 67.0952H32.1948V74.9478H0.996582V67.7487L15.0352 56.4656C20.2663 52.2072 22.321 49.9309 22.321 46.5438C22.321 43.1566 19.9665 41.1636 16.6567 41.1636C13.347 41.1636 11.1701 42.9388 8.04921 46.718L1.5408 41.6101C5.69463 36.0556 9.72629 33.0497 17.2565 33.0497C25.9863 33.0497 31.7727 38.0705 31.7727 45.8031V45.9229C31.7727 52.8279 28.163 56.2587 20.6661 61.9219L11.4811 68.8378L9.69297 70.1883L16.1236 67.0952ZM117.848 62.0091V62.1289C117.848 69.927 112.062 75.6556 102.666 75.6556C95.0798 75.6556 89.8375 72.7042 86.2278 68.5111L92.614 62.5428C95.5017 65.734 98.5116 67.5091 102.788 67.5091C106.286 67.5091 108.752 65.5597 108.752 62.4883V62.3685C108.752 59.0032 105.675 57.1081 100.5 57.1081H96.6458L95.2019 51.325L108.73 37.9833L103.31 41.4031H88.6936V33.6052H117.182V40.4556L106.519 50.4319C112.295 51.4121 117.848 54.3309 117.848 62.0091Z" fill="white"/>
<path d="M72.6548 56.2035C72.1958 55.9424 71.7076 55.7341 71.1999 55.5826C69.9017 55.1775 68.5245 55.0768 67.1793 55.2886C66.5846 55.3812 66.0005 55.5307 65.4356 55.7353H65.2579C64.947 55.8551 64.647 55.9857 64.3361 56.1381C64.0251 56.2906 63.814 56.4104 63.5475 56.5738C62.9589 56.9222 62.3703 57.3253 61.7926 57.75C61.3427 54.7052 61.2829 51.6173 61.615 48.5579C63.0033 49.4183 62.6145 51.8253 62.3259 52.5114C62.8993 51.8597 63.2575 51.0525 63.3527 50.1968C63.4479 49.341 63.2757 48.477 62.8589 47.7194C63.0885 47.9076 63.297 48.1193 63.4808 48.351C63.9419 48.9393 64.2161 49.6476 64.2694 50.3877C64.2972 50.6957 64.2972 51.0054 64.2694 51.3134C64.2749 51.3822 64.2749 51.4514 64.2694 51.5204C64.5589 50.9657 64.7099 50.3518 64.7099 49.7287C64.7099 49.1057 64.5589 48.4918 64.2694 47.9371C64.0671 47.5354 63.801 47.1678 63.4808 46.8481L63.1698 46.554L63.4698 46.6412C63.7518 46.7355 64.0178 46.8713 64.2584 47.0441C64.7604 47.4146 65.1454 47.9167 65.3689 48.4926C65.5494 48.9287 65.6436 49.3943 65.6466 49.8649C65.7985 49.4194 65.8523 48.9472 65.8046 48.4797C65.7567 48.0122 65.6082 47.56 65.3689 47.153C65.0926 46.7084 64.7118 46.3349 64.2584 46.0639C64.0126 45.9135 63.7473 45.7962 63.4698 45.7153C63.3459 45.6785 63.2198 45.6493 63.0921 45.6283H63.4587C63.7231 45.6256 63.987 45.6474 64.2472 45.6936C64.6435 45.7576 65.0219 45.9023 65.3579 46.1183C65.6593 46.3177 65.9101 46.5822 66.0909 46.8916C66.0394 46.3313 65.7687 45.8122 65.3356 45.443C65.0132 45.1754 64.6336 44.9819 64.2249 44.8767C63.9684 44.8042 63.7034 44.764 63.4364 44.7569C63.1021 44.7506 62.7697 44.8099 62.4591 44.9312C62.7025 44.5972 63.0552 44.3551 63.4587 44.2451C63.7133 44.1662 63.9805 44.133 64.2472 44.1471C64.4695 44.1591 64.688 44.2107 64.8914 44.2996C64.7052 44.0895 64.4836 43.9128 64.2361 43.7767C63.7898 43.5232 63.2599 43.4507 62.76 43.5748C62.2598 43.6989 61.829 44.0098 61.5594 44.4412C61.4596 44.2724 61.3706 44.0979 61.2929 43.9183C61.0925 43.4692 60.9507 42.9973 60.8708 42.5134C60.7908 43.0021 60.6452 43.4782 60.4377 43.9292C60.3637 44.105 60.2784 44.276 60.1822 44.4412C60.0068 44.17 59.7671 43.9443 59.4837 43.7836C59.2001 43.6227 58.8811 43.5314 58.554 43.5175C58.2267 43.5036 57.9009 43.5675 57.6043 43.7037C57.3076 43.8398 57.0489 44.0441 56.8503 44.2996C57.2684 44.1284 57.7325 44.0974 58.1704 44.2116C58.6083 44.3259 58.9954 44.5789 59.2715 44.9312C58.7327 44.742 58.1488 44.7134 57.5933 44.849C57.0379 44.9846 56.5359 45.2786 56.1506 45.6936C55.864 46.0341 55.6897 46.4518 55.6508 46.8916C55.7731 46.6725 55.9349 46.4769 56.1283 46.3144C56.4749 46.0357 56.8779 45.8323 57.3106 45.7179C57.7433 45.6032 58.196 45.5802 58.6385 45.65C58.0833 45.7452 57.5618 45.9771 57.1228 46.3237C56.6838 46.6704 56.3417 47.1205 56.1283 47.6322C55.8956 48.3403 55.8956 49.1023 56.1283 49.8104V49.7451C56.1164 49.0213 56.3499 48.3142 56.7922 47.7346C57.2344 47.1551 57.8603 46.7361 58.5718 46.543C57.8339 47.113 57.32 47.916 57.1176 48.8154C56.9151 49.7148 57.0366 50.6552 57.4611 51.4767C57.3675 50.7801 57.4583 50.0715 57.7248 49.4192C57.9913 48.7668 58.4245 48.1927 58.9827 47.752C58.5658 48.5096 58.3937 49.3737 58.4888 50.2294C58.5841 51.0852 58.9423 51.8925 59.5159 52.5441C59.2271 51.8579 58.8383 49.451 60.2266 48.5906C60.5694 51.6556 60.5247 54.7502 60.0934 57.8045C59.0344 56.968 57.8605 56.2823 56.6059 55.7679L56.1727 55.6263C55.1227 55.2767 54.0155 55.1217 52.9074 55.1688C51.7502 55.2232 50.6165 55.5086 49.5755 56.0075L49.2423 56.1816L49.5423 56.0947C50.6242 55.7925 51.7525 55.6818 52.8741 55.7679C54.0061 55.8695 55.1112 56.1643 56.1394 56.6392C57.5726 57.3076 58.9034 58.169 60.0934 59.1985C58.8646 60.3661 57.5626 61.4573 56.195 62.4659C56.1586 62.4975 56.1175 62.5233 56.0729 62.542C55.9705 62.4044 55.8301 62.298 55.6682 62.2359C55.5062 62.1739 55.3296 62.1586 55.1591 62.1918C54.9885 62.2249 54.8314 62.3054 54.706 62.4234C54.5804 62.5415 54.4921 62.6923 54.4513 62.8579C54.4173 62.9898 54.4158 63.1276 54.4468 63.2601C54.4776 63.3926 54.5401 63.516 54.629 63.6204C54.8269 63.8239 55.0883 63.9569 55.3719 63.9983C55.6555 64.0399 55.9452 63.9873 56.195 63.849C57.3057 63.3808 58.7606 61.8886 60.5043 60.3204L60.9487 59.9283L61.3929 60.3204C62.1814 61.0283 62.9145 61.7253 63.6142 62.3134C63.8917 62.5639 64.1473 62.7816 64.4026 62.9886C64.7449 63.2735 65.1174 63.5219 65.5133 63.7292C65.7627 63.9191 66.0695 64.0222 66.3852 64.0222C66.701 64.0222 67.0077 63.9191 67.257 63.7292L67.3349 63.653C67.415 63.5441 67.4721 63.4205 67.5026 63.2895C67.5331 63.1586 67.5366 63.0229 67.5126 62.8906C67.4702 62.7218 67.3819 62.5675 67.257 62.4441C67.1617 62.3583 67.0488 62.293 66.926 62.2528C66.8032 62.2125 66.6731 62.1981 66.5442 62.2105C66.4153 62.2227 66.2906 62.2615 66.178 62.3243C66.0655 62.3872 65.9676 62.4724 65.891 62.5749L65.4356 62.3024C65.0472 62.035 64.6763 61.744 64.3249 61.4312L63.5363 60.7451L61.7815 59.1877C62.3368 58.7302 62.8922 58.2947 63.5363 57.8808L64.3249 57.3906C64.6803 57.1837 65.0468 56.9877 65.4356 56.8134C65.9976 56.5489 66.5808 56.3303 67.1793 56.16C68.4854 55.7908 69.859 55.7126 71.1999 55.9312C71.6858 56.0012 72.165 56.1105 72.6325 56.2579" fill="white"/>
<path d="M60.9245 77.0165L58.2858 79.6041L60.9245 82.1916L63.5634 79.6041L60.9245 77.0165Z" fill="white"/>
<path d="M39.6944 62.1866L38.7363 65.0764L41.6832 66.0158L42.6413 63.1261L39.6944 62.1866Z" fill="white"/>
<path d="M48.2505 36.8599L47.8491 39.3447L50.3832 39.7383L50.7845 37.2535L48.2505 36.8599Z" fill="white"/>
<path d="M80.6851 52.1945L78.871 53.9734L80.6851 55.7524L82.4993 53.9734L80.6851 52.1945Z" fill="white"/>
<path d="M79.1699 46.311L78.0054 48.553L80.2915 49.6947L81.456 47.4528L79.1699 46.311Z" fill="white"/>
<path d="M50.3816 68.2258L47.8475 68.6194L48.2489 71.1042L50.7829 70.7106L50.3816 68.2258Z" fill="white"/>
<path d="M73.6157 36.8607L71.0817 37.2543L71.483 39.7391L74.017 39.3455L73.6157 36.8607Z" fill="white"/>
<path d="M55.3884 70.7174L53.1023 71.8592L54.2668 74.1009L56.553 72.9592L55.3884 70.7174Z" fill="white"/>
<path d="M60.9281 32.8197L59.1139 34.5986L60.9281 36.3775L62.7422 34.5986L60.9281 32.8197Z" fill="white"/>
<path d="M58.0121 35.8806L56.765 37.5634L58.481 38.7863L59.7281 37.1037L58.0121 35.8806Z" fill="white"/>
<path d="M63.3926 69.173L62.1454 70.8558L63.8614 72.0787L65.1086 70.396L63.3926 69.173Z" fill="white"/>
<path d="M46.3012 45.0226L44.2834 45.6651L44.9388 47.6435L46.9563 47.001L46.3012 45.0226Z" fill="white"/>
<path d="M76.935 60.3195L74.9175 60.9619L75.5726 62.9405L77.5902 62.2981L76.935 60.3195Z" fill="white"/>
<path d="M43.7261 55.1566L42.4789 56.8393L44.1949 58.0623L45.4421 56.3795L43.7261 55.1566Z" fill="white"/>
<path d="M86.5973 59.434L83.2722 61.0953L84.9663 64.3558L88.2913 62.6944L86.5973 59.434Z" fill="white"/>
<path d="M47.1255 72.6102L43.4397 73.1826L44.0234 76.7969L47.7093 76.2246L47.1255 72.6102Z" fill="white"/>
<path d="M77.8398 31.1497L74.1539 31.722L74.7377 35.3364L78.4235 34.764L77.8398 31.1497Z" fill="white"/>
<path d="M38.1532 55.3518L36.3323 57.8105L38.8395 59.5961L40.6604 57.1376L38.1532 55.3518Z" fill="white"/>
<path d="M54.2685 33.8629L53.1041 36.1047L55.3903 37.2464L56.5546 35.0047L54.2685 33.8629Z" fill="white"/>
<path d="M42.7016 46.2938L40.4154 47.4358L41.5799 49.6775L43.8661 48.5358L42.7016 46.2938Z" fill="white"/>
<path d="M60.9353 71.5753L59.1211 73.3544L60.9353 75.1333L62.7494 73.3544L60.9353 71.5753Z" fill="white"/>
<path d="M75.568 45.0125L74.9127 46.9909L76.9304 47.6334L77.5856 45.6549L75.568 45.0125Z" fill="white"/>
<path d="M49.8448 64.8511H47.7234V66.9313H49.8448V64.8511Z" fill="white"/>
<path d="M36.8882 43.5957L33.5631 45.257L35.2573 48.5177L38.5824 46.8563L36.8882 43.5957Z" fill="white"/>
<path d="M35.2557 59.4419L33.5616 62.7025L36.8867 64.3639L38.5808 61.1032L35.2557 59.4419Z" fill="white"/>
<path d="M49.618 32.2095L48.6604 35.0994L51.6075 36.0383L52.565 33.1484L49.618 32.2095Z" fill="white"/>
<path d="M70.2613 71.9297L69.3037 74.8194L72.2508 75.7586L73.2083 72.8686L70.2613 71.9297Z" fill="white"/>
<path d="M82.1789 62.1866L79.2318 63.1256L80.1894 66.0155L83.1364 65.0764L82.1789 62.1866Z" fill="white"/>
<path d="M83.724 55.3462L81.2168 57.1318L83.0377 59.5903L85.5449 57.8047L83.724 55.3462Z" fill="white"/>
<path d="M80.1894 41.9504L79.2318 44.8403L82.1789 45.7795L83.1364 42.8896L80.1894 41.9504Z" fill="white"/>
<path d="M78.5522 36.7084H75.4536V39.747H78.5522V36.7084Z" fill="white"/>
<path d="M51.63 71.7593L48.6863 72.7013L49.6468 75.588L52.5906 74.6459L51.63 71.7593Z" fill="white"/>
<path d="M64.4282 74.0127L62.6 76.4739L65.11 78.2666L66.9382 75.8054L64.4282 74.0127Z" fill="white"/>
<path d="M41.5799 58.2715L40.4154 60.5132L42.7016 61.655L43.8661 59.4132L41.5799 58.2715Z" fill="white"/>
<path d="M49.8448 41.0204H47.7234V43.1006H49.8448V41.0204Z" fill="white"/>
<path d="M44.1912 49.8842L42.4753 51.1072L43.7224 52.7899L45.4384 51.5668L44.1912 49.8842Z" fill="white"/>
<path d="M69.4199 37.6537L67.4022 38.2962L68.0574 40.2748L70.0751 39.6323L69.4199 37.6537Z" fill="white"/>
<path d="M63.8566 35.8807L62.1406 37.1036L63.3879 38.7863L65.1039 37.5634L63.8566 35.8807Z" fill="white"/>
<path d="M73.7571 61.6052L72.0238 61.8751L72.299 63.5746L74.0321 63.3047L73.7571 61.6052Z" fill="white"/>
<path d="M75.8744 52.7654L74.6335 53.9821L75.8744 55.199L77.1152 53.9821L75.8744 52.7654Z" fill="white"/>
<path d="M84.9628 43.5972L83.2686 46.8576L86.5936 48.519L88.2879 45.2583L84.9628 43.5972Z" fill="white"/>
<path d="M78.5522 68.2152H75.4536V71.2538H78.5522V68.2152Z" fill="white"/>
<path d="M41.6798 41.9572L38.7328 42.8961L39.6903 45.786L42.6374 44.8471L41.6798 41.9572Z" fill="white"/>
<path d="M72.241 32.2139L69.2939 33.153L70.2515 36.0427L73.1986 35.1038L72.241 32.2139Z" fill="white"/>
<path d="M57.249 29.8839L55.4208 32.3452L57.9308 34.138L59.759 31.6767L57.249 29.8839Z" fill="white"/>
<path d="M80.2879 58.2693L78.0017 59.4111L79.166 61.6528L81.4522 60.5111L80.2879 58.2693Z" fill="white"/>
<path d="M41.1714 52.1921L39.3572 53.971L41.1714 55.7501L42.9855 53.971L41.1714 52.1921Z" fill="white"/>
<path d="M78.1371 55.1653L76.4213 56.3883L77.6683 58.071L79.3843 56.8481L78.1371 55.1653Z" fill="white"/>
<path d="M53.8049 67.6802L51.7874 68.3226L52.4425 70.3011L54.4601 69.6586L53.8049 67.6802Z" fill="white"/>
<path d="M60.9301 67.4238L59.6893 68.6407L60.9301 69.8574L62.1709 68.6407L60.9301 67.4238Z" fill="white"/>
<path d="M51.4217 41.1533L51.1478 42.853L52.8811 43.1216L53.1549 41.4218L51.4217 41.1533Z" fill="white"/>
<path d="M46.3364 57.3496L45.5391 58.8826L47.1025 59.6644L47.8996 58.1315L46.3364 57.3496Z" fill="white"/>
<path d="M46.413 36.7084H43.3142V39.747H46.413V36.7084Z" fill="white"/>
<path d="M64.8247 29.8459L62.3175 31.6316L64.1384 34.0902L66.6456 32.3046L64.8247 29.8459Z" fill="white"/>
<path d="M66.481 70.73L65.3167 72.9717L67.6028 74.1135L68.7671 71.8717L66.481 70.73Z" fill="white"/>
<path d="M43.8718 63.9344L43.4705 66.4192L46.0045 66.8128L46.4058 64.328L43.8718 63.9344Z" fill="white"/>
<path d="M75.8618 41.1439L75.4604 43.6287L77.9945 44.0223L78.3958 41.5375L75.8618 41.1439Z" fill="white"/>
<path d="M74.1452 64.851H72.0238V66.9312H74.1452V64.851Z" fill="white"/>
<path d="M77.6683 49.8909L76.4213 51.5735L78.1371 52.7966L79.3843 51.1139L77.6683 49.8909Z" fill="white"/>
<path d="M58.4814 69.1842L56.765 70.4066L58.0116 72.0897L59.7279 70.8674L58.4814 69.1842Z" fill="white"/>
<path d="M55.924 38.8987L55.1267 40.4316L56.6901 41.2135L57.4872 39.6805L55.924 38.8987Z" fill="white"/>
<path d="M65.1608 66.7616L64.3636 68.2945L65.9269 69.0762L66.7242 67.5433L65.1608 66.7616Z" fill="white"/>
<path d="M68.9843 64.8527L68.7104 66.5523L70.4437 66.821L70.7177 65.1213L68.9843 64.8527Z" fill="white"/>
<path d="M47.1076 48.2952L45.5443 49.077L46.3414 50.61L47.9048 49.8281L47.1076 48.2952Z" fill="white"/>
<path d="M75.5265 57.353L73.9633 58.1347L74.7606 59.6677L76.3238 58.886L75.5265 57.353Z" fill="white"/>
<path d="M48.1159 61.6041L47.842 63.3038L49.5753 63.5724L49.8493 61.8728L48.1159 61.6041Z" fill="white"/>
<path d="M70.4486 41.1406L68.7152 41.4093L68.9892 43.1089L70.7225 42.8405L70.4486 41.1406Z" fill="white"/>
<path d="M56.7003 66.7504L55.1371 67.5322L55.9344 69.0652L57.4976 68.2833L56.7003 66.7504Z" fill="white"/>
<path d="M44.015 31.1605L43.4313 34.7749L47.1171 35.3472L47.7008 31.7329L44.015 31.1605Z" fill="white"/>
<path d="M74.7343 72.6298L74.1504 76.2441L77.8364 76.8165L78.4201 73.2023L74.7343 72.6298Z" fill="white"/>
<path d="M60.923 25.7593L58.2841 28.3469L60.923 30.9344L63.5617 28.3469L60.923 25.7593Z" fill="white"/>
<path d="M38.8296 48.37L36.3224 50.1556L38.1434 52.6141L40.6507 50.8285L38.8296 48.37Z" fill="white"/>
<path d="M83.0293 48.3693L81.2084 50.8279L83.7156 52.6135L85.5366 50.155L83.0293 48.3693Z" fill="white"/>
<path d="M46.413 68.2152H43.3142V71.2538H46.413V68.2152Z" fill="white"/>
<path d="M57.7288 73.8719L55.2216 75.6576L57.0426 78.1162L59.5498 76.3306L57.7288 73.8719Z" fill="white"/>
<path d="M71.483 68.2181L71.0817 70.7029L73.6157 71.0965L74.017 68.6117L71.483 68.2181Z" fill="white"/>
<path d="M46.0181 41.1616L43.4843 41.5552L43.8856 44.04L46.4195 43.6464L46.0181 41.1616Z" fill="white"/>
<path d="M77.9911 63.9331L75.457 64.3267L75.8584 66.8115L78.3924 66.4179L77.9911 63.9331Z" fill="white"/>
<path d="M67.6044 33.8458L65.3182 34.9878L66.4827 37.2295L68.7689 36.0878L67.6044 33.8458Z" fill="white"/>
<path d="M52.4563 37.6647L51.8011 39.6431L53.8187 40.2856L54.4738 38.3071L52.4563 37.6647Z" fill="white"/>
<path d="M68.0507 67.6935L67.3955 69.6719L69.4132 70.3146L70.0684 68.3359L68.0507 67.6935Z" fill="white"/>
<path d="M44.9404 60.3264L44.2853 62.3049L46.303 62.9473L46.9581 60.9689L44.9404 60.3264Z" fill="white"/>
<path d="M74.1452 41.0204H72.0238V43.1006H74.1452V41.0204Z" fill="white"/>
<path d="M60.9318 38.1064L59.691 39.3231L60.9318 40.54L62.1726 39.3231L60.9318 38.1064Z" fill="white"/>
<path d="M49.5742 44.3804L47.8408 44.649L48.1148 46.3487L49.8481 46.08L49.5742 44.3804Z" fill="white"/>
<path d="M45.989 52.7631L44.748 53.9798L45.989 55.1966L47.2298 53.9798L45.989 52.7631Z" fill="white"/>
<path d="M74.7625 48.2938L73.9652 49.8268L75.5285 50.6085L76.3257 49.0755L74.7625 48.2938Z" fill="white"/>
<path d="M72.2876 44.3824L72.0138 46.0821L73.747 46.3506L74.0211 44.6509L72.2876 44.3824Z" fill="white"/>
<path d="M52.8791 64.8422L51.1459 65.1108L51.4197 66.8105L53.1531 66.5418L52.8791 64.8422Z" fill="white"/>
<path d="M65.9269 38.8788L64.3636 39.6605L65.1608 41.1934L66.7242 40.4117L65.9269 38.8788Z" fill="white"/>
</g>
</svg>
