<svg width="360" height="111" viewBox="0 0 360 111" fill="none" xmlns="http://www.w3.org/2000/svg">
<path d="M5.7707 62.8397C6.66713 62.8397 7.45809 62.3127 7.45809 61.3112C7.45809 60.4152 6.71986 59.7827 5.7707 59.7827C4.82155 59.7827 4.08331 60.4152 4.08331 61.3112C4.08331 62.3127 4.92701 62.8397 5.7707 62.8397Z" fill="white"/>
<path d="M10.2527 62.8397C11.1491 62.8397 11.9401 62.3127 11.9401 61.3112C11.9401 60.4152 11.2019 59.7827 10.2527 59.7827C9.30354 59.7827 8.56531 60.4152 8.56531 61.3112C8.56531 62.3127 9.409 62.8397 10.2527 62.8397Z" fill="white"/>
<path d="M14.2077 79.5482C13.2586 79.5482 12.5203 80.1807 12.5203 81.0767C12.5203 82.0782 13.3113 82.6052 14.2077 82.6052C15.1041 82.6052 15.8951 82.0782 15.8951 81.0767C15.8951 80.1807 15.1569 79.5482 14.2077 79.5482Z" fill="white"/>
<path d="M18.7426 79.5482C17.7934 79.5482 17.0552 80.1807 17.0552 81.0767C17.0552 82.0782 17.8461 82.6052 18.7426 82.6052C19.639 82.6052 20.43 82.0782 20.43 81.0767C20.43 80.1807 19.6917 79.5482 18.7426 79.5482Z" fill="white"/>
<path d="M29.236 71.1677C29.236 69.0067 30.607 67.7417 32.5053 67.7417C33.5599 67.7417 34.5618 68.0579 35.7746 68.6377L36.671 66.1605C35.0891 65.4753 33.5599 65.1063 32.2944 65.1063C28.9723 65.1063 26.6522 67.1092 26.6522 70.746C26.6522 71.8001 26.9158 73.1178 27.4959 74.7517H21.8009V65.2644H19.1116V74.7517H11.8348V65.2644H7.4581C3.29236 65.2644 0.550354 67.7944 0.550354 71.3785C0.550354 74.9626 3.1869 77.4398 7.08899 77.4398H37.1456V74.7517H30.4488C29.6578 73.5395 29.236 72.2745 29.236 71.1677ZM9.14549 74.699H6.87806C4.7161 74.699 3.08144 73.3287 3.08144 71.3258C3.08144 69.2702 4.66337 67.8998 6.87806 67.8998H9.14549V74.699Z" fill="white"/>
<path d="M61.1382 63.3671C62.0346 63.3671 62.8256 62.84 62.8256 61.8386C62.8256 60.9425 62.0873 60.3101 61.1382 60.3101C60.189 60.3101 59.4508 60.9425 59.4508 61.8386C59.4508 62.84 60.2418 63.3671 61.1382 63.3671Z" fill="white"/>
<path d="M65.6204 63.3671C66.5168 63.3671 67.3078 62.84 67.3078 61.8386C67.3078 60.9425 66.5695 60.3101 65.6204 60.3101C64.6712 60.3101 63.933 60.9425 63.933 61.8386C63.933 62.84 64.7239 63.3671 65.6204 63.3671Z" fill="white"/>
<path d="M77.8012 64.948C76.272 64.948 74.8483 65.4223 73.3718 66.213L74.321 68.6902C75.5865 67.9523 76.4302 67.6888 77.643 67.6888C80.9123 67.6888 81.5451 71.4837 83.338 74.7515H69.6279V65.2642H66.9914V74.7515H59.7145V71.4837C59.7145 67.5833 57.3416 65.0007 53.7559 65.0007C50.1702 65.0007 47.7973 67.5833 47.7973 71.4837V71.431C47.7973 73.7501 46.69 74.8043 44.528 74.8043H42.6824V60.4152H39.9932V77.545H44.528C46.4791 77.545 48.1665 77.0707 48.9574 75.5949C50.012 77.0707 51.6994 77.545 53.7559 77.545H59.7145H86.8709V74.857C84.3399 73.592 84.2871 64.948 77.8012 64.948ZM57.0252 74.6988H53.7559C51.8049 74.6988 50.4866 73.592 50.4866 71.3783C50.4866 69.1646 51.8049 67.6888 53.7559 67.6888C55.707 67.6888 57.0252 69.1646 57.0252 71.3783V74.6988Z" fill="white"/>
<path d="M79.4884 79.5482C78.5393 79.5482 77.7483 80.1807 77.7483 81.0767C77.7483 82.1309 78.592 82.6579 79.4884 82.6579C80.3848 82.6579 81.1758 82.1309 81.1758 81.0767C81.1758 80.128 80.4376 79.5482 79.4884 79.5482Z" fill="white"/>
<path d="M99.7373 74.6991H90.193V77.4399H102.427V60.3101H99.7373V74.6991Z" fill="white"/>
<path d="M95.7297 61.9962H93.0404V73.2756H95.7297V61.9962Z" fill="white"/>
<path d="M108.596 60.3101H105.907V77.4399H108.596V60.3101Z" fill="white"/>
<path d="M118.141 61.3116C118.141 62.313 118.931 62.8401 119.828 62.8401C120.724 62.8401 121.515 62.313 121.515 61.3116C121.515 60.4156 120.777 59.7831 119.828 59.7831C118.879 59.7304 118.141 60.3629 118.141 61.3116Z" fill="white"/>
<path d="M122.623 61.3116C122.623 62.313 123.414 62.8401 124.31 62.8401C125.206 62.8401 125.997 62.313 125.997 61.3116C125.997 60.4156 125.259 59.7831 124.31 59.7831C123.361 59.7304 122.623 60.3629 122.623 61.3116Z" fill="white"/>
<path d="M128.265 79.5483C127.316 79.5483 126.577 80.1808 126.577 81.0768C126.577 82.0783 127.368 82.6054 128.265 82.6054C129.161 82.6054 129.952 82.0783 129.952 81.0768C129.952 80.1808 129.214 79.5483 128.265 79.5483Z" fill="white"/>
<path d="M132.747 79.5483C131.798 79.5483 131.06 80.1808 131.06 81.0768C131.06 82.0783 131.851 82.6054 132.747 82.6054C133.643 82.6054 134.434 82.0783 134.434 81.0768C134.434 80.1808 133.696 79.5483 132.747 79.5483Z" fill="white"/>
<path d="M156.74 63.4198C157.636 63.4198 158.427 62.8927 158.427 61.8386C158.427 60.8898 157.689 60.3101 156.74 60.3101C155.79 60.3101 154.999 60.9425 154.999 61.8386C155.052 62.8927 155.843 63.4198 156.74 63.4198Z" fill="white"/>
<path d="M165.757 60.3101C164.807 60.3101 164.069 60.9425 164.069 61.8386C164.069 62.84 164.86 63.3671 165.757 63.3671C166.653 63.3671 167.444 62.84 167.444 61.8386C167.444 60.9425 166.706 60.3101 165.757 60.3101Z" fill="white"/>
<path d="M168.815 61.8386C168.815 62.84 169.606 63.3671 170.502 63.3671C171.399 63.3671 172.19 62.84 172.19 61.8386C172.19 60.9425 171.451 60.3101 170.502 60.3101C169.553 60.3101 168.815 60.9425 168.815 61.8386Z" fill="white"/>
<path d="M180.574 74.6991H174.932V65.2118H172.242V74.6991H164.122V65.2118H161.432V74.6991H153.734V71.4313C153.734 67.531 151.361 64.9483 147.775 64.9483C144.189 64.9483 141.817 67.531 141.817 71.4313V71.3786C141.817 73.6977 140.709 74.7519 138.547 74.7519H135.805V65.2645H133.116V74.7519H125.839V65.2645H121.462C117.297 65.2645 114.555 67.7945 114.555 71.3786C114.555 74.9627 117.191 77.4399 121.093 77.4399H138.495C140.446 77.4399 142.133 76.9656 142.924 75.4898C143.979 76.9656 145.666 77.4399 147.722 77.4399H153.681H183.158V60.3101H180.468V74.6991H180.574ZM123.203 74.6991H120.935C118.773 74.6991 117.139 73.3288 117.139 71.3259C117.139 69.2703 118.72 67.8999 120.935 67.8999H123.203V74.6991ZM151.044 74.6991H147.775C145.824 74.6991 144.506 73.5923 144.506 71.3786C144.506 69.1649 145.824 67.6891 147.775 67.6891C149.726 67.6891 151.044 69.1649 151.044 71.3786V74.6991Z" fill="white"/>
<path d="M189.38 60.3101H186.691V77.4399H189.38V60.3101Z" fill="white"/>
<path d="M198.555 65.2119C194.389 65.2119 191.647 67.7419 191.647 71.326C191.647 74.9101 194.284 77.3873 198.186 77.3873H200.242C200.19 78.8631 199.135 79.3375 197.659 79.3375C196.499 79.3375 195.339 79.1266 194.126 78.7577L194.653 81.6039C195.708 81.9201 196.657 82.0255 197.764 82.0255C201.192 82.0255 202.932 80.7606 202.932 76.7021V65.2119H198.555ZM200.295 71.2733V74.6992H198.028C195.866 74.6992 194.231 73.3288 194.231 71.326C194.231 69.2704 195.813 67.9 198.028 67.9H200.295V71.2733Z" fill="white"/>
<path d="M141.289 43.9181C141.289 40.0705 139.496 38.0676 135.542 38.0676H133.643V40.7557H135.911C137.756 40.7557 138.705 41.7044 138.705 43.6546V47.5549H131.27V50.243H141.237V43.9181H141.289Z" fill="white"/>
<path d="M148.092 49.7686V38.0676H145.402V50.1903C145.402 51.8769 144.611 52.4567 143.504 52.4567C142.977 52.4567 142.502 52.404 141.817 52.3513L141.553 54.6704C142.08 54.7758 142.66 54.8813 143.24 54.8813C146.088 54.934 148.092 53.7744 148.092 49.7686Z" fill="white"/>
<path d="M153.892 33.1658H151.203V50.2956H153.892V33.1658Z" fill="white"/>
<path d="M162.751 50.243H164.807C164.754 51.7188 163.7 52.1932 162.223 52.1932C161.063 52.1932 159.903 51.9824 158.69 51.6134L159.218 54.4596C160.272 54.7759 160.694 54.8813 161.802 54.8813C165.018 54.8813 167.286 53.7744 167.496 50.243H173.244C175.09 50.1903 176.672 49.716 177.41 48.2929C178.464 49.7687 180.152 50.243 182.208 50.243H188.167H196.446V33.1132H193.756V47.5023H188.167V44.2344C188.167 40.3341 185.794 37.7514 182.208 37.7514C178.623 37.7514 176.25 40.3341 176.25 44.2344V44.1817C176.25 46.5008 175.142 47.555 172.98 47.555H167.496V38.0676H163.12C158.954 38.0676 156.212 40.5976 156.212 44.1817C156.159 47.7658 158.796 50.243 162.751 50.243ZM178.886 44.2344C178.886 42.0207 180.205 40.5449 182.156 40.5449C184.107 40.5449 185.425 42.0207 185.425 44.2344V47.555H182.156C180.205 47.555 178.886 46.4481 178.886 44.2344ZM158.743 44.1817C158.743 42.1261 160.325 40.7557 162.54 40.7557H164.807V44.129V47.555H162.54C160.325 47.555 158.743 46.2373 158.743 44.1817Z" fill="white"/>
<path d="M202.615 33.1658H199.926V50.2956H202.615V33.1658Z" fill="white"/>
<path d="M55.7072 35.6957C56.6036 35.6957 57.3946 35.1686 57.3946 34.1672C57.3946 33.2712 56.6563 32.6387 55.7072 32.6387C54.758 32.6387 54.0198 33.2712 54.0198 34.1672C54.0198 35.1686 54.8107 35.6957 55.7072 35.6957Z" fill="white"/>
<path d="M51.225 35.6957C52.1214 35.6957 52.9124 35.1686 52.9124 34.1672C52.9124 33.2712 52.1741 32.6387 51.225 32.6387C50.2758 32.6387 49.5376 33.2712 49.5376 34.1672C49.5376 35.1686 50.3286 35.6957 51.225 35.6957Z" fill="white"/>
<path d="M52.5433 50.2429H67.2025V38.0675H64.5132V47.5548H57.2363V38.0675H52.8597C48.6939 38.0675 45.9519 40.5975 45.9519 44.1816C46.0046 47.7656 48.6412 50.2429 52.5433 50.2429ZM48.5357 44.1816C48.5357 42.126 50.1176 40.7556 52.3323 40.7556H54.5998V47.5548H52.3323C50.1704 47.5548 48.5357 46.2371 48.5357 44.1816Z" fill="white"/>
<path d="M91.1422 34.2725C91.9859 34.2725 92.7242 33.7981 92.7242 32.8494C92.7242 32.006 92.0387 31.4263 91.1422 31.4263C90.2458 31.4263 89.5603 32.006 89.5603 32.8494C89.5603 33.7981 90.3513 34.2725 91.1422 34.2725Z" fill="white"/>
<path d="M88.9802 37.6458C89.8239 37.6458 90.6149 37.1187 90.6149 36.17C90.6149 35.274 89.8767 34.6942 88.9802 34.6942C88.0838 34.6942 87.3456 35.274 87.3456 36.17C87.3456 37.1715 88.1365 37.6458 88.9802 37.6458Z" fill="white"/>
<path d="M91.7222 36.17C91.7222 37.1715 92.4604 37.6458 93.3568 37.6458C94.2005 37.6458 94.9915 37.1187 94.9915 36.17C94.9915 35.274 94.306 34.6942 93.3568 34.6942C92.4077 34.6942 91.7222 35.274 91.7222 36.17Z" fill="white"/>
<path d="M118.879 33.1658H116.19V47.5549H110.916V38.0675H108.227V47.5549H100.95V38.0675H98.261V47.5549H92.6188V39.7542H89.9295V47.5549H85.0256V39.7542H82.3363V47.5549H75.4285V37.804H72.7392V50.1902C72.7392 51.8769 71.9483 52.4566 70.8409 52.4566C70.3136 52.4566 69.839 52.4039 69.1535 52.3512L68.8899 54.6704C69.4172 54.7758 69.9972 54.8812 70.5773 54.8812C73.3193 54.8812 75.3231 53.827 75.4285 50.2429H118.826V33.1658H118.879Z" fill="white"/>
<path d="M125.048 33.1658H122.359V50.2956H125.048V33.1658Z" fill="white"/>
<path d="M61.1911 53.9328C61.1911 53.0368 60.4528 52.4043 59.5037 52.4043C58.5545 52.4043 57.8163 53.0368 57.8163 53.9328C57.8163 54.9342 58.6072 55.4613 59.5037 55.4613C60.4001 55.4613 61.1911 54.9342 61.1911 53.9328Z" fill="white"/>
<path d="M65.6734 53.9328C65.6734 53.0368 64.9351 52.4043 63.986 52.4043C63.0368 52.4043 62.2986 53.0368 62.2986 53.9328C62.2986 54.9342 63.0895 55.4613 63.986 55.4613C64.8824 55.4613 65.6734 54.9342 65.6734 53.9328Z" fill="white"/>
<path d="M104.589 52.4043C103.639 52.4043 102.901 53.0368 102.901 53.9328C102.901 54.9342 103.692 55.4613 104.589 55.4613C105.485 55.4613 106.276 54.9342 106.276 53.9328C106.276 53.0368 105.591 52.4043 104.589 52.4043Z" fill="white"/>
<path d="M274.277 28.6855C274.857 28.791 275.384 28.8964 275.964 28.9491C278.601 24.1527 281.554 19.6726 284.928 15.5087C276.755 9.13116 267.422 4.01855 256.506 0.223633L274.277 28.6855ZM320.1 64.7373L290.834 55.25L325.215 110.224C327.271 93.6736 325.32 78.8101 320.1 64.7373Z" fill="white"/>
<path d="M272.167 43.5488C284.823 23.3092 301.328 8.49846 325.215 0.276123L290.887 55.2498L256.506 110.224C253.448 85.1348 259.512 63.8411 272.167 43.5488Z" fill="white"/>
<path d="M222.6 33.0603L259.143 44.9195C262.992 42.8112 266.947 40.861 271.06 39.1217C271.587 37.804 272.167 36.539 272.747 35.274C273.749 33.113 274.804 31.0047 275.911 28.9492C258.299 26.1557 240.793 27.1044 222.6 33.0603ZM322.578 44.9722L290.887 55.2501L359.121 77.4399C348.944 63.3143 336.71 52.8256 322.578 44.9722Z" fill="white"/>
<path d="M222.6 77.4399L261.621 64.7902C263.045 60.9952 264.68 57.3057 266.525 53.6162C267.633 48.7671 269.162 43.9181 271.113 39.1744C251.761 47.3968 235.572 59.4667 222.6 77.4399ZM307.497 28.6857L290.887 55.2501L359.121 33.0604C341.561 27.3153 324.529 26.2084 307.497 28.6857Z" fill="white"/>
</svg>
